G04 #@! TF.GenerationSoftware,KiCad,Pcbnew,(5.1.4)-1*
G04 #@! TF.CreationDate,2021-03-27T03:22:11-04:00*
G04 #@! TF.ProjectId,klark amp boards,6b6c6172-6b20-4616-9d70-20626f617264,1*
G04 #@! TF.SameCoordinates,Original*
G04 #@! TF.FileFunction,Legend,Top*
G04 #@! TF.FilePolarity,Positive*
%FSLAX46Y46*%
G04 Gerber Fmt 4.6, Leading zero omitted, Abs format (unit mm)*
G04 Created by KiCad (PCBNEW (5.1.4)-1) date 2021-03-27 03:22:11*
%MOMM*%
%LPD*%
G04 APERTURE LIST*
%ADD10C,0.152400*%
%ADD11C,0.120000*%
%ADD12C,0.150000*%
%ADD13C,1.500000*%
%ADD14C,4.300000*%
%ADD15C,1.524000*%
%ADD16O,1.600000X1.600000*%
%ADD17C,1.600000*%
%ADD18C,1.600000*%
%ADD19R,1.600000X1.600000*%
G04 APERTURE END LIST*
D10*
X183037480Y-83218020D02*
X183888380Y-83919060D01*
X181973220Y-83626960D02*
X182242460Y-84477860D01*
X180433980Y-83530440D02*
X180058060Y-84338160D01*
X179499260Y-83187540D02*
X178927760Y-83832700D01*
X185361580Y-82057240D02*
X185651140Y-82240120D01*
X184972960Y-82669380D02*
X185361580Y-82057240D01*
X181272180Y-83779360D02*
X184972960Y-82669380D01*
X180251100Y-83487260D02*
X181272180Y-83779360D01*
X179423060Y-83091020D02*
X180251100Y-83487260D01*
X178528980Y-82369660D02*
X179423060Y-83091020D01*
X178518820Y-82359500D02*
X178046380Y-82971640D01*
X178206400Y-81993740D02*
X178518820Y-82359500D01*
X177540920Y-82262980D02*
X178206400Y-81993740D01*
X185680013Y-82212307D02*
G75*
G02X177215801Y-81917539I-4146213J2613787D01*
G01*
X193705963Y-81307940D02*
X193628554Y-81269235D01*
X193512440Y-81269235D01*
X193396325Y-81307940D01*
X193318916Y-81385349D01*
X193280211Y-81462759D01*
X193241506Y-81617578D01*
X193241506Y-81733692D01*
X193280211Y-81888511D01*
X193318916Y-81965920D01*
X193396325Y-82043330D01*
X193512440Y-82082035D01*
X193589849Y-82082035D01*
X193705963Y-82043330D01*
X193744668Y-82004625D01*
X193744668Y-81733692D01*
X193589849Y-81733692D01*
X194093011Y-82082035D02*
X194093011Y-81269235D01*
X194557468Y-82082035D01*
X194557468Y-81269235D01*
X194944516Y-82082035D02*
X194944516Y-81269235D01*
X195138040Y-81269235D01*
X195254154Y-81307940D01*
X195331563Y-81385349D01*
X195370268Y-81462759D01*
X195408973Y-81617578D01*
X195408973Y-81733692D01*
X195370268Y-81888511D01*
X195331563Y-81965920D01*
X195254154Y-82043330D01*
X195138040Y-82082035D01*
X194944516Y-82082035D01*
X203284303Y-94289880D02*
X203206894Y-94251175D01*
X203090780Y-94251175D01*
X202974665Y-94289880D01*
X202897256Y-94367289D01*
X202858551Y-94444699D01*
X202819846Y-94599518D01*
X202819846Y-94715632D01*
X202858551Y-94870451D01*
X202897256Y-94947860D01*
X202974665Y-95025270D01*
X203090780Y-95063975D01*
X203168189Y-95063975D01*
X203284303Y-95025270D01*
X203323008Y-94986565D01*
X203323008Y-94715632D01*
X203168189Y-94715632D01*
X203671351Y-95063975D02*
X203671351Y-94251175D01*
X204135808Y-95063975D01*
X204135808Y-94251175D01*
X204522856Y-95063975D02*
X204522856Y-94251175D01*
X204716380Y-94251175D01*
X204832494Y-94289880D01*
X204909903Y-94367289D01*
X204948608Y-94444699D01*
X204987313Y-94599518D01*
X204987313Y-94715632D01*
X204948608Y-94870451D01*
X204909903Y-94947860D01*
X204832494Y-95025270D01*
X204716380Y-95063975D01*
X204522856Y-95063975D01*
X196555843Y-84106415D02*
X196710662Y-84106415D01*
X196788072Y-84145120D01*
X196865481Y-84222529D01*
X196904186Y-84377348D01*
X196904186Y-84648281D01*
X196865481Y-84803100D01*
X196788072Y-84880510D01*
X196710662Y-84919215D01*
X196555843Y-84919215D01*
X196478434Y-84880510D01*
X196401024Y-84803100D01*
X196362320Y-84648281D01*
X196362320Y-84377348D01*
X196401024Y-84222529D01*
X196478434Y-84145120D01*
X196555843Y-84106415D01*
X197252529Y-84106415D02*
X197252529Y-84764396D01*
X197291234Y-84841805D01*
X197329939Y-84880510D01*
X197407348Y-84919215D01*
X197562167Y-84919215D01*
X197639577Y-84880510D01*
X197678281Y-84841805D01*
X197716986Y-84764396D01*
X197716986Y-84106415D01*
X197987920Y-84106415D02*
X198452377Y-84106415D01*
X198220148Y-84919215D02*
X198220148Y-84106415D01*
X198723310Y-84919215D02*
X198723310Y-84106415D01*
X199032948Y-84106415D01*
X199110358Y-84145120D01*
X199149062Y-84183824D01*
X199187767Y-84261234D01*
X199187767Y-84377348D01*
X199149062Y-84454758D01*
X199110358Y-84493462D01*
X199032948Y-84532167D01*
X198723310Y-84532167D01*
X199536110Y-84106415D02*
X199536110Y-84764396D01*
X199574815Y-84841805D01*
X199613520Y-84880510D01*
X199690929Y-84919215D01*
X199845748Y-84919215D01*
X199923158Y-84880510D01*
X199961862Y-84841805D01*
X200000567Y-84764396D01*
X200000567Y-84106415D01*
X200271500Y-84106415D02*
X200735958Y-84106415D01*
X200503729Y-84919215D02*
X200503729Y-84106415D01*
X201587462Y-84183824D02*
X201626167Y-84145120D01*
X201703577Y-84106415D01*
X201897100Y-84106415D01*
X201974510Y-84145120D01*
X202013215Y-84183824D01*
X202051920Y-84261234D01*
X202051920Y-84338643D01*
X202013215Y-84454758D01*
X201548758Y-84919215D01*
X202051920Y-84919215D01*
X193601823Y-73438415D02*
X193756642Y-73438415D01*
X193834052Y-73477120D01*
X193911461Y-73554529D01*
X193950166Y-73709348D01*
X193950166Y-73980281D01*
X193911461Y-74135100D01*
X193834052Y-74212510D01*
X193756642Y-74251215D01*
X193601823Y-74251215D01*
X193524414Y-74212510D01*
X193447004Y-74135100D01*
X193408300Y-73980281D01*
X193408300Y-73709348D01*
X193447004Y-73554529D01*
X193524414Y-73477120D01*
X193601823Y-73438415D01*
X194298509Y-73438415D02*
X194298509Y-74096396D01*
X194337214Y-74173805D01*
X194375919Y-74212510D01*
X194453328Y-74251215D01*
X194608147Y-74251215D01*
X194685557Y-74212510D01*
X194724261Y-74173805D01*
X194762966Y-74096396D01*
X194762966Y-73438415D01*
X195033900Y-73438415D02*
X195498357Y-73438415D01*
X195266128Y-74251215D02*
X195266128Y-73438415D01*
X195769290Y-74251215D02*
X195769290Y-73438415D01*
X196078928Y-73438415D01*
X196156338Y-73477120D01*
X196195042Y-73515824D01*
X196233747Y-73593234D01*
X196233747Y-73709348D01*
X196195042Y-73786758D01*
X196156338Y-73825462D01*
X196078928Y-73864167D01*
X195769290Y-73864167D01*
X196582090Y-73438415D02*
X196582090Y-74096396D01*
X196620795Y-74173805D01*
X196659500Y-74212510D01*
X196736909Y-74251215D01*
X196891728Y-74251215D01*
X196969138Y-74212510D01*
X197007842Y-74173805D01*
X197046547Y-74096396D01*
X197046547Y-73438415D01*
X197317480Y-73438415D02*
X197781938Y-73438415D01*
X197549709Y-74251215D02*
X197549709Y-73438415D01*
X199097900Y-74251215D02*
X198633442Y-74251215D01*
X198865671Y-74251215D02*
X198865671Y-73438415D01*
X198788261Y-73554529D01*
X198710852Y-73631939D01*
X198633442Y-73670643D01*
X165212243Y-73058020D02*
X165134834Y-73019315D01*
X165018720Y-73019315D01*
X164902605Y-73058020D01*
X164825196Y-73135429D01*
X164786491Y-73212839D01*
X164747786Y-73367658D01*
X164747786Y-73483772D01*
X164786491Y-73638591D01*
X164825196Y-73716000D01*
X164902605Y-73793410D01*
X165018720Y-73832115D01*
X165096129Y-73832115D01*
X165212243Y-73793410D01*
X165250948Y-73754705D01*
X165250948Y-73483772D01*
X165096129Y-73483772D01*
X165599291Y-73832115D02*
X165599291Y-73019315D01*
X166063748Y-73832115D01*
X166063748Y-73019315D01*
X166450796Y-73832115D02*
X166450796Y-73019315D01*
X166644320Y-73019315D01*
X166760434Y-73058020D01*
X166837843Y-73135429D01*
X166876548Y-73212839D01*
X166915253Y-73367658D01*
X166915253Y-73483772D01*
X166876548Y-73638591D01*
X166837843Y-73716000D01*
X166760434Y-73793410D01*
X166644320Y-73832115D01*
X166450796Y-73832115D01*
X156030064Y-73809255D02*
X156411017Y-73809255D01*
X156601493Y-73770550D01*
X156696731Y-73731845D01*
X156887207Y-73615731D01*
X156982445Y-73460912D01*
X156982445Y-73151274D01*
X156887207Y-73073864D01*
X156791969Y-73035160D01*
X156601493Y-72996455D01*
X156220540Y-72996455D01*
X156030064Y-73035160D01*
X155934826Y-73073864D01*
X155839588Y-73151274D01*
X155839588Y-73344798D01*
X155934826Y-73422207D01*
X156030064Y-73460912D01*
X156220540Y-73499617D01*
X156601493Y-73499617D01*
X156791969Y-73460912D01*
X156887207Y-73422207D01*
X156982445Y-73344798D01*
X157553874Y-72996455D02*
X158220540Y-73809255D01*
X158887207Y-72996455D01*
X159553874Y-73809255D02*
X159553874Y-72996455D01*
X160030064Y-72996455D01*
X160315779Y-73035160D01*
X160506255Y-73112569D01*
X160601493Y-73189979D01*
X160696731Y-73344798D01*
X160696731Y-73460912D01*
X160601493Y-73615731D01*
X160506255Y-73693140D01*
X160315779Y-73770550D01*
X160030064Y-73809255D01*
X159553874Y-73809255D01*
X162696731Y-73731845D02*
X162601493Y-73770550D01*
X162315779Y-73809255D01*
X162125302Y-73809255D01*
X161839588Y-73770550D01*
X161649112Y-73693140D01*
X161553874Y-73615731D01*
X161458636Y-73460912D01*
X161458636Y-73344798D01*
X161553874Y-73189979D01*
X161649112Y-73112569D01*
X161839588Y-73035160D01*
X162125302Y-72996455D01*
X162315779Y-72996455D01*
X162601493Y-73035160D01*
X162696731Y-73073864D01*
X129941803Y-96337120D02*
X129864394Y-96298415D01*
X129748280Y-96298415D01*
X129632165Y-96337120D01*
X129554756Y-96414529D01*
X129516051Y-96491939D01*
X129477346Y-96646758D01*
X129477346Y-96762872D01*
X129516051Y-96917691D01*
X129554756Y-96995100D01*
X129632165Y-97072510D01*
X129748280Y-97111215D01*
X129825689Y-97111215D01*
X129941803Y-97072510D01*
X129980508Y-97033805D01*
X129980508Y-96762872D01*
X129825689Y-96762872D01*
X130328851Y-97111215D02*
X130328851Y-96298415D01*
X130793308Y-97111215D01*
X130793308Y-96298415D01*
X131180356Y-97111215D02*
X131180356Y-96298415D01*
X131373880Y-96298415D01*
X131489994Y-96337120D01*
X131567403Y-96414529D01*
X131606108Y-96491939D01*
X131644813Y-96646758D01*
X131644813Y-96762872D01*
X131606108Y-96917691D01*
X131567403Y-96995100D01*
X131489994Y-97072510D01*
X131373880Y-97111215D01*
X131180356Y-97111215D01*
X128736997Y-82003295D02*
X128736997Y-81190495D01*
X129124044Y-82003295D02*
X129124044Y-81190495D01*
X129588501Y-82003295D01*
X129588501Y-81190495D01*
X129975549Y-82003295D02*
X129975549Y-81190495D01*
X130285187Y-81190495D01*
X130362597Y-81229200D01*
X130401301Y-81267904D01*
X130440006Y-81345314D01*
X130440006Y-81461428D01*
X130401301Y-81538838D01*
X130362597Y-81577542D01*
X130285187Y-81616247D01*
X129975549Y-81616247D01*
X130788349Y-81190495D02*
X130788349Y-81848476D01*
X130827054Y-81925885D01*
X130865759Y-81964590D01*
X130943168Y-82003295D01*
X131097987Y-82003295D01*
X131175397Y-81964590D01*
X131214101Y-81925885D01*
X131252806Y-81848476D01*
X131252806Y-81190495D01*
X131523740Y-81190495D02*
X131988197Y-81190495D01*
X131755968Y-82003295D02*
X131755968Y-81190495D01*
X168081960Y-75819000D02*
X166636700Y-76200000D01*
X169872660Y-75366880D02*
X168569640Y-75603100D01*
X165750240Y-73134220D02*
X166743380Y-73759060D01*
X167612060Y-74020680D02*
X168587420Y-74416920D01*
X169219880Y-74615040D02*
X169943780Y-74922380D01*
X171089320Y-75153520D02*
X170395900Y-75831700D01*
X170652440Y-74658220D02*
X171089320Y-75153520D01*
X175925480Y-74462640D02*
X174043340Y-73136760D01*
X176001680Y-76151740D02*
X175925480Y-74462640D01*
X175760380Y-77597000D02*
X176001680Y-76151740D01*
X175414940Y-78577440D02*
X175760380Y-77597000D01*
X175188880Y-79390240D02*
X175414940Y-78577440D01*
X174917100Y-80175100D02*
X175188880Y-79390240D01*
X174553880Y-81048860D02*
X174917100Y-80175100D01*
X174193200Y-81528920D02*
X174553880Y-81048860D01*
X172913040Y-82087720D02*
X174193200Y-81528920D01*
X171737020Y-82161380D02*
X172913040Y-82087720D01*
X170954700Y-81800700D02*
X171737020Y-82161380D01*
X170804840Y-81287620D02*
X170954700Y-81800700D01*
X170954700Y-80957420D02*
X170804840Y-81287620D01*
X171135040Y-80624680D02*
X170954700Y-80957420D01*
X170969940Y-80098900D02*
X171135040Y-80624680D01*
X171043600Y-79750920D02*
X170969940Y-80098900D01*
X171254420Y-79225140D02*
X171043600Y-79750920D01*
X171320460Y-78557120D02*
X171211240Y-79298800D01*
X171246800Y-77889100D02*
X171320460Y-78557120D01*
X171135040Y-77335380D02*
X171246800Y-77889100D01*
X170949620Y-77594460D02*
X171135040Y-77335380D01*
X170543220Y-77779880D02*
X170949620Y-77594460D01*
X170098720Y-77520800D02*
X170543220Y-77779880D01*
X170246040Y-76520040D02*
X170098720Y-77520800D01*
X170431460Y-75481180D02*
X170246040Y-76520040D01*
X170728640Y-74406760D02*
X170431460Y-75481180D01*
X171655740Y-73924160D02*
X170728640Y-74406760D01*
X172359320Y-73182480D02*
X171655740Y-73924160D01*
X174137320Y-73220580D02*
X172359320Y-73182480D01*
X134018150Y-103476455D02*
X134071369Y-103050702D01*
X134033427Y-102973293D01*
X133943027Y-102934588D01*
X133752550Y-102934588D01*
X133652474Y-102973293D01*
X134022988Y-103437750D02*
X133922912Y-103476455D01*
X133684817Y-103476455D01*
X133594417Y-103437750D01*
X133556474Y-103360340D01*
X133566150Y-103282931D01*
X133623446Y-103205521D01*
X133723522Y-103166817D01*
X133961617Y-103166817D01*
X134061693Y-103128112D01*
X135181122Y-102934588D02*
X135562074Y-102934588D01*
X135256246Y-103476455D02*
X135343331Y-102779769D01*
X135400627Y-102702360D01*
X135500703Y-102663655D01*
X135595941Y-102663655D01*
X135827674Y-103476455D02*
X135895407Y-102934588D01*
X135876055Y-103089407D02*
X135933350Y-103011998D01*
X135985807Y-102973293D01*
X136085884Y-102934588D01*
X136181122Y-102934588D01*
X136832512Y-103437750D02*
X136732436Y-103476455D01*
X136541960Y-103476455D01*
X136451560Y-103437750D01*
X136413617Y-103360340D01*
X136452322Y-103050702D01*
X136509617Y-102973293D01*
X136609693Y-102934588D01*
X136800169Y-102934588D01*
X136890569Y-102973293D01*
X136928512Y-103050702D01*
X136918836Y-103128112D01*
X136432969Y-103205521D01*
X137732436Y-103476455D02*
X137785655Y-103050702D01*
X137747712Y-102973293D01*
X137657312Y-102934588D01*
X137466836Y-102934588D01*
X137366760Y-102973293D01*
X137737274Y-103437750D02*
X137637198Y-103476455D01*
X137399103Y-103476455D01*
X137308703Y-103437750D01*
X137270760Y-103360340D01*
X137280436Y-103282931D01*
X137337731Y-103205521D01*
X137437807Y-103166817D01*
X137675903Y-103166817D01*
X137775979Y-103128112D01*
X138208627Y-103476455D02*
X138310227Y-102663655D01*
X138342569Y-103166817D02*
X138589579Y-103476455D01*
X138657312Y-102934588D02*
X138237655Y-103244226D01*
X138990646Y-102934588D02*
X139161007Y-103476455D01*
X139466836Y-102934588D02*
X139161007Y-103476455D01*
X139041579Y-103669979D01*
X138989122Y-103708683D01*
X138889046Y-103747388D01*
X139922912Y-103476455D02*
X139832512Y-103437750D01*
X139794569Y-103360340D01*
X139881655Y-102663655D01*
X140732436Y-103476455D02*
X140785655Y-103050702D01*
X140747712Y-102973293D01*
X140657312Y-102934588D01*
X140466836Y-102934588D01*
X140366760Y-102973293D01*
X140737274Y-103437750D02*
X140637198Y-103476455D01*
X140399103Y-103476455D01*
X140308703Y-103437750D01*
X140270760Y-103360340D01*
X140280436Y-103282931D01*
X140337731Y-103205521D01*
X140437807Y-103166817D01*
X140675903Y-103166817D01*
X140775979Y-103128112D01*
X141208627Y-103476455D02*
X141276360Y-102934588D01*
X141266684Y-103011998D02*
X141319141Y-102973293D01*
X141419217Y-102934588D01*
X141562074Y-102934588D01*
X141652474Y-102973293D01*
X141690417Y-103050702D01*
X141637198Y-103476455D01*
X141690417Y-103050702D02*
X141747712Y-102973293D01*
X141847788Y-102934588D01*
X141990646Y-102934588D01*
X142081046Y-102973293D01*
X142118988Y-103050702D01*
X142065769Y-103476455D01*
X142609693Y-102934588D02*
X142508093Y-103747388D01*
X142604855Y-102973293D02*
X142704931Y-102934588D01*
X142895407Y-102934588D01*
X142985807Y-102973293D01*
X143028588Y-103011998D01*
X143066531Y-103089407D01*
X143037503Y-103321636D01*
X142980207Y-103399045D01*
X142927750Y-103437750D01*
X142827674Y-103476455D01*
X142637198Y-103476455D01*
X142546798Y-103437750D01*
X143403941Y-103437750D02*
X143494341Y-103476455D01*
X143684817Y-103476455D01*
X143784893Y-103437750D01*
X143842188Y-103360340D01*
X143847027Y-103321636D01*
X143809084Y-103244226D01*
X143718684Y-103205521D01*
X143575827Y-103205521D01*
X143485427Y-103166817D01*
X143447484Y-103089407D01*
X143452322Y-103050702D01*
X143509617Y-102973293D01*
X143609693Y-102934588D01*
X143752550Y-102934588D01*
X143842950Y-102973293D01*
X145085884Y-102934588D02*
X144984284Y-103747388D01*
X145081046Y-102973293D02*
X145181122Y-102934588D01*
X145371598Y-102934588D01*
X145461998Y-102973293D01*
X145504779Y-103011998D01*
X145542722Y-103089407D01*
X145513693Y-103321636D01*
X145456398Y-103399045D01*
X145403941Y-103437750D01*
X145303865Y-103476455D01*
X145113388Y-103476455D01*
X145022988Y-103437750D01*
X145922912Y-103476455D02*
X145990646Y-102934588D01*
X145971293Y-103089407D02*
X146028588Y-103011998D01*
X146081046Y-102973293D01*
X146181122Y-102934588D01*
X146276360Y-102934588D01*
X146684817Y-103476455D02*
X146594417Y-103437750D01*
X146551636Y-103399045D01*
X146513693Y-103321636D01*
X146542722Y-103089407D01*
X146600017Y-103011998D01*
X146652474Y-102973293D01*
X146752550Y-102934588D01*
X146895407Y-102934588D01*
X146985807Y-102973293D01*
X147028588Y-103011998D01*
X147066531Y-103089407D01*
X147037503Y-103321636D01*
X146980207Y-103399045D01*
X146927750Y-103437750D01*
X146827674Y-103476455D01*
X146684817Y-103476455D01*
X147875293Y-103476455D02*
X147976893Y-102663655D01*
X147880131Y-103437750D02*
X147780055Y-103476455D01*
X147589579Y-103476455D01*
X147499179Y-103437750D01*
X147456398Y-103399045D01*
X147418455Y-103321636D01*
X147447484Y-103089407D01*
X147504779Y-103011998D01*
X147557236Y-102973293D01*
X147657312Y-102934588D01*
X147847788Y-102934588D01*
X147938188Y-102973293D01*
X148847788Y-102934588D02*
X148780055Y-103476455D01*
X148419217Y-102934588D02*
X148365998Y-103360340D01*
X148403941Y-103437750D01*
X148494341Y-103476455D01*
X148637198Y-103476455D01*
X148737274Y-103437750D01*
X148789731Y-103399045D01*
X149689655Y-103437750D02*
X149589579Y-103476455D01*
X149399103Y-103476455D01*
X149308703Y-103437750D01*
X149265922Y-103399045D01*
X149227979Y-103321636D01*
X149257007Y-103089407D01*
X149314303Y-103011998D01*
X149366760Y-102973293D01*
X149466836Y-102934588D01*
X149657312Y-102934588D01*
X149747712Y-102973293D01*
X150038265Y-102934588D02*
X150419217Y-102934588D01*
X150214988Y-102663655D02*
X150127903Y-103360340D01*
X150165846Y-103437750D01*
X150256246Y-103476455D01*
X150351484Y-103476455D01*
X150684817Y-103476455D02*
X150752550Y-102934588D01*
X150786417Y-102663655D02*
X150733960Y-102702360D01*
X150776741Y-102741064D01*
X150829198Y-102702360D01*
X150786417Y-102663655D01*
X150776741Y-102741064D01*
X151303865Y-103476455D02*
X151213465Y-103437750D01*
X151170684Y-103399045D01*
X151132741Y-103321636D01*
X151161769Y-103089407D01*
X151219065Y-103011998D01*
X151271522Y-102973293D01*
X151371598Y-102934588D01*
X151514455Y-102934588D01*
X151604855Y-102973293D01*
X151647636Y-103011998D01*
X151685579Y-103089407D01*
X151656550Y-103321636D01*
X151599255Y-103399045D01*
X151546798Y-103437750D01*
X151446722Y-103476455D01*
X151303865Y-103476455D01*
X152133503Y-102934588D02*
X152065769Y-103476455D01*
X152123827Y-103011998D02*
X152176284Y-102973293D01*
X152276360Y-102934588D01*
X152419217Y-102934588D01*
X152509617Y-102973293D01*
X152547560Y-103050702D01*
X152494341Y-103476455D01*
X153771141Y-103166817D02*
X154533046Y-103166817D01*
X155732436Y-103476455D02*
X155800169Y-102934588D01*
X155790493Y-103011998D02*
X155842950Y-102973293D01*
X155943027Y-102934588D01*
X156085884Y-102934588D01*
X156176284Y-102973293D01*
X156214227Y-103050702D01*
X156161007Y-103476455D01*
X156214227Y-103050702D02*
X156271522Y-102973293D01*
X156371598Y-102934588D01*
X156514455Y-102934588D01*
X156604855Y-102973293D01*
X156642798Y-103050702D01*
X156589579Y-103476455D01*
X157494341Y-103476455D02*
X157547560Y-103050702D01*
X157509617Y-102973293D01*
X157419217Y-102934588D01*
X157228741Y-102934588D01*
X157128665Y-102973293D01*
X157499179Y-103437750D02*
X157399103Y-103476455D01*
X157161007Y-103476455D01*
X157070607Y-103437750D01*
X157032665Y-103360340D01*
X157042341Y-103282931D01*
X157099636Y-103205521D01*
X157199712Y-103166817D01*
X157437807Y-103166817D01*
X157537884Y-103128112D01*
X157970531Y-103476455D02*
X158038265Y-102934588D01*
X158018912Y-103089407D02*
X158076207Y-103011998D01*
X158128665Y-102973293D01*
X158228741Y-102934588D01*
X158323979Y-102934588D01*
X159022988Y-103437750D02*
X158922912Y-103476455D01*
X158732436Y-103476455D01*
X158642036Y-103437750D01*
X158599255Y-103399045D01*
X158561312Y-103321636D01*
X158590341Y-103089407D01*
X158647636Y-103011998D01*
X158700093Y-102973293D01*
X158800169Y-102934588D01*
X158990646Y-102934588D01*
X159081046Y-102973293D01*
X159446722Y-103476455D02*
X159548322Y-102663655D01*
X159875293Y-103476455D02*
X159928512Y-103050702D01*
X159890569Y-102973293D01*
X159800169Y-102934588D01*
X159657312Y-102934588D01*
X159557236Y-102973293D01*
X159504779Y-103011998D01*
X161157693Y-102741064D02*
X161210150Y-102702360D01*
X161310227Y-102663655D01*
X161548322Y-102663655D01*
X161638722Y-102702360D01*
X161681503Y-102741064D01*
X161719446Y-102818474D01*
X161709769Y-102895883D01*
X161647636Y-103011998D01*
X161018150Y-103476455D01*
X161637198Y-103476455D01*
X162357846Y-102663655D02*
X162453084Y-102663655D01*
X162543484Y-102702360D01*
X162586265Y-102741064D01*
X162624207Y-102818474D01*
X162652474Y-102973293D01*
X162628284Y-103166817D01*
X162561312Y-103321636D01*
X162504017Y-103399045D01*
X162451560Y-103437750D01*
X162351484Y-103476455D01*
X162256246Y-103476455D01*
X162165846Y-103437750D01*
X162123065Y-103399045D01*
X162085122Y-103321636D01*
X162056855Y-103166817D01*
X162081046Y-102973293D01*
X162148017Y-102818474D01*
X162205312Y-102741064D01*
X162257769Y-102702360D01*
X162357846Y-102663655D01*
X163062455Y-102741064D02*
X163114912Y-102702360D01*
X163214988Y-102663655D01*
X163453084Y-102663655D01*
X163543484Y-102702360D01*
X163586265Y-102741064D01*
X163624207Y-102818474D01*
X163614531Y-102895883D01*
X163552398Y-103011998D01*
X162922912Y-103476455D01*
X163541960Y-103476455D01*
X164494341Y-103476455D02*
X163922912Y-103476455D01*
X164208627Y-103476455D02*
X164310227Y-102663655D01*
X164200474Y-102779769D01*
X164095560Y-102857179D01*
X163995484Y-102895883D01*
X165723522Y-103166817D02*
X166485427Y-103166817D01*
X167657312Y-102934588D02*
X167827674Y-103476455D01*
X168133503Y-102934588D01*
X168419217Y-102934588D02*
X168589579Y-103476455D01*
X168895407Y-102934588D01*
X169218303Y-103399045D02*
X169261084Y-103437750D01*
X169208627Y-103476455D01*
X169165846Y-103437750D01*
X169218303Y-103399045D01*
X169208627Y-103476455D01*
X170446722Y-103476455D02*
X170548322Y-102663655D01*
X170580665Y-103166817D02*
X170827674Y-103476455D01*
X170895407Y-102934588D02*
X170475750Y-103244226D01*
X171642036Y-103437750D02*
X171541960Y-103476455D01*
X171351484Y-103476455D01*
X171261084Y-103437750D01*
X171223141Y-103360340D01*
X171261846Y-103050702D01*
X171319141Y-102973293D01*
X171419217Y-102934588D01*
X171609693Y-102934588D01*
X171700093Y-102973293D01*
X171738036Y-103050702D01*
X171728360Y-103128112D01*
X171242493Y-103205521D01*
X172181122Y-102934588D02*
X172113388Y-103476455D01*
X172171446Y-103011998D02*
X172223903Y-102973293D01*
X172323979Y-102934588D01*
X172466836Y-102934588D01*
X172557236Y-102973293D01*
X172595179Y-103050702D01*
X172541960Y-103476455D01*
X173085884Y-102934588D02*
X173018150Y-103476455D01*
X173076207Y-103011998D02*
X173128665Y-102973293D01*
X173228741Y-102934588D01*
X173371598Y-102934588D01*
X173461998Y-102973293D01*
X173499941Y-103050702D01*
X173446722Y-103476455D01*
X174308703Y-103437750D02*
X174208627Y-103476455D01*
X174018150Y-103476455D01*
X173927750Y-103437750D01*
X173889807Y-103360340D01*
X173928512Y-103050702D01*
X173985807Y-102973293D01*
X174085884Y-102934588D01*
X174276360Y-102934588D01*
X174366760Y-102973293D01*
X174404703Y-103050702D01*
X174395027Y-103128112D01*
X173909160Y-103205521D01*
X175208627Y-103476455D02*
X175310227Y-102663655D01*
X175213465Y-103437750D02*
X175113388Y-103476455D01*
X174922912Y-103476455D01*
X174832512Y-103437750D01*
X174789731Y-103399045D01*
X174751788Y-103321636D01*
X174780817Y-103089407D01*
X174838112Y-103011998D01*
X174890569Y-102973293D01*
X174990646Y-102934588D01*
X175181122Y-102934588D01*
X175271522Y-102973293D01*
X175657312Y-102934588D02*
X175827674Y-103476455D01*
X176133503Y-102934588D02*
X175827674Y-103476455D01*
X175708246Y-103669979D01*
X175655788Y-103708683D01*
X175555712Y-103747388D01*
X142051435Y-73440955D02*
X142051435Y-73015202D01*
X142012730Y-72937793D01*
X141935320Y-72899088D01*
X141780501Y-72899088D01*
X141703092Y-72937793D01*
X142051435Y-73402250D02*
X141974025Y-73440955D01*
X141780501Y-73440955D01*
X141703092Y-73402250D01*
X141664387Y-73324840D01*
X141664387Y-73247431D01*
X141703092Y-73170021D01*
X141780501Y-73131317D01*
X141974025Y-73131317D01*
X142051435Y-73092612D01*
X142786825Y-73402250D02*
X142709416Y-73440955D01*
X142554597Y-73440955D01*
X142477187Y-73402250D01*
X142438482Y-73363545D01*
X142399778Y-73286136D01*
X142399778Y-73053907D01*
X142438482Y-72976498D01*
X142477187Y-72937793D01*
X142554597Y-72899088D01*
X142709416Y-72899088D01*
X142786825Y-72937793D01*
X143019054Y-72899088D02*
X143328692Y-72899088D01*
X143135168Y-72628155D02*
X143135168Y-73324840D01*
X143173873Y-73402250D01*
X143251282Y-73440955D01*
X143328692Y-73440955D01*
X143599625Y-73440955D02*
X143599625Y-72899088D01*
X143599625Y-72628155D02*
X143560920Y-72666860D01*
X143599625Y-72705564D01*
X143638330Y-72666860D01*
X143599625Y-72628155D01*
X143599625Y-72705564D01*
X143909263Y-72899088D02*
X144102787Y-73440955D01*
X144296311Y-72899088D01*
X144915587Y-73402250D02*
X144838178Y-73440955D01*
X144683359Y-73440955D01*
X144605949Y-73402250D01*
X144567244Y-73324840D01*
X144567244Y-73015202D01*
X144605949Y-72937793D01*
X144683359Y-72899088D01*
X144838178Y-72899088D01*
X144915587Y-72937793D01*
X144954292Y-73015202D01*
X144954292Y-73092612D01*
X144567244Y-73170021D01*
X145921911Y-72899088D02*
X145921911Y-73711888D01*
X145921911Y-72937793D02*
X145999320Y-72899088D01*
X146154140Y-72899088D01*
X146231549Y-72937793D01*
X146270254Y-72976498D01*
X146308959Y-73053907D01*
X146308959Y-73286136D01*
X146270254Y-73363545D01*
X146231549Y-73402250D01*
X146154140Y-73440955D01*
X145999320Y-73440955D01*
X145921911Y-73402250D01*
X146773416Y-73440955D02*
X146696006Y-73402250D01*
X146657301Y-73324840D01*
X146657301Y-72628155D01*
X147431397Y-72899088D02*
X147431397Y-73440955D01*
X147083054Y-72899088D02*
X147083054Y-73324840D01*
X147121759Y-73402250D01*
X147199168Y-73440955D01*
X147315282Y-73440955D01*
X147392692Y-73402250D01*
X147431397Y-73363545D01*
X148166787Y-72899088D02*
X148166787Y-73557069D01*
X148128082Y-73634479D01*
X148089378Y-73673183D01*
X148011968Y-73711888D01*
X147895854Y-73711888D01*
X147818444Y-73673183D01*
X148166787Y-73402250D02*
X148089378Y-73440955D01*
X147934559Y-73440955D01*
X147857149Y-73402250D01*
X147818444Y-73363545D01*
X147779740Y-73286136D01*
X147779740Y-73053907D01*
X147818444Y-72976498D01*
X147857149Y-72937793D01*
X147934559Y-72899088D01*
X148089378Y-72899088D01*
X148166787Y-72937793D01*
X136555359Y-74812555D02*
X136555359Y-73999755D01*
X136903701Y-74812555D02*
X136903701Y-74386802D01*
X136864997Y-74309393D01*
X136787587Y-74270688D01*
X136671473Y-74270688D01*
X136594063Y-74309393D01*
X136555359Y-74348098D01*
X137290749Y-74812555D02*
X137290749Y-74270688D01*
X137290749Y-73999755D02*
X137252044Y-74038460D01*
X137290749Y-74077164D01*
X137329454Y-74038460D01*
X137290749Y-73999755D01*
X137290749Y-74077164D01*
X138026140Y-74270688D02*
X138026140Y-74928669D01*
X137987435Y-75006079D01*
X137948730Y-75044783D01*
X137871320Y-75083488D01*
X137755206Y-75083488D01*
X137677797Y-75044783D01*
X138026140Y-74773850D02*
X137948730Y-74812555D01*
X137793911Y-74812555D01*
X137716501Y-74773850D01*
X137677797Y-74735145D01*
X137639092Y-74657736D01*
X137639092Y-74425507D01*
X137677797Y-74348098D01*
X137716501Y-74309393D01*
X137793911Y-74270688D01*
X137948730Y-74270688D01*
X138026140Y-74309393D01*
X138413187Y-74812555D02*
X138413187Y-73999755D01*
X138761530Y-74812555D02*
X138761530Y-74386802D01*
X138722825Y-74309393D01*
X138645416Y-74270688D01*
X138529301Y-74270688D01*
X138451892Y-74309393D01*
X138413187Y-74348098D01*
X139767854Y-74812555D02*
X139767854Y-74270688D01*
X139767854Y-73999755D02*
X139729149Y-74038460D01*
X139767854Y-74077164D01*
X139806559Y-74038460D01*
X139767854Y-73999755D01*
X139767854Y-74077164D01*
X140154901Y-74812555D02*
X140154901Y-74270688D01*
X140154901Y-74348098D02*
X140193606Y-74309393D01*
X140271016Y-74270688D01*
X140387130Y-74270688D01*
X140464540Y-74309393D01*
X140503244Y-74386802D01*
X140503244Y-74812555D01*
X140503244Y-74386802D02*
X140541949Y-74309393D01*
X140619359Y-74270688D01*
X140735473Y-74270688D01*
X140812882Y-74309393D01*
X140851587Y-74386802D01*
X140851587Y-74812555D01*
X141238635Y-74270688D02*
X141238635Y-75083488D01*
X141238635Y-74309393D02*
X141316044Y-74270688D01*
X141470863Y-74270688D01*
X141548273Y-74309393D01*
X141586978Y-74348098D01*
X141625682Y-74425507D01*
X141625682Y-74657736D01*
X141586978Y-74735145D01*
X141548273Y-74773850D01*
X141470863Y-74812555D01*
X141316044Y-74812555D01*
X141238635Y-74773850D01*
X142283663Y-74773850D02*
X142206254Y-74812555D01*
X142051435Y-74812555D01*
X141974025Y-74773850D01*
X141935320Y-74696440D01*
X141935320Y-74386802D01*
X141974025Y-74309393D01*
X142051435Y-74270688D01*
X142206254Y-74270688D01*
X142283663Y-74309393D01*
X142322368Y-74386802D01*
X142322368Y-74464212D01*
X141935320Y-74541621D01*
X143019054Y-74812555D02*
X143019054Y-73999755D01*
X143019054Y-74773850D02*
X142941644Y-74812555D01*
X142786825Y-74812555D01*
X142709416Y-74773850D01*
X142670711Y-74735145D01*
X142632006Y-74657736D01*
X142632006Y-74425507D01*
X142670711Y-74348098D01*
X142709416Y-74309393D01*
X142786825Y-74270688D01*
X142941644Y-74270688D01*
X143019054Y-74309393D01*
X143754444Y-74812555D02*
X143754444Y-74386802D01*
X143715740Y-74309393D01*
X143638330Y-74270688D01*
X143483511Y-74270688D01*
X143406101Y-74309393D01*
X143754444Y-74773850D02*
X143677035Y-74812555D01*
X143483511Y-74812555D01*
X143406101Y-74773850D01*
X143367397Y-74696440D01*
X143367397Y-74619031D01*
X143406101Y-74541621D01*
X143483511Y-74502917D01*
X143677035Y-74502917D01*
X143754444Y-74464212D01*
X144141492Y-74270688D02*
X144141492Y-74812555D01*
X144141492Y-74348098D02*
X144180197Y-74309393D01*
X144257606Y-74270688D01*
X144373720Y-74270688D01*
X144451130Y-74309393D01*
X144489835Y-74386802D01*
X144489835Y-74812555D01*
X145225225Y-74773850D02*
X145147816Y-74812555D01*
X144992997Y-74812555D01*
X144915587Y-74773850D01*
X144876882Y-74735145D01*
X144838178Y-74657736D01*
X144838178Y-74425507D01*
X144876882Y-74348098D01*
X144915587Y-74309393D01*
X144992997Y-74270688D01*
X145147816Y-74270688D01*
X145225225Y-74309393D01*
X145883206Y-74773850D02*
X145805797Y-74812555D01*
X145650978Y-74812555D01*
X145573568Y-74773850D01*
X145534863Y-74696440D01*
X145534863Y-74386802D01*
X145573568Y-74309393D01*
X145650978Y-74270688D01*
X145805797Y-74270688D01*
X145883206Y-74309393D01*
X145921911Y-74386802D01*
X145921911Y-74464212D01*
X145534863Y-74541621D01*
X147237873Y-74270688D02*
X147237873Y-74928669D01*
X147199168Y-75006079D01*
X147160463Y-75044783D01*
X147083054Y-75083488D01*
X146966940Y-75083488D01*
X146889530Y-75044783D01*
X147237873Y-74773850D02*
X147160463Y-74812555D01*
X147005644Y-74812555D01*
X146928235Y-74773850D01*
X146889530Y-74735145D01*
X146850825Y-74657736D01*
X146850825Y-74425507D01*
X146889530Y-74348098D01*
X146928235Y-74309393D01*
X147005644Y-74270688D01*
X147160463Y-74270688D01*
X147237873Y-74309393D01*
X147973263Y-74812555D02*
X147973263Y-74386802D01*
X147934559Y-74309393D01*
X147857149Y-74270688D01*
X147702330Y-74270688D01*
X147624920Y-74309393D01*
X147973263Y-74773850D02*
X147895854Y-74812555D01*
X147702330Y-74812555D01*
X147624920Y-74773850D01*
X147586216Y-74696440D01*
X147586216Y-74619031D01*
X147624920Y-74541621D01*
X147702330Y-74502917D01*
X147895854Y-74502917D01*
X147973263Y-74464212D01*
X148360311Y-74812555D02*
X148360311Y-74270688D01*
X148360311Y-73999755D02*
X148321606Y-74038460D01*
X148360311Y-74077164D01*
X148399016Y-74038460D01*
X148360311Y-73999755D01*
X148360311Y-74077164D01*
X148747359Y-74270688D02*
X148747359Y-74812555D01*
X148747359Y-74348098D02*
X148786063Y-74309393D01*
X148863473Y-74270688D01*
X148979587Y-74270688D01*
X149056997Y-74309393D01*
X149095701Y-74386802D01*
X149095701Y-74812555D01*
X150102025Y-74812555D02*
X150102025Y-73999755D01*
X150102025Y-74309393D02*
X150179435Y-74270688D01*
X150334254Y-74270688D01*
X150411663Y-74309393D01*
X150450368Y-74348098D01*
X150489073Y-74425507D01*
X150489073Y-74657736D01*
X150450368Y-74735145D01*
X150411663Y-74773850D01*
X150334254Y-74812555D01*
X150179435Y-74812555D01*
X150102025Y-74773850D01*
X151185759Y-74270688D02*
X151185759Y-74812555D01*
X150837416Y-74270688D02*
X150837416Y-74696440D01*
X150876120Y-74773850D01*
X150953530Y-74812555D01*
X151069644Y-74812555D01*
X151147054Y-74773850D01*
X151185759Y-74735145D01*
X151456692Y-74270688D02*
X151766330Y-74270688D01*
X151572806Y-74812555D02*
X151572806Y-74115869D01*
X151611511Y-74038460D01*
X151688920Y-73999755D01*
X151766330Y-73999755D01*
X151921149Y-74270688D02*
X152230787Y-74270688D01*
X152037263Y-74812555D02*
X152037263Y-74115869D01*
X152075968Y-74038460D01*
X152153378Y-73999755D01*
X152230787Y-73999755D01*
X152811359Y-74773850D02*
X152733949Y-74812555D01*
X152579130Y-74812555D01*
X152501720Y-74773850D01*
X152463016Y-74696440D01*
X152463016Y-74386802D01*
X152501720Y-74309393D01*
X152579130Y-74270688D01*
X152733949Y-74270688D01*
X152811359Y-74309393D01*
X152850063Y-74386802D01*
X152850063Y-74464212D01*
X152463016Y-74541621D01*
X153198406Y-74812555D02*
X153198406Y-74270688D01*
X153198406Y-74425507D02*
X153237111Y-74348098D01*
X153275816Y-74309393D01*
X153353225Y-74270688D01*
X153430635Y-74270688D01*
X140890292Y-76184155D02*
X140890292Y-75642288D01*
X140890292Y-75719698D02*
X140928997Y-75680993D01*
X141006406Y-75642288D01*
X141122520Y-75642288D01*
X141199930Y-75680993D01*
X141238635Y-75758402D01*
X141238635Y-76184155D01*
X141238635Y-75758402D02*
X141277340Y-75680993D01*
X141354749Y-75642288D01*
X141470863Y-75642288D01*
X141548273Y-75680993D01*
X141586978Y-75758402D01*
X141586978Y-76184155D01*
X141974025Y-76106745D02*
X142012730Y-76145450D01*
X141974025Y-76184155D01*
X141935320Y-76145450D01*
X141974025Y-76106745D01*
X141974025Y-76184155D01*
X142902940Y-75642288D02*
X143057759Y-76184155D01*
X143212578Y-75797107D01*
X143367397Y-76184155D01*
X143522216Y-75642288D01*
X143831854Y-76184155D02*
X143831854Y-75642288D01*
X143831854Y-75371355D02*
X143793149Y-75410060D01*
X143831854Y-75448764D01*
X143870559Y-75410060D01*
X143831854Y-75371355D01*
X143831854Y-75448764D01*
X144335016Y-76184155D02*
X144257606Y-76145450D01*
X144218901Y-76068040D01*
X144218901Y-75371355D01*
X144760768Y-76184155D02*
X144683359Y-76145450D01*
X144644654Y-76068040D01*
X144644654Y-75371355D01*
X145070406Y-76184155D02*
X145070406Y-75642288D01*
X145070406Y-75371355D02*
X145031701Y-75410060D01*
X145070406Y-75448764D01*
X145109111Y-75410060D01*
X145070406Y-75371355D01*
X145070406Y-75448764D01*
X145805797Y-76184155D02*
X145805797Y-75758402D01*
X145767092Y-75680993D01*
X145689682Y-75642288D01*
X145534863Y-75642288D01*
X145457454Y-75680993D01*
X145805797Y-76145450D02*
X145728387Y-76184155D01*
X145534863Y-76184155D01*
X145457454Y-76145450D01*
X145418749Y-76068040D01*
X145418749Y-75990631D01*
X145457454Y-75913221D01*
X145534863Y-75874517D01*
X145728387Y-75874517D01*
X145805797Y-75835812D01*
X146192844Y-76184155D02*
X146192844Y-75642288D01*
X146192844Y-75719698D02*
X146231549Y-75680993D01*
X146308959Y-75642288D01*
X146425073Y-75642288D01*
X146502482Y-75680993D01*
X146541187Y-75758402D01*
X146541187Y-76184155D01*
X146541187Y-75758402D02*
X146579892Y-75680993D01*
X146657301Y-75642288D01*
X146773416Y-75642288D01*
X146850825Y-75680993D01*
X146889530Y-75758402D01*
X146889530Y-76184155D01*
X147237873Y-76145450D02*
X147315282Y-76184155D01*
X147470101Y-76184155D01*
X147547511Y-76145450D01*
X147586216Y-76068040D01*
X147586216Y-76029336D01*
X147547511Y-75951926D01*
X147470101Y-75913221D01*
X147353987Y-75913221D01*
X147276578Y-75874517D01*
X147237873Y-75797107D01*
X147237873Y-75758402D01*
X147276578Y-75680993D01*
X147353987Y-75642288D01*
X147470101Y-75642288D01*
X147547511Y-75680993D01*
X148244197Y-76145450D02*
X148166787Y-76184155D01*
X148011968Y-76184155D01*
X147934559Y-76145450D01*
X147895854Y-76068040D01*
X147895854Y-75758402D01*
X147934559Y-75680993D01*
X148011968Y-75642288D01*
X148166787Y-75642288D01*
X148244197Y-75680993D01*
X148282901Y-75758402D01*
X148282901Y-75835812D01*
X147895854Y-75913221D01*
X148631244Y-75642288D02*
X148631244Y-76184155D01*
X148631244Y-75719698D02*
X148669949Y-75680993D01*
X148747359Y-75642288D01*
X148863473Y-75642288D01*
X148940882Y-75680993D01*
X148979587Y-75758402D01*
X148979587Y-76184155D01*
D11*
X168014535Y-89078875D02*
G75*
G02X167142089Y-88872882I147901J2576941D01*
G01*
X170079357Y-88258469D02*
G75*
G03X170564523Y-85506957I-1916921J1756535D01*
G01*
X168275846Y-83904409D02*
G75*
G02X170564523Y-85506957I-113410J-2597525D01*
G01*
X166235682Y-84784343D02*
G75*
G03X165764429Y-85546915I1926754J-1717591D01*
G01*
X165764429Y-85546915D02*
X167142089Y-88872882D01*
X152029497Y-77033747D02*
G75*
G02X152422336Y-77621178I-1908681J-1701479D01*
G01*
X150007406Y-76137701D02*
G75*
G03X147718729Y-77740249I113410J-2597525D01*
G01*
X148203895Y-80491761D02*
G75*
G02X147718729Y-77740249I1916921J1756535D01*
G01*
X150268618Y-81310445D02*
G75*
G03X150949005Y-81178114I-147802J2575219D01*
G01*
X150949005Y-81178114D02*
X152422336Y-77621178D01*
X190243460Y-73560940D02*
X192783460Y-73560940D01*
X190243460Y-83720940D02*
X190243460Y-73560940D01*
X192783460Y-83720940D02*
X190243460Y-83720940D01*
X192783460Y-73560940D02*
X192783460Y-83720940D01*
X157480000Y-77470000D02*
X157480000Y-74930000D01*
X167640000Y-77470000D02*
X157480000Y-77470000D01*
X167640000Y-74930000D02*
X167640000Y-77470000D01*
X157480000Y-74930000D02*
X167640000Y-74930000D01*
X183110000Y-87630000D02*
X182340000Y-87630000D01*
X175030000Y-87630000D02*
X175800000Y-87630000D01*
X182340000Y-86260000D02*
X175800000Y-86260000D01*
X182340000Y-89000000D02*
X182340000Y-86260000D01*
X175800000Y-89000000D02*
X182340000Y-89000000D01*
X175800000Y-86260000D02*
X175800000Y-89000000D01*
X191663566Y-99895414D02*
X192208038Y-99350942D01*
X197376989Y-94181991D02*
X196832517Y-94726463D01*
X193176775Y-100319678D02*
X197801253Y-95695200D01*
X191239302Y-98382205D02*
X193176775Y-100319678D01*
X195863780Y-93757727D02*
X191239302Y-98382205D01*
X197801253Y-95695200D02*
X195863780Y-93757727D01*
X195810000Y-86360000D02*
X195040000Y-86360000D01*
X187730000Y-86360000D02*
X188500000Y-86360000D01*
X195040000Y-84990000D02*
X188500000Y-84990000D01*
X195040000Y-87730000D02*
X195040000Y-84990000D01*
X188500000Y-87730000D02*
X195040000Y-87730000D01*
X188500000Y-84990000D02*
X188500000Y-87730000D01*
X175030000Y-100330000D02*
X175800000Y-100330000D01*
X183110000Y-100330000D02*
X182340000Y-100330000D01*
X175800000Y-101700000D02*
X182340000Y-101700000D01*
X175800000Y-98960000D02*
X175800000Y-101700000D01*
X182340000Y-98960000D02*
X175800000Y-98960000D01*
X182340000Y-101700000D02*
X182340000Y-98960000D01*
X161290000Y-82320000D02*
X161290000Y-83090000D01*
X161290000Y-90400000D02*
X161290000Y-89630000D01*
X159920000Y-83090000D02*
X159920000Y-89630000D01*
X162660000Y-83090000D02*
X159920000Y-83090000D01*
X162660000Y-89630000D02*
X162660000Y-83090000D01*
X159920000Y-89630000D02*
X162660000Y-89630000D01*
X164060000Y-100330000D02*
X163290000Y-100330000D01*
X155980000Y-100330000D02*
X156750000Y-100330000D01*
X163290000Y-98960000D02*
X156750000Y-98960000D01*
X163290000Y-101700000D02*
X163290000Y-98960000D01*
X156750000Y-101700000D02*
X163290000Y-101700000D01*
X156750000Y-98960000D02*
X156750000Y-101700000D01*
X155170000Y-95250000D02*
X154400000Y-95250000D01*
X147090000Y-95250000D02*
X147860000Y-95250000D01*
X154400000Y-93880000D02*
X147860000Y-93880000D01*
X154400000Y-96620000D02*
X154400000Y-93880000D01*
X147860000Y-96620000D02*
X154400000Y-96620000D01*
X147860000Y-93880000D02*
X147860000Y-96620000D01*
X156210000Y-82320000D02*
X156210000Y-83090000D01*
X156210000Y-90400000D02*
X156210000Y-89630000D01*
X154840000Y-83090000D02*
X154840000Y-89630000D01*
X157580000Y-83090000D02*
X154840000Y-83090000D01*
X157580000Y-89630000D02*
X157580000Y-83090000D01*
X154840000Y-89630000D02*
X157580000Y-89630000D01*
X142240000Y-92480000D02*
X142240000Y-93250000D01*
X142240000Y-100560000D02*
X142240000Y-99790000D01*
X140870000Y-93250000D02*
X140870000Y-99790000D01*
X143610000Y-93250000D02*
X140870000Y-93250000D01*
X143610000Y-99790000D02*
X143610000Y-93250000D01*
X140870000Y-99790000D02*
X143610000Y-99790000D01*
X142240000Y-87860000D02*
X142240000Y-87090000D01*
X142240000Y-79780000D02*
X142240000Y-80550000D01*
X143610000Y-87090000D02*
X143610000Y-80550000D01*
X140870000Y-87090000D02*
X143610000Y-87090000D01*
X140870000Y-80550000D02*
X140870000Y-87090000D01*
X143610000Y-80550000D02*
X140870000Y-80550000D01*
X202895200Y-83301840D02*
X205435200Y-83301840D01*
X202895200Y-93461840D02*
X202895200Y-83301840D01*
X205435200Y-93461840D02*
X202895200Y-93461840D01*
X205435200Y-83301840D02*
X205435200Y-93461840D01*
X130810000Y-83820000D02*
X133350000Y-83820000D01*
X130810000Y-93980000D02*
X130810000Y-83820000D01*
X133350000Y-93980000D02*
X130810000Y-93980000D01*
X133350000Y-83820000D02*
X133350000Y-93980000D01*
X179245000Y-89930302D02*
X178445000Y-89930302D01*
X178845000Y-89530302D02*
X178845000Y-90330302D01*
X177063000Y-98021000D02*
X175997000Y-98021000D01*
X177298000Y-97981000D02*
X175762000Y-97981000D01*
X177478000Y-97941000D02*
X175582000Y-97941000D01*
X177628000Y-97901000D02*
X175432000Y-97901000D01*
X177759000Y-97861000D02*
X175301000Y-97861000D01*
X177876000Y-97821000D02*
X175184000Y-97821000D01*
X177983000Y-97781000D02*
X175077000Y-97781000D01*
X178082000Y-97741000D02*
X174978000Y-97741000D01*
X178175000Y-97701000D02*
X174885000Y-97701000D01*
X178261000Y-97661000D02*
X174799000Y-97661000D01*
X178343000Y-97621000D02*
X174717000Y-97621000D01*
X178420000Y-97581000D02*
X174640000Y-97581000D01*
X178494000Y-97541000D02*
X174566000Y-97541000D01*
X178564000Y-97501000D02*
X174496000Y-97501000D01*
X175490000Y-97461000D02*
X174428000Y-97461000D01*
X178632000Y-97461000D02*
X177570000Y-97461000D01*
X175490000Y-97421000D02*
X174364000Y-97421000D01*
X178696000Y-97421000D02*
X177570000Y-97421000D01*
X175490000Y-97381000D02*
X174302000Y-97381000D01*
X178758000Y-97381000D02*
X177570000Y-97381000D01*
X175490000Y-97341000D02*
X174243000Y-97341000D01*
X178817000Y-97341000D02*
X177570000Y-97341000D01*
X175490000Y-97301000D02*
X174185000Y-97301000D01*
X178875000Y-97301000D02*
X177570000Y-97301000D01*
X175490000Y-97261000D02*
X174130000Y-97261000D01*
X178930000Y-97261000D02*
X177570000Y-97261000D01*
X175490000Y-97221000D02*
X174076000Y-97221000D01*
X178984000Y-97221000D02*
X177570000Y-97221000D01*
X175490000Y-97181000D02*
X174025000Y-97181000D01*
X179035000Y-97181000D02*
X177570000Y-97181000D01*
X175490000Y-97141000D02*
X173974000Y-97141000D01*
X179086000Y-97141000D02*
X177570000Y-97141000D01*
X175490000Y-97101000D02*
X173926000Y-97101000D01*
X179134000Y-97101000D02*
X177570000Y-97101000D01*
X175490000Y-97061000D02*
X173879000Y-97061000D01*
X179181000Y-97061000D02*
X177570000Y-97061000D01*
X175490000Y-97021000D02*
X173833000Y-97021000D01*
X179227000Y-97021000D02*
X177570000Y-97021000D01*
X175490000Y-96981000D02*
X173789000Y-96981000D01*
X179271000Y-96981000D02*
X177570000Y-96981000D01*
X175490000Y-96941000D02*
X173746000Y-96941000D01*
X179314000Y-96941000D02*
X177570000Y-96941000D01*
X175490000Y-96901000D02*
X173704000Y-96901000D01*
X179356000Y-96901000D02*
X177570000Y-96901000D01*
X175490000Y-96861000D02*
X173663000Y-96861000D01*
X179397000Y-96861000D02*
X177570000Y-96861000D01*
X175490000Y-96821000D02*
X173623000Y-96821000D01*
X179437000Y-96821000D02*
X177570000Y-96821000D01*
X175490000Y-96781000D02*
X173585000Y-96781000D01*
X179475000Y-96781000D02*
X177570000Y-96781000D01*
X175490000Y-96741000D02*
X173547000Y-96741000D01*
X179513000Y-96741000D02*
X177570000Y-96741000D01*
X175490000Y-96701000D02*
X173511000Y-96701000D01*
X179549000Y-96701000D02*
X177570000Y-96701000D01*
X175490000Y-96661000D02*
X173475000Y-96661000D01*
X179585000Y-96661000D02*
X177570000Y-96661000D01*
X175490000Y-96621000D02*
X173440000Y-96621000D01*
X179620000Y-96621000D02*
X177570000Y-96621000D01*
X175490000Y-96581000D02*
X173406000Y-96581000D01*
X179654000Y-96581000D02*
X177570000Y-96581000D01*
X175490000Y-96541000D02*
X173374000Y-96541000D01*
X179686000Y-96541000D02*
X177570000Y-96541000D01*
X175490000Y-96501000D02*
X173341000Y-96501000D01*
X179719000Y-96501000D02*
X177570000Y-96501000D01*
X175490000Y-96461000D02*
X173310000Y-96461000D01*
X179750000Y-96461000D02*
X177570000Y-96461000D01*
X175490000Y-96421000D02*
X173280000Y-96421000D01*
X179780000Y-96421000D02*
X177570000Y-96421000D01*
X175490000Y-96381000D02*
X173250000Y-96381000D01*
X179810000Y-96381000D02*
X177570000Y-96381000D01*
X175490000Y-96341000D02*
X173221000Y-96341000D01*
X179839000Y-96341000D02*
X177570000Y-96341000D01*
X175490000Y-96301000D02*
X173192000Y-96301000D01*
X179868000Y-96301000D02*
X177570000Y-96301000D01*
X175490000Y-96261000D02*
X173165000Y-96261000D01*
X179895000Y-96261000D02*
X177570000Y-96261000D01*
X175490000Y-96221000D02*
X173138000Y-96221000D01*
X179922000Y-96221000D02*
X177570000Y-96221000D01*
X175490000Y-96181000D02*
X173112000Y-96181000D01*
X179948000Y-96181000D02*
X177570000Y-96181000D01*
X175490000Y-96141000D02*
X173086000Y-96141000D01*
X179974000Y-96141000D02*
X177570000Y-96141000D01*
X175490000Y-96101000D02*
X173061000Y-96101000D01*
X179999000Y-96101000D02*
X177570000Y-96101000D01*
X175490000Y-96061000D02*
X173037000Y-96061000D01*
X180023000Y-96061000D02*
X177570000Y-96061000D01*
X175490000Y-96021000D02*
X173013000Y-96021000D01*
X180047000Y-96021000D02*
X177570000Y-96021000D01*
X175490000Y-95981000D02*
X172990000Y-95981000D01*
X180070000Y-95981000D02*
X177570000Y-95981000D01*
X175490000Y-95941000D02*
X172968000Y-95941000D01*
X180092000Y-95941000D02*
X177570000Y-95941000D01*
X175490000Y-95901000D02*
X172946000Y-95901000D01*
X180114000Y-95901000D02*
X177570000Y-95901000D01*
X175490000Y-95861000D02*
X172924000Y-95861000D01*
X180136000Y-95861000D02*
X177570000Y-95861000D01*
X175490000Y-95821000D02*
X172903000Y-95821000D01*
X180157000Y-95821000D02*
X177570000Y-95821000D01*
X175490000Y-95781000D02*
X172883000Y-95781000D01*
X180177000Y-95781000D02*
X177570000Y-95781000D01*
X175490000Y-95741000D02*
X172864000Y-95741000D01*
X180196000Y-95741000D02*
X177570000Y-95741000D01*
X175490000Y-95701000D02*
X172844000Y-95701000D01*
X180216000Y-95701000D02*
X177570000Y-95701000D01*
X175490000Y-95661000D02*
X172826000Y-95661000D01*
X180234000Y-95661000D02*
X177570000Y-95661000D01*
X175490000Y-95621000D02*
X172808000Y-95621000D01*
X180252000Y-95621000D02*
X177570000Y-95621000D01*
X175490000Y-95581000D02*
X172790000Y-95581000D01*
X180270000Y-95581000D02*
X177570000Y-95581000D01*
X175490000Y-95541000D02*
X172773000Y-95541000D01*
X180287000Y-95541000D02*
X177570000Y-95541000D01*
X175490000Y-95501000D02*
X172756000Y-95501000D01*
X180304000Y-95501000D02*
X177570000Y-95501000D01*
X175490000Y-95461000D02*
X172740000Y-95461000D01*
X180320000Y-95461000D02*
X177570000Y-95461000D01*
X175490000Y-95421000D02*
X172725000Y-95421000D01*
X180335000Y-95421000D02*
X177570000Y-95421000D01*
X180351000Y-95381000D02*
X172709000Y-95381000D01*
X180365000Y-95341000D02*
X172695000Y-95341000D01*
X180380000Y-95301000D02*
X172680000Y-95301000D01*
X180393000Y-95261000D02*
X172667000Y-95261000D01*
X180407000Y-95221000D02*
X172653000Y-95221000D01*
X180419000Y-95181000D02*
X172641000Y-95181000D01*
X180432000Y-95141000D02*
X172628000Y-95141000D01*
X180444000Y-95101000D02*
X172616000Y-95101000D01*
X180455000Y-95061000D02*
X172605000Y-95061000D01*
X180466000Y-95021000D02*
X172594000Y-95021000D01*
X180477000Y-94981000D02*
X172583000Y-94981000D01*
X180487000Y-94941000D02*
X172573000Y-94941000D01*
X180497000Y-94901000D02*
X172563000Y-94901000D01*
X180506000Y-94861000D02*
X172554000Y-94861000D01*
X180515000Y-94821000D02*
X172545000Y-94821000D01*
X180524000Y-94781000D02*
X172536000Y-94781000D01*
X180532000Y-94741000D02*
X172528000Y-94741000D01*
X180540000Y-94701000D02*
X172520000Y-94701000D01*
X180547000Y-94661000D02*
X172513000Y-94661000D01*
X180554000Y-94620000D02*
X172506000Y-94620000D01*
X180560000Y-94580000D02*
X172500000Y-94580000D01*
X180567000Y-94540000D02*
X172493000Y-94540000D01*
X180572000Y-94500000D02*
X172488000Y-94500000D01*
X180578000Y-94460000D02*
X172482000Y-94460000D01*
X180582000Y-94420000D02*
X172478000Y-94420000D01*
X180587000Y-94380000D02*
X172473000Y-94380000D01*
X180591000Y-94340000D02*
X172469000Y-94340000D01*
X180595000Y-94300000D02*
X172465000Y-94300000D01*
X180598000Y-94260000D02*
X172462000Y-94260000D01*
X180601000Y-94220000D02*
X172459000Y-94220000D01*
X180604000Y-94180000D02*
X172456000Y-94180000D01*
X180606000Y-94140000D02*
X172454000Y-94140000D01*
X180607000Y-94100000D02*
X172453000Y-94100000D01*
X180609000Y-94060000D02*
X172451000Y-94060000D01*
X180610000Y-94020000D02*
X172450000Y-94020000D01*
X180610000Y-93980000D02*
X172450000Y-93980000D01*
X180610000Y-93940000D02*
X172450000Y-93940000D01*
X180650000Y-93940000D02*
G75*
G03X180650000Y-93940000I-4120000J0D01*
G01*
X190675000Y-89930302D02*
X189875000Y-89930302D01*
X190275000Y-89530302D02*
X190275000Y-90330302D01*
X188493000Y-98021000D02*
X187427000Y-98021000D01*
X188728000Y-97981000D02*
X187192000Y-97981000D01*
X188908000Y-97941000D02*
X187012000Y-97941000D01*
X189058000Y-97901000D02*
X186862000Y-97901000D01*
X189189000Y-97861000D02*
X186731000Y-97861000D01*
X189306000Y-97821000D02*
X186614000Y-97821000D01*
X189413000Y-97781000D02*
X186507000Y-97781000D01*
X189512000Y-97741000D02*
X186408000Y-97741000D01*
X189605000Y-97701000D02*
X186315000Y-97701000D01*
X189691000Y-97661000D02*
X186229000Y-97661000D01*
X189773000Y-97621000D02*
X186147000Y-97621000D01*
X189850000Y-97581000D02*
X186070000Y-97581000D01*
X189924000Y-97541000D02*
X185996000Y-97541000D01*
X189994000Y-97501000D02*
X185926000Y-97501000D01*
X186920000Y-97461000D02*
X185858000Y-97461000D01*
X190062000Y-97461000D02*
X189000000Y-97461000D01*
X186920000Y-97421000D02*
X185794000Y-97421000D01*
X190126000Y-97421000D02*
X189000000Y-97421000D01*
X186920000Y-97381000D02*
X185732000Y-97381000D01*
X190188000Y-97381000D02*
X189000000Y-97381000D01*
X186920000Y-97341000D02*
X185673000Y-97341000D01*
X190247000Y-97341000D02*
X189000000Y-97341000D01*
X186920000Y-97301000D02*
X185615000Y-97301000D01*
X190305000Y-97301000D02*
X189000000Y-97301000D01*
X186920000Y-97261000D02*
X185560000Y-97261000D01*
X190360000Y-97261000D02*
X189000000Y-97261000D01*
X186920000Y-97221000D02*
X185506000Y-97221000D01*
X190414000Y-97221000D02*
X189000000Y-97221000D01*
X186920000Y-97181000D02*
X185455000Y-97181000D01*
X190465000Y-97181000D02*
X189000000Y-97181000D01*
X186920000Y-97141000D02*
X185404000Y-97141000D01*
X190516000Y-97141000D02*
X189000000Y-97141000D01*
X186920000Y-97101000D02*
X185356000Y-97101000D01*
X190564000Y-97101000D02*
X189000000Y-97101000D01*
X186920000Y-97061000D02*
X185309000Y-97061000D01*
X190611000Y-97061000D02*
X189000000Y-97061000D01*
X186920000Y-97021000D02*
X185263000Y-97021000D01*
X190657000Y-97021000D02*
X189000000Y-97021000D01*
X186920000Y-96981000D02*
X185219000Y-96981000D01*
X190701000Y-96981000D02*
X189000000Y-96981000D01*
X186920000Y-96941000D02*
X185176000Y-96941000D01*
X190744000Y-96941000D02*
X189000000Y-96941000D01*
X186920000Y-96901000D02*
X185134000Y-96901000D01*
X190786000Y-96901000D02*
X189000000Y-96901000D01*
X186920000Y-96861000D02*
X185093000Y-96861000D01*
X190827000Y-96861000D02*
X189000000Y-96861000D01*
X186920000Y-96821000D02*
X185053000Y-96821000D01*
X190867000Y-96821000D02*
X189000000Y-96821000D01*
X186920000Y-96781000D02*
X185015000Y-96781000D01*
X190905000Y-96781000D02*
X189000000Y-96781000D01*
X186920000Y-96741000D02*
X184977000Y-96741000D01*
X190943000Y-96741000D02*
X189000000Y-96741000D01*
X186920000Y-96701000D02*
X184941000Y-96701000D01*
X190979000Y-96701000D02*
X189000000Y-96701000D01*
X186920000Y-96661000D02*
X184905000Y-96661000D01*
X191015000Y-96661000D02*
X189000000Y-96661000D01*
X186920000Y-96621000D02*
X184870000Y-96621000D01*
X191050000Y-96621000D02*
X189000000Y-96621000D01*
X186920000Y-96581000D02*
X184836000Y-96581000D01*
X191084000Y-96581000D02*
X189000000Y-96581000D01*
X186920000Y-96541000D02*
X184804000Y-96541000D01*
X191116000Y-96541000D02*
X189000000Y-96541000D01*
X186920000Y-96501000D02*
X184771000Y-96501000D01*
X191149000Y-96501000D02*
X189000000Y-96501000D01*
X186920000Y-96461000D02*
X184740000Y-96461000D01*
X191180000Y-96461000D02*
X189000000Y-96461000D01*
X186920000Y-96421000D02*
X184710000Y-96421000D01*
X191210000Y-96421000D02*
X189000000Y-96421000D01*
X186920000Y-96381000D02*
X184680000Y-96381000D01*
X191240000Y-96381000D02*
X189000000Y-96381000D01*
X186920000Y-96341000D02*
X184651000Y-96341000D01*
X191269000Y-96341000D02*
X189000000Y-96341000D01*
X186920000Y-96301000D02*
X184622000Y-96301000D01*
X191298000Y-96301000D02*
X189000000Y-96301000D01*
X186920000Y-96261000D02*
X184595000Y-96261000D01*
X191325000Y-96261000D02*
X189000000Y-96261000D01*
X186920000Y-96221000D02*
X184568000Y-96221000D01*
X191352000Y-96221000D02*
X189000000Y-96221000D01*
X186920000Y-96181000D02*
X184542000Y-96181000D01*
X191378000Y-96181000D02*
X189000000Y-96181000D01*
X186920000Y-96141000D02*
X184516000Y-96141000D01*
X191404000Y-96141000D02*
X189000000Y-96141000D01*
X186920000Y-96101000D02*
X184491000Y-96101000D01*
X191429000Y-96101000D02*
X189000000Y-96101000D01*
X186920000Y-96061000D02*
X184467000Y-96061000D01*
X191453000Y-96061000D02*
X189000000Y-96061000D01*
X186920000Y-96021000D02*
X184443000Y-96021000D01*
X191477000Y-96021000D02*
X189000000Y-96021000D01*
X186920000Y-95981000D02*
X184420000Y-95981000D01*
X191500000Y-95981000D02*
X189000000Y-95981000D01*
X186920000Y-95941000D02*
X184398000Y-95941000D01*
X191522000Y-95941000D02*
X189000000Y-95941000D01*
X186920000Y-95901000D02*
X184376000Y-95901000D01*
X191544000Y-95901000D02*
X189000000Y-95901000D01*
X186920000Y-95861000D02*
X184354000Y-95861000D01*
X191566000Y-95861000D02*
X189000000Y-95861000D01*
X186920000Y-95821000D02*
X184333000Y-95821000D01*
X191587000Y-95821000D02*
X189000000Y-95821000D01*
X186920000Y-95781000D02*
X184313000Y-95781000D01*
X191607000Y-95781000D02*
X189000000Y-95781000D01*
X186920000Y-95741000D02*
X184294000Y-95741000D01*
X191626000Y-95741000D02*
X189000000Y-95741000D01*
X186920000Y-95701000D02*
X184274000Y-95701000D01*
X191646000Y-95701000D02*
X189000000Y-95701000D01*
X186920000Y-95661000D02*
X184256000Y-95661000D01*
X191664000Y-95661000D02*
X189000000Y-95661000D01*
X186920000Y-95621000D02*
X184238000Y-95621000D01*
X191682000Y-95621000D02*
X189000000Y-95621000D01*
X186920000Y-95581000D02*
X184220000Y-95581000D01*
X191700000Y-95581000D02*
X189000000Y-95581000D01*
X186920000Y-95541000D02*
X184203000Y-95541000D01*
X191717000Y-95541000D02*
X189000000Y-95541000D01*
X186920000Y-95501000D02*
X184186000Y-95501000D01*
X191734000Y-95501000D02*
X189000000Y-95501000D01*
X186920000Y-95461000D02*
X184170000Y-95461000D01*
X191750000Y-95461000D02*
X189000000Y-95461000D01*
X186920000Y-95421000D02*
X184155000Y-95421000D01*
X191765000Y-95421000D02*
X189000000Y-95421000D01*
X191781000Y-95381000D02*
X184139000Y-95381000D01*
X191795000Y-95341000D02*
X184125000Y-95341000D01*
X191810000Y-95301000D02*
X184110000Y-95301000D01*
X191823000Y-95261000D02*
X184097000Y-95261000D01*
X191837000Y-95221000D02*
X184083000Y-95221000D01*
X191849000Y-95181000D02*
X184071000Y-95181000D01*
X191862000Y-95141000D02*
X184058000Y-95141000D01*
X191874000Y-95101000D02*
X184046000Y-95101000D01*
X191885000Y-95061000D02*
X184035000Y-95061000D01*
X191896000Y-95021000D02*
X184024000Y-95021000D01*
X191907000Y-94981000D02*
X184013000Y-94981000D01*
X191917000Y-94941000D02*
X184003000Y-94941000D01*
X191927000Y-94901000D02*
X183993000Y-94901000D01*
X191936000Y-94861000D02*
X183984000Y-94861000D01*
X191945000Y-94821000D02*
X183975000Y-94821000D01*
X191954000Y-94781000D02*
X183966000Y-94781000D01*
X191962000Y-94741000D02*
X183958000Y-94741000D01*
X191970000Y-94701000D02*
X183950000Y-94701000D01*
X191977000Y-94661000D02*
X183943000Y-94661000D01*
X191984000Y-94620000D02*
X183936000Y-94620000D01*
X191990000Y-94580000D02*
X183930000Y-94580000D01*
X191997000Y-94540000D02*
X183923000Y-94540000D01*
X192002000Y-94500000D02*
X183918000Y-94500000D01*
X192008000Y-94460000D02*
X183912000Y-94460000D01*
X192012000Y-94420000D02*
X183908000Y-94420000D01*
X192017000Y-94380000D02*
X183903000Y-94380000D01*
X192021000Y-94340000D02*
X183899000Y-94340000D01*
X192025000Y-94300000D02*
X183895000Y-94300000D01*
X192028000Y-94260000D02*
X183892000Y-94260000D01*
X192031000Y-94220000D02*
X183889000Y-94220000D01*
X192034000Y-94180000D02*
X183886000Y-94180000D01*
X192036000Y-94140000D02*
X183884000Y-94140000D01*
X192037000Y-94100000D02*
X183883000Y-94100000D01*
X192039000Y-94060000D02*
X183881000Y-94060000D01*
X192040000Y-94020000D02*
X183880000Y-94020000D01*
X192040000Y-93980000D02*
X183880000Y-93980000D01*
X192040000Y-93940000D02*
X183880000Y-93940000D01*
X192080000Y-93940000D02*
G75*
G03X192080000Y-93940000I-4120000J0D01*
G01*
X168695000Y-91400000D02*
X169010000Y-91400000D01*
X166270000Y-91400000D02*
X166585000Y-91400000D01*
X168695000Y-96640000D02*
X169010000Y-96640000D01*
X166270000Y-96640000D02*
X166585000Y-96640000D01*
X169010000Y-96640000D02*
X169010000Y-91400000D01*
X166270000Y-96640000D02*
X166270000Y-91400000D01*
X145875000Y-92429698D02*
X146675000Y-92429698D01*
X146275000Y-92829698D02*
X146275000Y-92029698D01*
X148057000Y-84339000D02*
X149123000Y-84339000D01*
X147822000Y-84379000D02*
X149358000Y-84379000D01*
X147642000Y-84419000D02*
X149538000Y-84419000D01*
X147492000Y-84459000D02*
X149688000Y-84459000D01*
X147361000Y-84499000D02*
X149819000Y-84499000D01*
X147244000Y-84539000D02*
X149936000Y-84539000D01*
X147137000Y-84579000D02*
X150043000Y-84579000D01*
X147038000Y-84619000D02*
X150142000Y-84619000D01*
X146945000Y-84659000D02*
X150235000Y-84659000D01*
X146859000Y-84699000D02*
X150321000Y-84699000D01*
X146777000Y-84739000D02*
X150403000Y-84739000D01*
X146700000Y-84779000D02*
X150480000Y-84779000D01*
X146626000Y-84819000D02*
X150554000Y-84819000D01*
X146556000Y-84859000D02*
X150624000Y-84859000D01*
X146488000Y-84899000D02*
X150692000Y-84899000D01*
X146424000Y-84939000D02*
X150756000Y-84939000D01*
X146362000Y-84979000D02*
X150818000Y-84979000D01*
X146303000Y-85019000D02*
X150877000Y-85019000D01*
X146245000Y-85059000D02*
X150935000Y-85059000D01*
X146190000Y-85099000D02*
X150990000Y-85099000D01*
X146136000Y-85139000D02*
X151044000Y-85139000D01*
X146085000Y-85179000D02*
X151095000Y-85179000D01*
X146034000Y-85219000D02*
X151146000Y-85219000D01*
X145986000Y-85259000D02*
X151194000Y-85259000D01*
X145939000Y-85299000D02*
X151241000Y-85299000D01*
X145893000Y-85339000D02*
X151287000Y-85339000D01*
X145849000Y-85379000D02*
X151331000Y-85379000D01*
X145806000Y-85419000D02*
X151374000Y-85419000D01*
X145764000Y-85459000D02*
X151416000Y-85459000D01*
X145723000Y-85499000D02*
X151457000Y-85499000D01*
X145683000Y-85539000D02*
X151497000Y-85539000D01*
X145645000Y-85579000D02*
X151535000Y-85579000D01*
X145607000Y-85619000D02*
X151573000Y-85619000D01*
X149630000Y-85659000D02*
X151609000Y-85659000D01*
X145571000Y-85659000D02*
X147550000Y-85659000D01*
X149630000Y-85699000D02*
X151645000Y-85699000D01*
X145535000Y-85699000D02*
X147550000Y-85699000D01*
X149630000Y-85739000D02*
X151680000Y-85739000D01*
X145500000Y-85739000D02*
X147550000Y-85739000D01*
X149630000Y-85779000D02*
X151714000Y-85779000D01*
X145466000Y-85779000D02*
X147550000Y-85779000D01*
X149630000Y-85819000D02*
X151746000Y-85819000D01*
X145434000Y-85819000D02*
X147550000Y-85819000D01*
X149630000Y-85859000D02*
X151779000Y-85859000D01*
X145401000Y-85859000D02*
X147550000Y-85859000D01*
X149630000Y-85899000D02*
X151810000Y-85899000D01*
X145370000Y-85899000D02*
X147550000Y-85899000D01*
X149630000Y-85939000D02*
X151840000Y-85939000D01*
X145340000Y-85939000D02*
X147550000Y-85939000D01*
X149630000Y-85979000D02*
X151870000Y-85979000D01*
X145310000Y-85979000D02*
X147550000Y-85979000D01*
X149630000Y-86019000D02*
X151899000Y-86019000D01*
X145281000Y-86019000D02*
X147550000Y-86019000D01*
X149630000Y-86059000D02*
X151928000Y-86059000D01*
X145252000Y-86059000D02*
X147550000Y-86059000D01*
X149630000Y-86099000D02*
X151955000Y-86099000D01*
X145225000Y-86099000D02*
X147550000Y-86099000D01*
X149630000Y-86139000D02*
X151982000Y-86139000D01*
X145198000Y-86139000D02*
X147550000Y-86139000D01*
X149630000Y-86179000D02*
X152008000Y-86179000D01*
X145172000Y-86179000D02*
X147550000Y-86179000D01*
X149630000Y-86219000D02*
X152034000Y-86219000D01*
X145146000Y-86219000D02*
X147550000Y-86219000D01*
X149630000Y-86259000D02*
X152059000Y-86259000D01*
X145121000Y-86259000D02*
X147550000Y-86259000D01*
X149630000Y-86299000D02*
X152083000Y-86299000D01*
X145097000Y-86299000D02*
X147550000Y-86299000D01*
X149630000Y-86339000D02*
X152107000Y-86339000D01*
X145073000Y-86339000D02*
X147550000Y-86339000D01*
X149630000Y-86379000D02*
X152130000Y-86379000D01*
X145050000Y-86379000D02*
X147550000Y-86379000D01*
X149630000Y-86419000D02*
X152152000Y-86419000D01*
X145028000Y-86419000D02*
X147550000Y-86419000D01*
X149630000Y-86459000D02*
X152174000Y-86459000D01*
X145006000Y-86459000D02*
X147550000Y-86459000D01*
X149630000Y-86499000D02*
X152196000Y-86499000D01*
X144984000Y-86499000D02*
X147550000Y-86499000D01*
X149630000Y-86539000D02*
X152217000Y-86539000D01*
X144963000Y-86539000D02*
X147550000Y-86539000D01*
X149630000Y-86579000D02*
X152237000Y-86579000D01*
X144943000Y-86579000D02*
X147550000Y-86579000D01*
X149630000Y-86619000D02*
X152256000Y-86619000D01*
X144924000Y-86619000D02*
X147550000Y-86619000D01*
X149630000Y-86659000D02*
X152276000Y-86659000D01*
X144904000Y-86659000D02*
X147550000Y-86659000D01*
X149630000Y-86699000D02*
X152294000Y-86699000D01*
X144886000Y-86699000D02*
X147550000Y-86699000D01*
X149630000Y-86739000D02*
X152312000Y-86739000D01*
X144868000Y-86739000D02*
X147550000Y-86739000D01*
X149630000Y-86779000D02*
X152330000Y-86779000D01*
X144850000Y-86779000D02*
X147550000Y-86779000D01*
X149630000Y-86819000D02*
X152347000Y-86819000D01*
X144833000Y-86819000D02*
X147550000Y-86819000D01*
X149630000Y-86859000D02*
X152364000Y-86859000D01*
X144816000Y-86859000D02*
X147550000Y-86859000D01*
X149630000Y-86899000D02*
X152380000Y-86899000D01*
X144800000Y-86899000D02*
X147550000Y-86899000D01*
X149630000Y-86939000D02*
X152395000Y-86939000D01*
X144785000Y-86939000D02*
X147550000Y-86939000D01*
X149630000Y-86979000D02*
X152411000Y-86979000D01*
X144769000Y-86979000D02*
X147550000Y-86979000D01*
X149630000Y-87019000D02*
X152425000Y-87019000D01*
X144755000Y-87019000D02*
X147550000Y-87019000D01*
X149630000Y-87059000D02*
X152440000Y-87059000D01*
X144740000Y-87059000D02*
X147550000Y-87059000D01*
X149630000Y-87099000D02*
X152453000Y-87099000D01*
X144727000Y-87099000D02*
X147550000Y-87099000D01*
X149630000Y-87139000D02*
X152467000Y-87139000D01*
X144713000Y-87139000D02*
X147550000Y-87139000D01*
X149630000Y-87179000D02*
X152479000Y-87179000D01*
X144701000Y-87179000D02*
X147550000Y-87179000D01*
X149630000Y-87219000D02*
X152492000Y-87219000D01*
X144688000Y-87219000D02*
X147550000Y-87219000D01*
X149630000Y-87259000D02*
X152504000Y-87259000D01*
X144676000Y-87259000D02*
X147550000Y-87259000D01*
X149630000Y-87299000D02*
X152515000Y-87299000D01*
X144665000Y-87299000D02*
X147550000Y-87299000D01*
X149630000Y-87339000D02*
X152526000Y-87339000D01*
X144654000Y-87339000D02*
X147550000Y-87339000D01*
X149630000Y-87379000D02*
X152537000Y-87379000D01*
X144643000Y-87379000D02*
X147550000Y-87379000D01*
X149630000Y-87419000D02*
X152547000Y-87419000D01*
X144633000Y-87419000D02*
X147550000Y-87419000D01*
X149630000Y-87459000D02*
X152557000Y-87459000D01*
X144623000Y-87459000D02*
X147550000Y-87459000D01*
X149630000Y-87499000D02*
X152566000Y-87499000D01*
X144614000Y-87499000D02*
X147550000Y-87499000D01*
X149630000Y-87539000D02*
X152575000Y-87539000D01*
X144605000Y-87539000D02*
X147550000Y-87539000D01*
X149630000Y-87579000D02*
X152584000Y-87579000D01*
X144596000Y-87579000D02*
X147550000Y-87579000D01*
X149630000Y-87619000D02*
X152592000Y-87619000D01*
X144588000Y-87619000D02*
X147550000Y-87619000D01*
X149630000Y-87659000D02*
X152600000Y-87659000D01*
X144580000Y-87659000D02*
X147550000Y-87659000D01*
X149630000Y-87699000D02*
X152607000Y-87699000D01*
X144573000Y-87699000D02*
X147550000Y-87699000D01*
X144566000Y-87740000D02*
X152614000Y-87740000D01*
X144560000Y-87780000D02*
X152620000Y-87780000D01*
X144553000Y-87820000D02*
X152627000Y-87820000D01*
X144548000Y-87860000D02*
X152632000Y-87860000D01*
X144542000Y-87900000D02*
X152638000Y-87900000D01*
X144538000Y-87940000D02*
X152642000Y-87940000D01*
X144533000Y-87980000D02*
X152647000Y-87980000D01*
X144529000Y-88020000D02*
X152651000Y-88020000D01*
X144525000Y-88060000D02*
X152655000Y-88060000D01*
X144522000Y-88100000D02*
X152658000Y-88100000D01*
X144519000Y-88140000D02*
X152661000Y-88140000D01*
X144516000Y-88180000D02*
X152664000Y-88180000D01*
X144514000Y-88220000D02*
X152666000Y-88220000D01*
X144513000Y-88260000D02*
X152667000Y-88260000D01*
X144511000Y-88300000D02*
X152669000Y-88300000D01*
X144510000Y-88340000D02*
X152670000Y-88340000D01*
X144510000Y-88380000D02*
X152670000Y-88380000D01*
X144510000Y-88420000D02*
X152670000Y-88420000D01*
X152710000Y-88420000D02*
G75*
G03X152710000Y-88420000I-4120000J0D01*
G01*
X151170000Y-101385000D02*
X151170000Y-101700000D01*
X151170000Y-98960000D02*
X151170000Y-99275000D01*
X145930000Y-101385000D02*
X145930000Y-101700000D01*
X145930000Y-98960000D02*
X145930000Y-99275000D01*
X145930000Y-101700000D02*
X151170000Y-101700000D01*
X145930000Y-98960000D02*
X151170000Y-98960000D01*
X138215000Y-83780000D02*
X138530000Y-83780000D01*
X135790000Y-83780000D02*
X136105000Y-83780000D01*
X138215000Y-89020000D02*
X138530000Y-89020000D01*
X135790000Y-89020000D02*
X136105000Y-89020000D01*
X138530000Y-89020000D02*
X138530000Y-83780000D01*
X135790000Y-89020000D02*
X135790000Y-83780000D01*
D12*
X170909066Y-85261157D02*
X170916615Y-85154945D01*
X170968157Y-85030511D01*
X171045471Y-84843859D01*
X171053019Y-84737647D01*
X171016573Y-84649659D01*
X170814825Y-84784768D02*
X170822373Y-84678556D01*
X170873915Y-84554122D01*
X171031669Y-84437236D01*
X171339629Y-84309674D01*
X171533829Y-84280777D01*
X171658264Y-84332319D01*
X171738704Y-84402085D01*
X171811596Y-84578062D01*
X171804048Y-84684273D01*
X171752506Y-84808708D01*
X171594752Y-84925594D01*
X171286792Y-85053155D01*
X171092592Y-85082053D01*
X170968157Y-85030511D01*
X170887717Y-84960745D01*
X170814825Y-84784768D01*
X171960507Y-85186433D02*
X172022724Y-85212204D01*
X172103165Y-85281970D01*
X172194280Y-85501941D01*
X172186732Y-85608153D01*
X172160960Y-85670370D01*
X172091195Y-85750810D01*
X172003206Y-85787256D01*
X171853000Y-85797931D01*
X171106393Y-85488676D01*
X171343292Y-86060602D01*
X147301292Y-77670426D02*
X147220852Y-77740191D01*
X147096418Y-77791734D01*
X146909766Y-77869047D01*
X146829325Y-77938813D01*
X146792879Y-78026802D01*
X147031074Y-78073922D02*
X146950633Y-78143688D01*
X146826199Y-78195230D01*
X146631999Y-78166333D01*
X146324039Y-78038771D01*
X146166285Y-77921885D01*
X146114742Y-77797450D01*
X146107194Y-77691239D01*
X146180086Y-77515262D01*
X146260527Y-77445496D01*
X146384961Y-77393954D01*
X146579161Y-77422852D01*
X146887121Y-77550413D01*
X147044875Y-77667299D01*
X147096418Y-77791734D01*
X147103966Y-77897945D01*
X147031074Y-78073922D01*
X147559541Y-76798089D02*
X147340865Y-77326020D01*
X147450203Y-77062054D02*
X146526324Y-76679371D01*
X146621860Y-76822028D01*
X146673403Y-76946463D01*
X146680951Y-77052675D01*
X188425840Y-78974273D02*
X189140126Y-78974273D01*
X189282983Y-79021892D01*
X189378221Y-79117130D01*
X189425840Y-79259987D01*
X189425840Y-79355225D01*
X188521079Y-78545701D02*
X188473460Y-78498082D01*
X188425840Y-78402844D01*
X188425840Y-78164749D01*
X188473460Y-78069511D01*
X188521079Y-78021892D01*
X188616317Y-77974273D01*
X188711555Y-77974273D01*
X188854412Y-78021892D01*
X189425840Y-78593320D01*
X189425840Y-77974273D01*
X161774285Y-78668571D02*
X161917142Y-78716190D01*
X161964761Y-78763809D01*
X162012380Y-78859047D01*
X162012380Y-79001904D01*
X161964761Y-79097142D01*
X161917142Y-79144761D01*
X161821904Y-79192380D01*
X161440952Y-79192380D01*
X161440952Y-78192380D01*
X161774285Y-78192380D01*
X161869523Y-78240000D01*
X161917142Y-78287619D01*
X161964761Y-78382857D01*
X161964761Y-78478095D01*
X161917142Y-78573333D01*
X161869523Y-78620952D01*
X161774285Y-78668571D01*
X161440952Y-78668571D01*
X162298095Y-78192380D02*
X162869523Y-78192380D01*
X162583809Y-79192380D02*
X162583809Y-78192380D01*
X163726666Y-79192380D02*
X163155238Y-79192380D01*
X163440952Y-79192380D02*
X163440952Y-78192380D01*
X163345714Y-78335238D01*
X163250476Y-78430476D01*
X163155238Y-78478095D01*
X178427142Y-85712380D02*
X178093809Y-85236190D01*
X177855714Y-85712380D02*
X177855714Y-84712380D01*
X178236666Y-84712380D01*
X178331904Y-84760000D01*
X178379523Y-84807619D01*
X178427142Y-84902857D01*
X178427142Y-85045714D01*
X178379523Y-85140952D01*
X178331904Y-85188571D01*
X178236666Y-85236190D01*
X177855714Y-85236190D01*
X179379523Y-85712380D02*
X178808095Y-85712380D01*
X179093809Y-85712380D02*
X179093809Y-84712380D01*
X178998571Y-84855238D01*
X178903333Y-84950476D01*
X178808095Y-84998095D01*
X179998571Y-84712380D02*
X180093809Y-84712380D01*
X180189047Y-84760000D01*
X180236666Y-84807619D01*
X180284285Y-84902857D01*
X180331904Y-85093333D01*
X180331904Y-85331428D01*
X180284285Y-85521904D01*
X180236666Y-85617142D01*
X180189047Y-85664761D01*
X180093809Y-85712380D01*
X179998571Y-85712380D01*
X179903333Y-85664761D01*
X179855714Y-85617142D01*
X179808095Y-85521904D01*
X179760476Y-85331428D01*
X179760476Y-85093333D01*
X179808095Y-84902857D01*
X179855714Y-84807619D01*
X179903333Y-84760000D01*
X179998571Y-84712380D01*
X196398151Y-99152278D02*
X195825731Y-99051263D01*
X195994090Y-99556339D02*
X195286983Y-98849233D01*
X195556357Y-98579858D01*
X195657372Y-98546187D01*
X195724716Y-98546187D01*
X195825731Y-98579858D01*
X195926746Y-98680874D01*
X195960418Y-98781889D01*
X195960418Y-98849233D01*
X195926746Y-98950248D01*
X195657372Y-99219622D01*
X196734869Y-98815561D02*
X196869556Y-98680874D01*
X196903227Y-98579858D01*
X196903227Y-98512515D01*
X196869556Y-98344156D01*
X196768540Y-98175797D01*
X196499166Y-97906423D01*
X196398151Y-97872752D01*
X196330808Y-97872752D01*
X196229792Y-97906423D01*
X196095105Y-98041110D01*
X196061433Y-98142126D01*
X196061433Y-98209469D01*
X196095105Y-98310484D01*
X196263464Y-98478843D01*
X196364479Y-98512515D01*
X196431823Y-98512515D01*
X196532838Y-98478843D01*
X196667525Y-98344156D01*
X196701197Y-98243141D01*
X196701197Y-98175797D01*
X196667525Y-98074782D01*
X191603333Y-84442380D02*
X191270000Y-83966190D01*
X191031904Y-84442380D02*
X191031904Y-83442380D01*
X191412857Y-83442380D01*
X191508095Y-83490000D01*
X191555714Y-83537619D01*
X191603333Y-83632857D01*
X191603333Y-83775714D01*
X191555714Y-83870952D01*
X191508095Y-83918571D01*
X191412857Y-83966190D01*
X191031904Y-83966190D01*
X192174761Y-83870952D02*
X192079523Y-83823333D01*
X192031904Y-83775714D01*
X191984285Y-83680476D01*
X191984285Y-83632857D01*
X192031904Y-83537619D01*
X192079523Y-83490000D01*
X192174761Y-83442380D01*
X192365238Y-83442380D01*
X192460476Y-83490000D01*
X192508095Y-83537619D01*
X192555714Y-83632857D01*
X192555714Y-83680476D01*
X192508095Y-83775714D01*
X192460476Y-83823333D01*
X192365238Y-83870952D01*
X192174761Y-83870952D01*
X192079523Y-83918571D01*
X192031904Y-83966190D01*
X191984285Y-84061428D01*
X191984285Y-84251904D01*
X192031904Y-84347142D01*
X192079523Y-84394761D01*
X192174761Y-84442380D01*
X192365238Y-84442380D01*
X192460476Y-84394761D01*
X192508095Y-84347142D01*
X192555714Y-84251904D01*
X192555714Y-84061428D01*
X192508095Y-83966190D01*
X192460476Y-83918571D01*
X192365238Y-83870952D01*
X178903333Y-103152380D02*
X178570000Y-102676190D01*
X178331904Y-103152380D02*
X178331904Y-102152380D01*
X178712857Y-102152380D01*
X178808095Y-102200000D01*
X178855714Y-102247619D01*
X178903333Y-102342857D01*
X178903333Y-102485714D01*
X178855714Y-102580952D01*
X178808095Y-102628571D01*
X178712857Y-102676190D01*
X178331904Y-102676190D01*
X179236666Y-102152380D02*
X179903333Y-102152380D01*
X179474761Y-103152380D01*
X159372380Y-86526666D02*
X158896190Y-86860000D01*
X159372380Y-87098095D02*
X158372380Y-87098095D01*
X158372380Y-86717142D01*
X158420000Y-86621904D01*
X158467619Y-86574285D01*
X158562857Y-86526666D01*
X158705714Y-86526666D01*
X158800952Y-86574285D01*
X158848571Y-86621904D01*
X158896190Y-86717142D01*
X158896190Y-87098095D01*
X158372380Y-85669523D02*
X158372380Y-85860000D01*
X158420000Y-85955238D01*
X158467619Y-86002857D01*
X158610476Y-86098095D01*
X158800952Y-86145714D01*
X159181904Y-86145714D01*
X159277142Y-86098095D01*
X159324761Y-86050476D01*
X159372380Y-85955238D01*
X159372380Y-85764761D01*
X159324761Y-85669523D01*
X159277142Y-85621904D01*
X159181904Y-85574285D01*
X158943809Y-85574285D01*
X158848571Y-85621904D01*
X158800952Y-85669523D01*
X158753333Y-85764761D01*
X158753333Y-85955238D01*
X158800952Y-86050476D01*
X158848571Y-86098095D01*
X158943809Y-86145714D01*
X159853333Y-98412380D02*
X159520000Y-97936190D01*
X159281904Y-98412380D02*
X159281904Y-97412380D01*
X159662857Y-97412380D01*
X159758095Y-97460000D01*
X159805714Y-97507619D01*
X159853333Y-97602857D01*
X159853333Y-97745714D01*
X159805714Y-97840952D01*
X159758095Y-97888571D01*
X159662857Y-97936190D01*
X159281904Y-97936190D01*
X160758095Y-97412380D02*
X160281904Y-97412380D01*
X160234285Y-97888571D01*
X160281904Y-97840952D01*
X160377142Y-97793333D01*
X160615238Y-97793333D01*
X160710476Y-97840952D01*
X160758095Y-97888571D01*
X160805714Y-97983809D01*
X160805714Y-98221904D01*
X160758095Y-98317142D01*
X160710476Y-98364761D01*
X160615238Y-98412380D01*
X160377142Y-98412380D01*
X160281904Y-98364761D01*
X160234285Y-98317142D01*
X150963333Y-93332380D02*
X150630000Y-92856190D01*
X150391904Y-93332380D02*
X150391904Y-92332380D01*
X150772857Y-92332380D01*
X150868095Y-92380000D01*
X150915714Y-92427619D01*
X150963333Y-92522857D01*
X150963333Y-92665714D01*
X150915714Y-92760952D01*
X150868095Y-92808571D01*
X150772857Y-92856190D01*
X150391904Y-92856190D01*
X151820476Y-92665714D02*
X151820476Y-93332380D01*
X151582380Y-92284761D02*
X151344285Y-92999047D01*
X151963333Y-92999047D01*
X154292380Y-86526666D02*
X153816190Y-86860000D01*
X154292380Y-87098095D02*
X153292380Y-87098095D01*
X153292380Y-86717142D01*
X153340000Y-86621904D01*
X153387619Y-86574285D01*
X153482857Y-86526666D01*
X153625714Y-86526666D01*
X153720952Y-86574285D01*
X153768571Y-86621904D01*
X153816190Y-86717142D01*
X153816190Y-87098095D01*
X153292380Y-86193333D02*
X153292380Y-85574285D01*
X153673333Y-85907619D01*
X153673333Y-85764761D01*
X153720952Y-85669523D01*
X153768571Y-85621904D01*
X153863809Y-85574285D01*
X154101904Y-85574285D01*
X154197142Y-85621904D01*
X154244761Y-85669523D01*
X154292380Y-85764761D01*
X154292380Y-86050476D01*
X154244761Y-86145714D01*
X154197142Y-86193333D01*
X140322380Y-96686666D02*
X139846190Y-97020000D01*
X140322380Y-97258095D02*
X139322380Y-97258095D01*
X139322380Y-96877142D01*
X139370000Y-96781904D01*
X139417619Y-96734285D01*
X139512857Y-96686666D01*
X139655714Y-96686666D01*
X139750952Y-96734285D01*
X139798571Y-96781904D01*
X139846190Y-96877142D01*
X139846190Y-97258095D01*
X139417619Y-96305714D02*
X139370000Y-96258095D01*
X139322380Y-96162857D01*
X139322380Y-95924761D01*
X139370000Y-95829523D01*
X139417619Y-95781904D01*
X139512857Y-95734285D01*
X139608095Y-95734285D01*
X139750952Y-95781904D01*
X140322380Y-96353333D01*
X140322380Y-95734285D01*
X145062380Y-83986666D02*
X144586190Y-84320000D01*
X145062380Y-84558095D02*
X144062380Y-84558095D01*
X144062380Y-84177142D01*
X144110000Y-84081904D01*
X144157619Y-84034285D01*
X144252857Y-83986666D01*
X144395714Y-83986666D01*
X144490952Y-84034285D01*
X144538571Y-84081904D01*
X144586190Y-84177142D01*
X144586190Y-84558095D01*
X145062380Y-83034285D02*
X145062380Y-83605714D01*
X145062380Y-83320000D02*
X144062380Y-83320000D01*
X144205238Y-83415238D01*
X144300476Y-83510476D01*
X144348095Y-83605714D01*
X201077580Y-88715173D02*
X201791866Y-88715173D01*
X201934723Y-88762792D01*
X202029961Y-88858030D01*
X202077580Y-89000887D01*
X202077580Y-89096125D01*
X201077580Y-88334220D02*
X201077580Y-87715173D01*
X201458533Y-88048506D01*
X201458533Y-87905649D01*
X201506152Y-87810411D01*
X201553771Y-87762792D01*
X201649009Y-87715173D01*
X201887104Y-87715173D01*
X201982342Y-87762792D01*
X202029961Y-87810411D01*
X202077580Y-87905649D01*
X202077580Y-88191363D01*
X202029961Y-88286601D01*
X201982342Y-88334220D01*
X128992380Y-89233333D02*
X129706666Y-89233333D01*
X129849523Y-89280952D01*
X129944761Y-89376190D01*
X129992380Y-89519047D01*
X129992380Y-89614285D01*
X129992380Y-88233333D02*
X129992380Y-88804761D01*
X129992380Y-88519047D02*
X128992380Y-88519047D01*
X129135238Y-88614285D01*
X129230476Y-88709523D01*
X129278095Y-88804761D01*
X182137142Y-94106666D02*
X182184761Y-94154285D01*
X182232380Y-94297142D01*
X182232380Y-94392380D01*
X182184761Y-94535238D01*
X182089523Y-94630476D01*
X181994285Y-94678095D01*
X181803809Y-94725714D01*
X181660952Y-94725714D01*
X181470476Y-94678095D01*
X181375238Y-94630476D01*
X181280000Y-94535238D01*
X181232380Y-94392380D01*
X181232380Y-94297142D01*
X181280000Y-94154285D01*
X181327619Y-94106666D01*
X181232380Y-93249523D02*
X181232380Y-93440000D01*
X181280000Y-93535238D01*
X181327619Y-93582857D01*
X181470476Y-93678095D01*
X181660952Y-93725714D01*
X182041904Y-93725714D01*
X182137142Y-93678095D01*
X182184761Y-93630476D01*
X182232380Y-93535238D01*
X182232380Y-93344761D01*
X182184761Y-93249523D01*
X182137142Y-93201904D01*
X182041904Y-93154285D01*
X181803809Y-93154285D01*
X181708571Y-93201904D01*
X181660952Y-93249523D01*
X181613333Y-93344761D01*
X181613333Y-93535238D01*
X181660952Y-93630476D01*
X181708571Y-93678095D01*
X181803809Y-93725714D01*
X193567142Y-94106666D02*
X193614761Y-94154285D01*
X193662380Y-94297142D01*
X193662380Y-94392380D01*
X193614761Y-94535238D01*
X193519523Y-94630476D01*
X193424285Y-94678095D01*
X193233809Y-94725714D01*
X193090952Y-94725714D01*
X192900476Y-94678095D01*
X192805238Y-94630476D01*
X192710000Y-94535238D01*
X192662380Y-94392380D01*
X192662380Y-94297142D01*
X192710000Y-94154285D01*
X192757619Y-94106666D01*
X192662380Y-93201904D02*
X192662380Y-93678095D01*
X193138571Y-93725714D01*
X193090952Y-93678095D01*
X193043333Y-93582857D01*
X193043333Y-93344761D01*
X193090952Y-93249523D01*
X193138571Y-93201904D01*
X193233809Y-93154285D01*
X193471904Y-93154285D01*
X193567142Y-93201904D01*
X193614761Y-93249523D01*
X193662380Y-93344761D01*
X193662380Y-93582857D01*
X193614761Y-93678095D01*
X193567142Y-93725714D01*
X165497142Y-94186666D02*
X165544761Y-94234285D01*
X165592380Y-94377142D01*
X165592380Y-94472380D01*
X165544761Y-94615238D01*
X165449523Y-94710476D01*
X165354285Y-94758095D01*
X165163809Y-94805714D01*
X165020952Y-94805714D01*
X164830476Y-94758095D01*
X164735238Y-94710476D01*
X164640000Y-94615238D01*
X164592380Y-94472380D01*
X164592380Y-94377142D01*
X164640000Y-94234285D01*
X164687619Y-94186666D01*
X164925714Y-93329523D02*
X165592380Y-93329523D01*
X164544761Y-93567619D02*
X165259047Y-93805714D01*
X165259047Y-93186666D01*
X143697142Y-88586666D02*
X143744761Y-88634285D01*
X143792380Y-88777142D01*
X143792380Y-88872380D01*
X143744761Y-89015238D01*
X143649523Y-89110476D01*
X143554285Y-89158095D01*
X143363809Y-89205714D01*
X143220952Y-89205714D01*
X143030476Y-89158095D01*
X142935238Y-89110476D01*
X142840000Y-89015238D01*
X142792380Y-88872380D01*
X142792380Y-88777142D01*
X142840000Y-88634285D01*
X142887619Y-88586666D01*
X142792380Y-88253333D02*
X142792380Y-87634285D01*
X143173333Y-87967619D01*
X143173333Y-87824761D01*
X143220952Y-87729523D01*
X143268571Y-87681904D01*
X143363809Y-87634285D01*
X143601904Y-87634285D01*
X143697142Y-87681904D01*
X143744761Y-87729523D01*
X143792380Y-87824761D01*
X143792380Y-88110476D01*
X143744761Y-88205714D01*
X143697142Y-88253333D01*
X148383333Y-98187142D02*
X148335714Y-98234761D01*
X148192857Y-98282380D01*
X148097619Y-98282380D01*
X147954761Y-98234761D01*
X147859523Y-98139523D01*
X147811904Y-98044285D01*
X147764285Y-97853809D01*
X147764285Y-97710952D01*
X147811904Y-97520476D01*
X147859523Y-97425238D01*
X147954761Y-97330000D01*
X148097619Y-97282380D01*
X148192857Y-97282380D01*
X148335714Y-97330000D01*
X148383333Y-97377619D01*
X148764285Y-97377619D02*
X148811904Y-97330000D01*
X148907142Y-97282380D01*
X149145238Y-97282380D01*
X149240476Y-97330000D01*
X149288095Y-97377619D01*
X149335714Y-97472857D01*
X149335714Y-97568095D01*
X149288095Y-97710952D01*
X148716666Y-98282380D01*
X149335714Y-98282380D01*
X135017142Y-86566666D02*
X135064761Y-86614285D01*
X135112380Y-86757142D01*
X135112380Y-86852380D01*
X135064761Y-86995238D01*
X134969523Y-87090476D01*
X134874285Y-87138095D01*
X134683809Y-87185714D01*
X134540952Y-87185714D01*
X134350476Y-87138095D01*
X134255238Y-87090476D01*
X134160000Y-86995238D01*
X134112380Y-86852380D01*
X134112380Y-86757142D01*
X134160000Y-86614285D01*
X134207619Y-86566666D01*
X135112380Y-85614285D02*
X135112380Y-86185714D01*
X135112380Y-85900000D02*
X134112380Y-85900000D01*
X134255238Y-85995238D01*
X134350476Y-86090476D01*
X134398095Y-86185714D01*
%LPC*%
D13*
X167190420Y-84155280D03*
D10*
G36*
X166784523Y-85135202D02*
G01*
X166210498Y-83749383D01*
X167596317Y-83175358D01*
X168170342Y-84561177D01*
X166784523Y-85135202D01*
X166784523Y-85135202D01*
G37*
D13*
X169134452Y-88848588D03*
X168162436Y-86501934D03*
X149148800Y-81081880D03*
D10*
G36*
X150128722Y-80675983D02*
G01*
X149554697Y-82061802D01*
X148168878Y-81487777D01*
X148742903Y-80101958D01*
X150128722Y-80675983D01*
X150128722Y-80675983D01*
G37*
D13*
X151092832Y-76388572D03*
X150120816Y-78735226D03*
D14*
X201830940Y-77256640D03*
D10*
G36*
X191925216Y-80432746D02*
G01*
X191961619Y-80438146D01*
X191997317Y-80447087D01*
X192031966Y-80459485D01*
X192065234Y-80475220D01*
X192096799Y-80494139D01*
X192126357Y-80516061D01*
X192153625Y-80540775D01*
X192178339Y-80568043D01*
X192200261Y-80597601D01*
X192219180Y-80629166D01*
X192234915Y-80662434D01*
X192247313Y-80697083D01*
X192256254Y-80732781D01*
X192261654Y-80769184D01*
X192263460Y-80805940D01*
X192263460Y-81555940D01*
X192261654Y-81592696D01*
X192256254Y-81629099D01*
X192247313Y-81664797D01*
X192234915Y-81699446D01*
X192219180Y-81732714D01*
X192200261Y-81764279D01*
X192178339Y-81793837D01*
X192153625Y-81821105D01*
X192126357Y-81845819D01*
X192096799Y-81867741D01*
X192065234Y-81886660D01*
X192031966Y-81902395D01*
X191997317Y-81914793D01*
X191961619Y-81923734D01*
X191925216Y-81929134D01*
X191888460Y-81930940D01*
X191138460Y-81930940D01*
X191101704Y-81929134D01*
X191065301Y-81923734D01*
X191029603Y-81914793D01*
X190994954Y-81902395D01*
X190961686Y-81886660D01*
X190930121Y-81867741D01*
X190900563Y-81845819D01*
X190873295Y-81821105D01*
X190848581Y-81793837D01*
X190826659Y-81764279D01*
X190807740Y-81732714D01*
X190792005Y-81699446D01*
X190779607Y-81664797D01*
X190770666Y-81629099D01*
X190765266Y-81592696D01*
X190763460Y-81555940D01*
X190763460Y-80805940D01*
X190765266Y-80769184D01*
X190770666Y-80732781D01*
X190779607Y-80697083D01*
X190792005Y-80662434D01*
X190807740Y-80629166D01*
X190826659Y-80597601D01*
X190848581Y-80568043D01*
X190873295Y-80540775D01*
X190900563Y-80516061D01*
X190930121Y-80494139D01*
X190961686Y-80475220D01*
X190994954Y-80459485D01*
X191029603Y-80447087D01*
X191065301Y-80438146D01*
X191101704Y-80432746D01*
X191138460Y-80430940D01*
X191888460Y-80430940D01*
X191925216Y-80432746D01*
X191925216Y-80432746D01*
G37*
D13*
X191513460Y-81180940D03*
D10*
G36*
X191925216Y-75352746D02*
G01*
X191961619Y-75358146D01*
X191997317Y-75367087D01*
X192031966Y-75379485D01*
X192065234Y-75395220D01*
X192096799Y-75414139D01*
X192126357Y-75436061D01*
X192153625Y-75460775D01*
X192178339Y-75488043D01*
X192200261Y-75517601D01*
X192219180Y-75549166D01*
X192234915Y-75582434D01*
X192247313Y-75617083D01*
X192256254Y-75652781D01*
X192261654Y-75689184D01*
X192263460Y-75725940D01*
X192263460Y-76475940D01*
X192261654Y-76512696D01*
X192256254Y-76549099D01*
X192247313Y-76584797D01*
X192234915Y-76619446D01*
X192219180Y-76652714D01*
X192200261Y-76684279D01*
X192178339Y-76713837D01*
X192153625Y-76741105D01*
X192126357Y-76765819D01*
X192096799Y-76787741D01*
X192065234Y-76806660D01*
X192031966Y-76822395D01*
X191997317Y-76834793D01*
X191961619Y-76843734D01*
X191925216Y-76849134D01*
X191888460Y-76850940D01*
X191138460Y-76850940D01*
X191101704Y-76849134D01*
X191065301Y-76843734D01*
X191029603Y-76834793D01*
X190994954Y-76822395D01*
X190961686Y-76806660D01*
X190930121Y-76787741D01*
X190900563Y-76765819D01*
X190873295Y-76741105D01*
X190848581Y-76713837D01*
X190826659Y-76684279D01*
X190807740Y-76652714D01*
X190792005Y-76619446D01*
X190779607Y-76584797D01*
X190770666Y-76549099D01*
X190765266Y-76512696D01*
X190763460Y-76475940D01*
X190763460Y-75725940D01*
X190765266Y-75689184D01*
X190770666Y-75652781D01*
X190779607Y-75617083D01*
X190792005Y-75582434D01*
X190807740Y-75549166D01*
X190826659Y-75517601D01*
X190848581Y-75488043D01*
X190873295Y-75460775D01*
X190900563Y-75436061D01*
X190930121Y-75414139D01*
X190961686Y-75395220D01*
X190994954Y-75379485D01*
X191029603Y-75367087D01*
X191065301Y-75358146D01*
X191101704Y-75352746D01*
X191138460Y-75350940D01*
X191888460Y-75350940D01*
X191925216Y-75352746D01*
X191925216Y-75352746D01*
G37*
D13*
X191513460Y-76100940D03*
D14*
X133360160Y-77439520D03*
X133085840Y-99410520D03*
X202011280Y-99593400D03*
D10*
G36*
X165511756Y-75451806D02*
G01*
X165548159Y-75457206D01*
X165583857Y-75466147D01*
X165618506Y-75478545D01*
X165651774Y-75494280D01*
X165683339Y-75513199D01*
X165712897Y-75535121D01*
X165740165Y-75559835D01*
X165764879Y-75587103D01*
X165786801Y-75616661D01*
X165805720Y-75648226D01*
X165821455Y-75681494D01*
X165833853Y-75716143D01*
X165842794Y-75751841D01*
X165848194Y-75788244D01*
X165850000Y-75825000D01*
X165850000Y-76575000D01*
X165848194Y-76611756D01*
X165842794Y-76648159D01*
X165833853Y-76683857D01*
X165821455Y-76718506D01*
X165805720Y-76751774D01*
X165786801Y-76783339D01*
X165764879Y-76812897D01*
X165740165Y-76840165D01*
X165712897Y-76864879D01*
X165683339Y-76886801D01*
X165651774Y-76905720D01*
X165618506Y-76921455D01*
X165583857Y-76933853D01*
X165548159Y-76942794D01*
X165511756Y-76948194D01*
X165475000Y-76950000D01*
X164725000Y-76950000D01*
X164688244Y-76948194D01*
X164651841Y-76942794D01*
X164616143Y-76933853D01*
X164581494Y-76921455D01*
X164548226Y-76905720D01*
X164516661Y-76886801D01*
X164487103Y-76864879D01*
X164459835Y-76840165D01*
X164435121Y-76812897D01*
X164413199Y-76783339D01*
X164394280Y-76751774D01*
X164378545Y-76718506D01*
X164366147Y-76683857D01*
X164357206Y-76648159D01*
X164351806Y-76611756D01*
X164350000Y-76575000D01*
X164350000Y-75825000D01*
X164351806Y-75788244D01*
X164357206Y-75751841D01*
X164366147Y-75716143D01*
X164378545Y-75681494D01*
X164394280Y-75648226D01*
X164413199Y-75616661D01*
X164435121Y-75587103D01*
X164459835Y-75559835D01*
X164487103Y-75535121D01*
X164516661Y-75513199D01*
X164548226Y-75494280D01*
X164581494Y-75478545D01*
X164616143Y-75466147D01*
X164651841Y-75457206D01*
X164688244Y-75451806D01*
X164725000Y-75450000D01*
X165475000Y-75450000D01*
X165511756Y-75451806D01*
X165511756Y-75451806D01*
G37*
D13*
X165100000Y-76200000D03*
D10*
G36*
X160431756Y-75451806D02*
G01*
X160468159Y-75457206D01*
X160503857Y-75466147D01*
X160538506Y-75478545D01*
X160571774Y-75494280D01*
X160603339Y-75513199D01*
X160632897Y-75535121D01*
X160660165Y-75559835D01*
X160684879Y-75587103D01*
X160706801Y-75616661D01*
X160725720Y-75648226D01*
X160741455Y-75681494D01*
X160753853Y-75716143D01*
X160762794Y-75751841D01*
X160768194Y-75788244D01*
X160770000Y-75825000D01*
X160770000Y-76575000D01*
X160768194Y-76611756D01*
X160762794Y-76648159D01*
X160753853Y-76683857D01*
X160741455Y-76718506D01*
X160725720Y-76751774D01*
X160706801Y-76783339D01*
X160684879Y-76812897D01*
X160660165Y-76840165D01*
X160632897Y-76864879D01*
X160603339Y-76886801D01*
X160571774Y-76905720D01*
X160538506Y-76921455D01*
X160503857Y-76933853D01*
X160468159Y-76942794D01*
X160431756Y-76948194D01*
X160395000Y-76950000D01*
X159645000Y-76950000D01*
X159608244Y-76948194D01*
X159571841Y-76942794D01*
X159536143Y-76933853D01*
X159501494Y-76921455D01*
X159468226Y-76905720D01*
X159436661Y-76886801D01*
X159407103Y-76864879D01*
X159379835Y-76840165D01*
X159355121Y-76812897D01*
X159333199Y-76783339D01*
X159314280Y-76751774D01*
X159298545Y-76718506D01*
X159286147Y-76683857D01*
X159277206Y-76648159D01*
X159271806Y-76611756D01*
X159270000Y-76575000D01*
X159270000Y-75825000D01*
X159271806Y-75788244D01*
X159277206Y-75751841D01*
X159286147Y-75716143D01*
X159298545Y-75681494D01*
X159314280Y-75648226D01*
X159333199Y-75616661D01*
X159355121Y-75587103D01*
X159379835Y-75559835D01*
X159407103Y-75535121D01*
X159436661Y-75513199D01*
X159468226Y-75494280D01*
X159501494Y-75478545D01*
X159536143Y-75466147D01*
X159571841Y-75457206D01*
X159608244Y-75451806D01*
X159645000Y-75450000D01*
X160395000Y-75450000D01*
X160431756Y-75451806D01*
X160431756Y-75451806D01*
G37*
D13*
X160020000Y-76200000D03*
D15*
X178960046Y-78297120D03*
X184040046Y-78297120D03*
X181500046Y-78297120D03*
D16*
X184150000Y-87630000D03*
D17*
X173990000Y-87630000D03*
X190928175Y-100630805D03*
D18*
X190928175Y-100630805D02*
X190928175Y-100630805D01*
D17*
X198112380Y-93446600D03*
D16*
X196850000Y-86360000D03*
D17*
X186690000Y-86360000D03*
D16*
X173990000Y-100330000D03*
D17*
X184150000Y-100330000D03*
D16*
X161290000Y-81280000D03*
D17*
X161290000Y-91440000D03*
D16*
X165100000Y-100330000D03*
D17*
X154940000Y-100330000D03*
D16*
X156210000Y-95250000D03*
D17*
X146050000Y-95250000D03*
D16*
X156210000Y-81280000D03*
D17*
X156210000Y-91440000D03*
D16*
X142240000Y-91440000D03*
D17*
X142240000Y-101600000D03*
D16*
X142240000Y-88900000D03*
D17*
X142240000Y-78740000D03*
D10*
G36*
X204576956Y-90173646D02*
G01*
X204613359Y-90179046D01*
X204649057Y-90187987D01*
X204683706Y-90200385D01*
X204716974Y-90216120D01*
X204748539Y-90235039D01*
X204778097Y-90256961D01*
X204805365Y-90281675D01*
X204830079Y-90308943D01*
X204852001Y-90338501D01*
X204870920Y-90370066D01*
X204886655Y-90403334D01*
X204899053Y-90437983D01*
X204907994Y-90473681D01*
X204913394Y-90510084D01*
X204915200Y-90546840D01*
X204915200Y-91296840D01*
X204913394Y-91333596D01*
X204907994Y-91369999D01*
X204899053Y-91405697D01*
X204886655Y-91440346D01*
X204870920Y-91473614D01*
X204852001Y-91505179D01*
X204830079Y-91534737D01*
X204805365Y-91562005D01*
X204778097Y-91586719D01*
X204748539Y-91608641D01*
X204716974Y-91627560D01*
X204683706Y-91643295D01*
X204649057Y-91655693D01*
X204613359Y-91664634D01*
X204576956Y-91670034D01*
X204540200Y-91671840D01*
X203790200Y-91671840D01*
X203753444Y-91670034D01*
X203717041Y-91664634D01*
X203681343Y-91655693D01*
X203646694Y-91643295D01*
X203613426Y-91627560D01*
X203581861Y-91608641D01*
X203552303Y-91586719D01*
X203525035Y-91562005D01*
X203500321Y-91534737D01*
X203478399Y-91505179D01*
X203459480Y-91473614D01*
X203443745Y-91440346D01*
X203431347Y-91405697D01*
X203422406Y-91369999D01*
X203417006Y-91333596D01*
X203415200Y-91296840D01*
X203415200Y-90546840D01*
X203417006Y-90510084D01*
X203422406Y-90473681D01*
X203431347Y-90437983D01*
X203443745Y-90403334D01*
X203459480Y-90370066D01*
X203478399Y-90338501D01*
X203500321Y-90308943D01*
X203525035Y-90281675D01*
X203552303Y-90256961D01*
X203581861Y-90235039D01*
X203613426Y-90216120D01*
X203646694Y-90200385D01*
X203681343Y-90187987D01*
X203717041Y-90179046D01*
X203753444Y-90173646D01*
X203790200Y-90171840D01*
X204540200Y-90171840D01*
X204576956Y-90173646D01*
X204576956Y-90173646D01*
G37*
D13*
X204165200Y-90921840D03*
D10*
G36*
X204576956Y-85093646D02*
G01*
X204613359Y-85099046D01*
X204649057Y-85107987D01*
X204683706Y-85120385D01*
X204716974Y-85136120D01*
X204748539Y-85155039D01*
X204778097Y-85176961D01*
X204805365Y-85201675D01*
X204830079Y-85228943D01*
X204852001Y-85258501D01*
X204870920Y-85290066D01*
X204886655Y-85323334D01*
X204899053Y-85357983D01*
X204907994Y-85393681D01*
X204913394Y-85430084D01*
X204915200Y-85466840D01*
X204915200Y-86216840D01*
X204913394Y-86253596D01*
X204907994Y-86289999D01*
X204899053Y-86325697D01*
X204886655Y-86360346D01*
X204870920Y-86393614D01*
X204852001Y-86425179D01*
X204830079Y-86454737D01*
X204805365Y-86482005D01*
X204778097Y-86506719D01*
X204748539Y-86528641D01*
X204716974Y-86547560D01*
X204683706Y-86563295D01*
X204649057Y-86575693D01*
X204613359Y-86584634D01*
X204576956Y-86590034D01*
X204540200Y-86591840D01*
X203790200Y-86591840D01*
X203753444Y-86590034D01*
X203717041Y-86584634D01*
X203681343Y-86575693D01*
X203646694Y-86563295D01*
X203613426Y-86547560D01*
X203581861Y-86528641D01*
X203552303Y-86506719D01*
X203525035Y-86482005D01*
X203500321Y-86454737D01*
X203478399Y-86425179D01*
X203459480Y-86393614D01*
X203443745Y-86360346D01*
X203431347Y-86325697D01*
X203422406Y-86289999D01*
X203417006Y-86253596D01*
X203415200Y-86216840D01*
X203415200Y-85466840D01*
X203417006Y-85430084D01*
X203422406Y-85393681D01*
X203431347Y-85357983D01*
X203443745Y-85323334D01*
X203459480Y-85290066D01*
X203478399Y-85258501D01*
X203500321Y-85228943D01*
X203525035Y-85201675D01*
X203552303Y-85176961D01*
X203581861Y-85155039D01*
X203613426Y-85136120D01*
X203646694Y-85120385D01*
X203681343Y-85107987D01*
X203717041Y-85099046D01*
X203753444Y-85093646D01*
X203790200Y-85091840D01*
X204540200Y-85091840D01*
X204576956Y-85093646D01*
X204576956Y-85093646D01*
G37*
D13*
X204165200Y-85841840D03*
D10*
G36*
X132491756Y-90691806D02*
G01*
X132528159Y-90697206D01*
X132563857Y-90706147D01*
X132598506Y-90718545D01*
X132631774Y-90734280D01*
X132663339Y-90753199D01*
X132692897Y-90775121D01*
X132720165Y-90799835D01*
X132744879Y-90827103D01*
X132766801Y-90856661D01*
X132785720Y-90888226D01*
X132801455Y-90921494D01*
X132813853Y-90956143D01*
X132822794Y-90991841D01*
X132828194Y-91028244D01*
X132830000Y-91065000D01*
X132830000Y-91815000D01*
X132828194Y-91851756D01*
X132822794Y-91888159D01*
X132813853Y-91923857D01*
X132801455Y-91958506D01*
X132785720Y-91991774D01*
X132766801Y-92023339D01*
X132744879Y-92052897D01*
X132720165Y-92080165D01*
X132692897Y-92104879D01*
X132663339Y-92126801D01*
X132631774Y-92145720D01*
X132598506Y-92161455D01*
X132563857Y-92173853D01*
X132528159Y-92182794D01*
X132491756Y-92188194D01*
X132455000Y-92190000D01*
X131705000Y-92190000D01*
X131668244Y-92188194D01*
X131631841Y-92182794D01*
X131596143Y-92173853D01*
X131561494Y-92161455D01*
X131528226Y-92145720D01*
X131496661Y-92126801D01*
X131467103Y-92104879D01*
X131439835Y-92080165D01*
X131415121Y-92052897D01*
X131393199Y-92023339D01*
X131374280Y-91991774D01*
X131358545Y-91958506D01*
X131346147Y-91923857D01*
X131337206Y-91888159D01*
X131331806Y-91851756D01*
X131330000Y-91815000D01*
X131330000Y-91065000D01*
X131331806Y-91028244D01*
X131337206Y-90991841D01*
X131346147Y-90956143D01*
X131358545Y-90921494D01*
X131374280Y-90888226D01*
X131393199Y-90856661D01*
X131415121Y-90827103D01*
X131439835Y-90799835D01*
X131467103Y-90775121D01*
X131496661Y-90753199D01*
X131528226Y-90734280D01*
X131561494Y-90718545D01*
X131596143Y-90706147D01*
X131631841Y-90697206D01*
X131668244Y-90691806D01*
X131705000Y-90690000D01*
X132455000Y-90690000D01*
X132491756Y-90691806D01*
X132491756Y-90691806D01*
G37*
D13*
X132080000Y-91440000D03*
D10*
G36*
X132491756Y-85611806D02*
G01*
X132528159Y-85617206D01*
X132563857Y-85626147D01*
X132598506Y-85638545D01*
X132631774Y-85654280D01*
X132663339Y-85673199D01*
X132692897Y-85695121D01*
X132720165Y-85719835D01*
X132744879Y-85747103D01*
X132766801Y-85776661D01*
X132785720Y-85808226D01*
X132801455Y-85841494D01*
X132813853Y-85876143D01*
X132822794Y-85911841D01*
X132828194Y-85948244D01*
X132830000Y-85985000D01*
X132830000Y-86735000D01*
X132828194Y-86771756D01*
X132822794Y-86808159D01*
X132813853Y-86843857D01*
X132801455Y-86878506D01*
X132785720Y-86911774D01*
X132766801Y-86943339D01*
X132744879Y-86972897D01*
X132720165Y-87000165D01*
X132692897Y-87024879D01*
X132663339Y-87046801D01*
X132631774Y-87065720D01*
X132598506Y-87081455D01*
X132563857Y-87093853D01*
X132528159Y-87102794D01*
X132491756Y-87108194D01*
X132455000Y-87110000D01*
X131705000Y-87110000D01*
X131668244Y-87108194D01*
X131631841Y-87102794D01*
X131596143Y-87093853D01*
X131561494Y-87081455D01*
X131528226Y-87065720D01*
X131496661Y-87046801D01*
X131467103Y-87024879D01*
X131439835Y-87000165D01*
X131415121Y-86972897D01*
X131393199Y-86943339D01*
X131374280Y-86911774D01*
X131358545Y-86878506D01*
X131346147Y-86843857D01*
X131337206Y-86808159D01*
X131331806Y-86771756D01*
X131330000Y-86735000D01*
X131330000Y-85985000D01*
X131331806Y-85948244D01*
X131337206Y-85911841D01*
X131346147Y-85876143D01*
X131358545Y-85841494D01*
X131374280Y-85808226D01*
X131393199Y-85776661D01*
X131415121Y-85747103D01*
X131439835Y-85719835D01*
X131467103Y-85695121D01*
X131496661Y-85673199D01*
X131528226Y-85654280D01*
X131561494Y-85638545D01*
X131596143Y-85626147D01*
X131631841Y-85617206D01*
X131668244Y-85611806D01*
X131705000Y-85610000D01*
X132455000Y-85610000D01*
X132491756Y-85611806D01*
X132491756Y-85611806D01*
G37*
D13*
X132080000Y-86360000D03*
D17*
X176530000Y-96440000D03*
D19*
X176530000Y-91440000D03*
D17*
X187960000Y-96440000D03*
D19*
X187960000Y-91440000D03*
D17*
X167640000Y-91520000D03*
X167640000Y-96520000D03*
X148590000Y-86670000D03*
D19*
X148590000Y-90170000D03*
D17*
X151050000Y-100330000D03*
X146050000Y-100330000D03*
X137160000Y-83900000D03*
X137160000Y-88900000D03*
M02*
