G04 #@! TF.GenerationSoftware,KiCad,Pcbnew,(5.1.4)-1*
G04 #@! TF.CreationDate,2021-03-27T03:22:11-04:00*
G04 #@! TF.ProjectId,klark amp boards,6b6c6172-6b20-4616-9d70-20626f617264,1*
G04 #@! TF.SameCoordinates,Original*
G04 #@! TF.FileFunction,Copper,L4,Bot*
G04 #@! TF.FilePolarity,Positive*
%FSLAX46Y46*%
G04 Gerber Fmt 4.6, Leading zero omitted, Abs format (unit mm)*
G04 Created by KiCad (PCBNEW (5.1.4)-1) date 2021-03-27 03:22:11*
%MOMM*%
%LPD*%
G04 APERTURE LIST*
%ADD10C,1.500000*%
%ADD11C,0.152400*%
%ADD12C,1.524000*%
%ADD13O,1.600000X1.600000*%
%ADD14C,1.600000*%
%ADD15C,1.600000*%
%ADD16R,1.600000X1.600000*%
%ADD17C,0.600000*%
%ADD18C,0.400000*%
%ADD19C,0.254000*%
G04 APERTURE END LIST*
D10*
X167190420Y-84155280D03*
D11*
G36*
X166784523Y-85135202D02*
G01*
X166210498Y-83749383D01*
X167596317Y-83175358D01*
X168170342Y-84561177D01*
X166784523Y-85135202D01*
X166784523Y-85135202D01*
G37*
D10*
X169134452Y-88848588D03*
X168162436Y-86501934D03*
X149148800Y-81081880D03*
D11*
G36*
X150128722Y-80675983D02*
G01*
X149554697Y-82061802D01*
X148168878Y-81487777D01*
X148742903Y-80101958D01*
X150128722Y-80675983D01*
X150128722Y-80675983D01*
G37*
D10*
X151092832Y-76388572D03*
X150120816Y-78735226D03*
D11*
G36*
X191925216Y-80432746D02*
G01*
X191961619Y-80438146D01*
X191997317Y-80447087D01*
X192031966Y-80459485D01*
X192065234Y-80475220D01*
X192096799Y-80494139D01*
X192126357Y-80516061D01*
X192153625Y-80540775D01*
X192178339Y-80568043D01*
X192200261Y-80597601D01*
X192219180Y-80629166D01*
X192234915Y-80662434D01*
X192247313Y-80697083D01*
X192256254Y-80732781D01*
X192261654Y-80769184D01*
X192263460Y-80805940D01*
X192263460Y-81555940D01*
X192261654Y-81592696D01*
X192256254Y-81629099D01*
X192247313Y-81664797D01*
X192234915Y-81699446D01*
X192219180Y-81732714D01*
X192200261Y-81764279D01*
X192178339Y-81793837D01*
X192153625Y-81821105D01*
X192126357Y-81845819D01*
X192096799Y-81867741D01*
X192065234Y-81886660D01*
X192031966Y-81902395D01*
X191997317Y-81914793D01*
X191961619Y-81923734D01*
X191925216Y-81929134D01*
X191888460Y-81930940D01*
X191138460Y-81930940D01*
X191101704Y-81929134D01*
X191065301Y-81923734D01*
X191029603Y-81914793D01*
X190994954Y-81902395D01*
X190961686Y-81886660D01*
X190930121Y-81867741D01*
X190900563Y-81845819D01*
X190873295Y-81821105D01*
X190848581Y-81793837D01*
X190826659Y-81764279D01*
X190807740Y-81732714D01*
X190792005Y-81699446D01*
X190779607Y-81664797D01*
X190770666Y-81629099D01*
X190765266Y-81592696D01*
X190763460Y-81555940D01*
X190763460Y-80805940D01*
X190765266Y-80769184D01*
X190770666Y-80732781D01*
X190779607Y-80697083D01*
X190792005Y-80662434D01*
X190807740Y-80629166D01*
X190826659Y-80597601D01*
X190848581Y-80568043D01*
X190873295Y-80540775D01*
X190900563Y-80516061D01*
X190930121Y-80494139D01*
X190961686Y-80475220D01*
X190994954Y-80459485D01*
X191029603Y-80447087D01*
X191065301Y-80438146D01*
X191101704Y-80432746D01*
X191138460Y-80430940D01*
X191888460Y-80430940D01*
X191925216Y-80432746D01*
X191925216Y-80432746D01*
G37*
D10*
X191513460Y-81180940D03*
D11*
G36*
X191925216Y-75352746D02*
G01*
X191961619Y-75358146D01*
X191997317Y-75367087D01*
X192031966Y-75379485D01*
X192065234Y-75395220D01*
X192096799Y-75414139D01*
X192126357Y-75436061D01*
X192153625Y-75460775D01*
X192178339Y-75488043D01*
X192200261Y-75517601D01*
X192219180Y-75549166D01*
X192234915Y-75582434D01*
X192247313Y-75617083D01*
X192256254Y-75652781D01*
X192261654Y-75689184D01*
X192263460Y-75725940D01*
X192263460Y-76475940D01*
X192261654Y-76512696D01*
X192256254Y-76549099D01*
X192247313Y-76584797D01*
X192234915Y-76619446D01*
X192219180Y-76652714D01*
X192200261Y-76684279D01*
X192178339Y-76713837D01*
X192153625Y-76741105D01*
X192126357Y-76765819D01*
X192096799Y-76787741D01*
X192065234Y-76806660D01*
X192031966Y-76822395D01*
X191997317Y-76834793D01*
X191961619Y-76843734D01*
X191925216Y-76849134D01*
X191888460Y-76850940D01*
X191138460Y-76850940D01*
X191101704Y-76849134D01*
X191065301Y-76843734D01*
X191029603Y-76834793D01*
X190994954Y-76822395D01*
X190961686Y-76806660D01*
X190930121Y-76787741D01*
X190900563Y-76765819D01*
X190873295Y-76741105D01*
X190848581Y-76713837D01*
X190826659Y-76684279D01*
X190807740Y-76652714D01*
X190792005Y-76619446D01*
X190779607Y-76584797D01*
X190770666Y-76549099D01*
X190765266Y-76512696D01*
X190763460Y-76475940D01*
X190763460Y-75725940D01*
X190765266Y-75689184D01*
X190770666Y-75652781D01*
X190779607Y-75617083D01*
X190792005Y-75582434D01*
X190807740Y-75549166D01*
X190826659Y-75517601D01*
X190848581Y-75488043D01*
X190873295Y-75460775D01*
X190900563Y-75436061D01*
X190930121Y-75414139D01*
X190961686Y-75395220D01*
X190994954Y-75379485D01*
X191029603Y-75367087D01*
X191065301Y-75358146D01*
X191101704Y-75352746D01*
X191138460Y-75350940D01*
X191888460Y-75350940D01*
X191925216Y-75352746D01*
X191925216Y-75352746D01*
G37*
D10*
X191513460Y-76100940D03*
D11*
G36*
X165511756Y-75451806D02*
G01*
X165548159Y-75457206D01*
X165583857Y-75466147D01*
X165618506Y-75478545D01*
X165651774Y-75494280D01*
X165683339Y-75513199D01*
X165712897Y-75535121D01*
X165740165Y-75559835D01*
X165764879Y-75587103D01*
X165786801Y-75616661D01*
X165805720Y-75648226D01*
X165821455Y-75681494D01*
X165833853Y-75716143D01*
X165842794Y-75751841D01*
X165848194Y-75788244D01*
X165850000Y-75825000D01*
X165850000Y-76575000D01*
X165848194Y-76611756D01*
X165842794Y-76648159D01*
X165833853Y-76683857D01*
X165821455Y-76718506D01*
X165805720Y-76751774D01*
X165786801Y-76783339D01*
X165764879Y-76812897D01*
X165740165Y-76840165D01*
X165712897Y-76864879D01*
X165683339Y-76886801D01*
X165651774Y-76905720D01*
X165618506Y-76921455D01*
X165583857Y-76933853D01*
X165548159Y-76942794D01*
X165511756Y-76948194D01*
X165475000Y-76950000D01*
X164725000Y-76950000D01*
X164688244Y-76948194D01*
X164651841Y-76942794D01*
X164616143Y-76933853D01*
X164581494Y-76921455D01*
X164548226Y-76905720D01*
X164516661Y-76886801D01*
X164487103Y-76864879D01*
X164459835Y-76840165D01*
X164435121Y-76812897D01*
X164413199Y-76783339D01*
X164394280Y-76751774D01*
X164378545Y-76718506D01*
X164366147Y-76683857D01*
X164357206Y-76648159D01*
X164351806Y-76611756D01*
X164350000Y-76575000D01*
X164350000Y-75825000D01*
X164351806Y-75788244D01*
X164357206Y-75751841D01*
X164366147Y-75716143D01*
X164378545Y-75681494D01*
X164394280Y-75648226D01*
X164413199Y-75616661D01*
X164435121Y-75587103D01*
X164459835Y-75559835D01*
X164487103Y-75535121D01*
X164516661Y-75513199D01*
X164548226Y-75494280D01*
X164581494Y-75478545D01*
X164616143Y-75466147D01*
X164651841Y-75457206D01*
X164688244Y-75451806D01*
X164725000Y-75450000D01*
X165475000Y-75450000D01*
X165511756Y-75451806D01*
X165511756Y-75451806D01*
G37*
D10*
X165100000Y-76200000D03*
D11*
G36*
X160431756Y-75451806D02*
G01*
X160468159Y-75457206D01*
X160503857Y-75466147D01*
X160538506Y-75478545D01*
X160571774Y-75494280D01*
X160603339Y-75513199D01*
X160632897Y-75535121D01*
X160660165Y-75559835D01*
X160684879Y-75587103D01*
X160706801Y-75616661D01*
X160725720Y-75648226D01*
X160741455Y-75681494D01*
X160753853Y-75716143D01*
X160762794Y-75751841D01*
X160768194Y-75788244D01*
X160770000Y-75825000D01*
X160770000Y-76575000D01*
X160768194Y-76611756D01*
X160762794Y-76648159D01*
X160753853Y-76683857D01*
X160741455Y-76718506D01*
X160725720Y-76751774D01*
X160706801Y-76783339D01*
X160684879Y-76812897D01*
X160660165Y-76840165D01*
X160632897Y-76864879D01*
X160603339Y-76886801D01*
X160571774Y-76905720D01*
X160538506Y-76921455D01*
X160503857Y-76933853D01*
X160468159Y-76942794D01*
X160431756Y-76948194D01*
X160395000Y-76950000D01*
X159645000Y-76950000D01*
X159608244Y-76948194D01*
X159571841Y-76942794D01*
X159536143Y-76933853D01*
X159501494Y-76921455D01*
X159468226Y-76905720D01*
X159436661Y-76886801D01*
X159407103Y-76864879D01*
X159379835Y-76840165D01*
X159355121Y-76812897D01*
X159333199Y-76783339D01*
X159314280Y-76751774D01*
X159298545Y-76718506D01*
X159286147Y-76683857D01*
X159277206Y-76648159D01*
X159271806Y-76611756D01*
X159270000Y-76575000D01*
X159270000Y-75825000D01*
X159271806Y-75788244D01*
X159277206Y-75751841D01*
X159286147Y-75716143D01*
X159298545Y-75681494D01*
X159314280Y-75648226D01*
X159333199Y-75616661D01*
X159355121Y-75587103D01*
X159379835Y-75559835D01*
X159407103Y-75535121D01*
X159436661Y-75513199D01*
X159468226Y-75494280D01*
X159501494Y-75478545D01*
X159536143Y-75466147D01*
X159571841Y-75457206D01*
X159608244Y-75451806D01*
X159645000Y-75450000D01*
X160395000Y-75450000D01*
X160431756Y-75451806D01*
X160431756Y-75451806D01*
G37*
D10*
X160020000Y-76200000D03*
D12*
X178960046Y-78297120D03*
X184040046Y-78297120D03*
X181500046Y-78297120D03*
D13*
X184150000Y-87630000D03*
D14*
X173990000Y-87630000D03*
X190928175Y-100630805D03*
D15*
X190928175Y-100630805D02*
X190928175Y-100630805D01*
D14*
X198112380Y-93446600D03*
D13*
X196850000Y-86360000D03*
D14*
X186690000Y-86360000D03*
D13*
X173990000Y-100330000D03*
D14*
X184150000Y-100330000D03*
D13*
X161290000Y-81280000D03*
D14*
X161290000Y-91440000D03*
D13*
X165100000Y-100330000D03*
D14*
X154940000Y-100330000D03*
D13*
X156210000Y-95250000D03*
D14*
X146050000Y-95250000D03*
D13*
X156210000Y-81280000D03*
D14*
X156210000Y-91440000D03*
D13*
X142240000Y-91440000D03*
D14*
X142240000Y-101600000D03*
D13*
X142240000Y-88900000D03*
D14*
X142240000Y-78740000D03*
D11*
G36*
X204576956Y-90173646D02*
G01*
X204613359Y-90179046D01*
X204649057Y-90187987D01*
X204683706Y-90200385D01*
X204716974Y-90216120D01*
X204748539Y-90235039D01*
X204778097Y-90256961D01*
X204805365Y-90281675D01*
X204830079Y-90308943D01*
X204852001Y-90338501D01*
X204870920Y-90370066D01*
X204886655Y-90403334D01*
X204899053Y-90437983D01*
X204907994Y-90473681D01*
X204913394Y-90510084D01*
X204915200Y-90546840D01*
X204915200Y-91296840D01*
X204913394Y-91333596D01*
X204907994Y-91369999D01*
X204899053Y-91405697D01*
X204886655Y-91440346D01*
X204870920Y-91473614D01*
X204852001Y-91505179D01*
X204830079Y-91534737D01*
X204805365Y-91562005D01*
X204778097Y-91586719D01*
X204748539Y-91608641D01*
X204716974Y-91627560D01*
X204683706Y-91643295D01*
X204649057Y-91655693D01*
X204613359Y-91664634D01*
X204576956Y-91670034D01*
X204540200Y-91671840D01*
X203790200Y-91671840D01*
X203753444Y-91670034D01*
X203717041Y-91664634D01*
X203681343Y-91655693D01*
X203646694Y-91643295D01*
X203613426Y-91627560D01*
X203581861Y-91608641D01*
X203552303Y-91586719D01*
X203525035Y-91562005D01*
X203500321Y-91534737D01*
X203478399Y-91505179D01*
X203459480Y-91473614D01*
X203443745Y-91440346D01*
X203431347Y-91405697D01*
X203422406Y-91369999D01*
X203417006Y-91333596D01*
X203415200Y-91296840D01*
X203415200Y-90546840D01*
X203417006Y-90510084D01*
X203422406Y-90473681D01*
X203431347Y-90437983D01*
X203443745Y-90403334D01*
X203459480Y-90370066D01*
X203478399Y-90338501D01*
X203500321Y-90308943D01*
X203525035Y-90281675D01*
X203552303Y-90256961D01*
X203581861Y-90235039D01*
X203613426Y-90216120D01*
X203646694Y-90200385D01*
X203681343Y-90187987D01*
X203717041Y-90179046D01*
X203753444Y-90173646D01*
X203790200Y-90171840D01*
X204540200Y-90171840D01*
X204576956Y-90173646D01*
X204576956Y-90173646D01*
G37*
D10*
X204165200Y-90921840D03*
D11*
G36*
X204576956Y-85093646D02*
G01*
X204613359Y-85099046D01*
X204649057Y-85107987D01*
X204683706Y-85120385D01*
X204716974Y-85136120D01*
X204748539Y-85155039D01*
X204778097Y-85176961D01*
X204805365Y-85201675D01*
X204830079Y-85228943D01*
X204852001Y-85258501D01*
X204870920Y-85290066D01*
X204886655Y-85323334D01*
X204899053Y-85357983D01*
X204907994Y-85393681D01*
X204913394Y-85430084D01*
X204915200Y-85466840D01*
X204915200Y-86216840D01*
X204913394Y-86253596D01*
X204907994Y-86289999D01*
X204899053Y-86325697D01*
X204886655Y-86360346D01*
X204870920Y-86393614D01*
X204852001Y-86425179D01*
X204830079Y-86454737D01*
X204805365Y-86482005D01*
X204778097Y-86506719D01*
X204748539Y-86528641D01*
X204716974Y-86547560D01*
X204683706Y-86563295D01*
X204649057Y-86575693D01*
X204613359Y-86584634D01*
X204576956Y-86590034D01*
X204540200Y-86591840D01*
X203790200Y-86591840D01*
X203753444Y-86590034D01*
X203717041Y-86584634D01*
X203681343Y-86575693D01*
X203646694Y-86563295D01*
X203613426Y-86547560D01*
X203581861Y-86528641D01*
X203552303Y-86506719D01*
X203525035Y-86482005D01*
X203500321Y-86454737D01*
X203478399Y-86425179D01*
X203459480Y-86393614D01*
X203443745Y-86360346D01*
X203431347Y-86325697D01*
X203422406Y-86289999D01*
X203417006Y-86253596D01*
X203415200Y-86216840D01*
X203415200Y-85466840D01*
X203417006Y-85430084D01*
X203422406Y-85393681D01*
X203431347Y-85357983D01*
X203443745Y-85323334D01*
X203459480Y-85290066D01*
X203478399Y-85258501D01*
X203500321Y-85228943D01*
X203525035Y-85201675D01*
X203552303Y-85176961D01*
X203581861Y-85155039D01*
X203613426Y-85136120D01*
X203646694Y-85120385D01*
X203681343Y-85107987D01*
X203717041Y-85099046D01*
X203753444Y-85093646D01*
X203790200Y-85091840D01*
X204540200Y-85091840D01*
X204576956Y-85093646D01*
X204576956Y-85093646D01*
G37*
D10*
X204165200Y-85841840D03*
D11*
G36*
X132491756Y-90691806D02*
G01*
X132528159Y-90697206D01*
X132563857Y-90706147D01*
X132598506Y-90718545D01*
X132631774Y-90734280D01*
X132663339Y-90753199D01*
X132692897Y-90775121D01*
X132720165Y-90799835D01*
X132744879Y-90827103D01*
X132766801Y-90856661D01*
X132785720Y-90888226D01*
X132801455Y-90921494D01*
X132813853Y-90956143D01*
X132822794Y-90991841D01*
X132828194Y-91028244D01*
X132830000Y-91065000D01*
X132830000Y-91815000D01*
X132828194Y-91851756D01*
X132822794Y-91888159D01*
X132813853Y-91923857D01*
X132801455Y-91958506D01*
X132785720Y-91991774D01*
X132766801Y-92023339D01*
X132744879Y-92052897D01*
X132720165Y-92080165D01*
X132692897Y-92104879D01*
X132663339Y-92126801D01*
X132631774Y-92145720D01*
X132598506Y-92161455D01*
X132563857Y-92173853D01*
X132528159Y-92182794D01*
X132491756Y-92188194D01*
X132455000Y-92190000D01*
X131705000Y-92190000D01*
X131668244Y-92188194D01*
X131631841Y-92182794D01*
X131596143Y-92173853D01*
X131561494Y-92161455D01*
X131528226Y-92145720D01*
X131496661Y-92126801D01*
X131467103Y-92104879D01*
X131439835Y-92080165D01*
X131415121Y-92052897D01*
X131393199Y-92023339D01*
X131374280Y-91991774D01*
X131358545Y-91958506D01*
X131346147Y-91923857D01*
X131337206Y-91888159D01*
X131331806Y-91851756D01*
X131330000Y-91815000D01*
X131330000Y-91065000D01*
X131331806Y-91028244D01*
X131337206Y-90991841D01*
X131346147Y-90956143D01*
X131358545Y-90921494D01*
X131374280Y-90888226D01*
X131393199Y-90856661D01*
X131415121Y-90827103D01*
X131439835Y-90799835D01*
X131467103Y-90775121D01*
X131496661Y-90753199D01*
X131528226Y-90734280D01*
X131561494Y-90718545D01*
X131596143Y-90706147D01*
X131631841Y-90697206D01*
X131668244Y-90691806D01*
X131705000Y-90690000D01*
X132455000Y-90690000D01*
X132491756Y-90691806D01*
X132491756Y-90691806D01*
G37*
D10*
X132080000Y-91440000D03*
D11*
G36*
X132491756Y-85611806D02*
G01*
X132528159Y-85617206D01*
X132563857Y-85626147D01*
X132598506Y-85638545D01*
X132631774Y-85654280D01*
X132663339Y-85673199D01*
X132692897Y-85695121D01*
X132720165Y-85719835D01*
X132744879Y-85747103D01*
X132766801Y-85776661D01*
X132785720Y-85808226D01*
X132801455Y-85841494D01*
X132813853Y-85876143D01*
X132822794Y-85911841D01*
X132828194Y-85948244D01*
X132830000Y-85985000D01*
X132830000Y-86735000D01*
X132828194Y-86771756D01*
X132822794Y-86808159D01*
X132813853Y-86843857D01*
X132801455Y-86878506D01*
X132785720Y-86911774D01*
X132766801Y-86943339D01*
X132744879Y-86972897D01*
X132720165Y-87000165D01*
X132692897Y-87024879D01*
X132663339Y-87046801D01*
X132631774Y-87065720D01*
X132598506Y-87081455D01*
X132563857Y-87093853D01*
X132528159Y-87102794D01*
X132491756Y-87108194D01*
X132455000Y-87110000D01*
X131705000Y-87110000D01*
X131668244Y-87108194D01*
X131631841Y-87102794D01*
X131596143Y-87093853D01*
X131561494Y-87081455D01*
X131528226Y-87065720D01*
X131496661Y-87046801D01*
X131467103Y-87024879D01*
X131439835Y-87000165D01*
X131415121Y-86972897D01*
X131393199Y-86943339D01*
X131374280Y-86911774D01*
X131358545Y-86878506D01*
X131346147Y-86843857D01*
X131337206Y-86808159D01*
X131331806Y-86771756D01*
X131330000Y-86735000D01*
X131330000Y-85985000D01*
X131331806Y-85948244D01*
X131337206Y-85911841D01*
X131346147Y-85876143D01*
X131358545Y-85841494D01*
X131374280Y-85808226D01*
X131393199Y-85776661D01*
X131415121Y-85747103D01*
X131439835Y-85719835D01*
X131467103Y-85695121D01*
X131496661Y-85673199D01*
X131528226Y-85654280D01*
X131561494Y-85638545D01*
X131596143Y-85626147D01*
X131631841Y-85617206D01*
X131668244Y-85611806D01*
X131705000Y-85610000D01*
X132455000Y-85610000D01*
X132491756Y-85611806D01*
X132491756Y-85611806D01*
G37*
D10*
X132080000Y-86360000D03*
D14*
X176530000Y-96440000D03*
D16*
X176530000Y-91440000D03*
D14*
X187960000Y-96440000D03*
D16*
X187960000Y-91440000D03*
D14*
X167640000Y-91520000D03*
X167640000Y-96520000D03*
X148590000Y-86670000D03*
D16*
X148590000Y-90170000D03*
D14*
X151050000Y-100330000D03*
X146050000Y-100330000D03*
X137160000Y-83900000D03*
X137160000Y-88900000D03*
D17*
X151521160Y-92212160D03*
X169532300Y-91567000D03*
X193357500Y-90830400D03*
D18*
X151521160Y-92212160D02*
X156016960Y-91488260D01*
X156016960Y-91488260D02*
X156016960Y-91549220D01*
X169532300Y-91567000D02*
X176568100Y-91310460D01*
X176568100Y-91310460D02*
X188071760Y-91348560D01*
X193357500Y-90830400D02*
X193855340Y-83494880D01*
X193855340Y-83494880D02*
X194094100Y-79783940D01*
X194094100Y-79783940D02*
X191467740Y-75966320D01*
D19*
G36*
X206363950Y-103493950D02*
G01*
X128916050Y-103493950D01*
X128916050Y-102592702D01*
X141426903Y-102592702D01*
X141498486Y-102836671D01*
X141753996Y-102957571D01*
X142028184Y-103026300D01*
X142310512Y-103040217D01*
X142590130Y-102998787D01*
X142856292Y-102903603D01*
X142981514Y-102836671D01*
X143053097Y-102592702D01*
X142240000Y-101779605D01*
X141426903Y-102592702D01*
X128916050Y-102592702D01*
X128916050Y-99137009D01*
X130308840Y-99137009D01*
X130308840Y-99684031D01*
X130415558Y-100220541D01*
X130624894Y-100725923D01*
X130928803Y-101180754D01*
X131315606Y-101567557D01*
X131770437Y-101871466D01*
X132275819Y-102080802D01*
X132812329Y-102187520D01*
X133359351Y-102187520D01*
X133895861Y-102080802D01*
X134401243Y-101871466D01*
X134701991Y-101670512D01*
X140799783Y-101670512D01*
X140841213Y-101950130D01*
X140936397Y-102216292D01*
X141003329Y-102341514D01*
X141247298Y-102413097D01*
X142060395Y-101600000D01*
X142419605Y-101600000D01*
X143232702Y-102413097D01*
X143476671Y-102341514D01*
X143597571Y-102086004D01*
X143666300Y-101811816D01*
X143680217Y-101529488D01*
X143649579Y-101322702D01*
X145236903Y-101322702D01*
X145308486Y-101566671D01*
X145563996Y-101687571D01*
X145838184Y-101756300D01*
X146120512Y-101770217D01*
X146400130Y-101728787D01*
X146666292Y-101633603D01*
X146791514Y-101566671D01*
X146863097Y-101322702D01*
X146050000Y-100509605D01*
X145236903Y-101322702D01*
X143649579Y-101322702D01*
X143638787Y-101249870D01*
X143543603Y-100983708D01*
X143476671Y-100858486D01*
X143232702Y-100786903D01*
X142419605Y-101600000D01*
X142060395Y-101600000D01*
X141247298Y-100786903D01*
X141003329Y-100858486D01*
X140882429Y-101113996D01*
X140813700Y-101388184D01*
X140799783Y-101670512D01*
X134701991Y-101670512D01*
X134856074Y-101567557D01*
X135242877Y-101180754D01*
X135546786Y-100725923D01*
X135595922Y-100607298D01*
X141426903Y-100607298D01*
X142240000Y-101420395D01*
X143053097Y-100607298D01*
X142992424Y-100400512D01*
X144609783Y-100400512D01*
X144651213Y-100680130D01*
X144746397Y-100946292D01*
X144813329Y-101071514D01*
X145057298Y-101143097D01*
X145870395Y-100330000D01*
X146229605Y-100330000D01*
X147042702Y-101143097D01*
X147286671Y-101071514D01*
X147407571Y-100816004D01*
X147476300Y-100541816D01*
X147490217Y-100259488D01*
X147479841Y-100189453D01*
X149623000Y-100189453D01*
X149623000Y-100470547D01*
X149677838Y-100746241D01*
X149785409Y-101005938D01*
X149941576Y-101239660D01*
X150140340Y-101438424D01*
X150374062Y-101594591D01*
X150633759Y-101702162D01*
X150909453Y-101757000D01*
X151190547Y-101757000D01*
X151466241Y-101702162D01*
X151725938Y-101594591D01*
X151959660Y-101438424D01*
X152158424Y-101239660D01*
X152314591Y-101005938D01*
X152422162Y-100746241D01*
X152477000Y-100470547D01*
X152477000Y-100189453D01*
X153513000Y-100189453D01*
X153513000Y-100470547D01*
X153567838Y-100746241D01*
X153675409Y-101005938D01*
X153831576Y-101239660D01*
X154030340Y-101438424D01*
X154264062Y-101594591D01*
X154523759Y-101702162D01*
X154799453Y-101757000D01*
X155080547Y-101757000D01*
X155356241Y-101702162D01*
X155615938Y-101594591D01*
X155849660Y-101438424D01*
X156048424Y-101239660D01*
X156204591Y-101005938D01*
X156312162Y-100746241D01*
X156367000Y-100470547D01*
X156367000Y-100330000D01*
X163666096Y-100330000D01*
X163693648Y-100609741D01*
X163775245Y-100878731D01*
X163907752Y-101126634D01*
X164086077Y-101343923D01*
X164303366Y-101522248D01*
X164551269Y-101654755D01*
X164820259Y-101736352D01*
X165029902Y-101757000D01*
X165170098Y-101757000D01*
X165379741Y-101736352D01*
X165648731Y-101654755D01*
X165896634Y-101522248D01*
X166113923Y-101343923D01*
X166292248Y-101126634D01*
X166424755Y-100878731D01*
X166485330Y-100679039D01*
X172598096Y-100679039D01*
X172638754Y-100813087D01*
X172758963Y-101067420D01*
X172926481Y-101293414D01*
X173134869Y-101482385D01*
X173376119Y-101627070D01*
X173640960Y-101721909D01*
X173863000Y-101600624D01*
X173863000Y-100457000D01*
X174117000Y-100457000D01*
X174117000Y-101600624D01*
X174339040Y-101721909D01*
X174603881Y-101627070D01*
X174845131Y-101482385D01*
X175053519Y-101293414D01*
X175221037Y-101067420D01*
X175341246Y-100813087D01*
X175381904Y-100679039D01*
X175259915Y-100457000D01*
X174117000Y-100457000D01*
X173863000Y-100457000D01*
X172720085Y-100457000D01*
X172598096Y-100679039D01*
X166485330Y-100679039D01*
X166506352Y-100609741D01*
X166533904Y-100330000D01*
X166506352Y-100050259D01*
X166485331Y-99980961D01*
X172598096Y-99980961D01*
X172720085Y-100203000D01*
X173863000Y-100203000D01*
X173863000Y-99059376D01*
X174117000Y-99059376D01*
X174117000Y-100203000D01*
X175259915Y-100203000D01*
X175267357Y-100189453D01*
X182723000Y-100189453D01*
X182723000Y-100470547D01*
X182777838Y-100746241D01*
X182885409Y-101005938D01*
X183041576Y-101239660D01*
X183240340Y-101438424D01*
X183474062Y-101594591D01*
X183733759Y-101702162D01*
X184009453Y-101757000D01*
X184290547Y-101757000D01*
X184566241Y-101702162D01*
X184825938Y-101594591D01*
X185059660Y-101438424D01*
X185258424Y-101239660D01*
X185414591Y-101005938D01*
X185522162Y-100746241D01*
X185545123Y-100630805D01*
X189494271Y-100630805D01*
X189521823Y-100910546D01*
X189603420Y-101179536D01*
X189735927Y-101427439D01*
X189914252Y-101644728D01*
X190131541Y-101823053D01*
X190379444Y-101955560D01*
X190648434Y-102037157D01*
X190858077Y-102057805D01*
X190998273Y-102057805D01*
X191207916Y-102037157D01*
X191476906Y-101955560D01*
X191724809Y-101823053D01*
X191942098Y-101644728D01*
X192120423Y-101427439D01*
X192252930Y-101179536D01*
X192334527Y-100910546D01*
X192362079Y-100630805D01*
X192334527Y-100351064D01*
X192252930Y-100082074D01*
X192120423Y-99834171D01*
X191942098Y-99616882D01*
X191724809Y-99438557D01*
X191502797Y-99319889D01*
X199234280Y-99319889D01*
X199234280Y-99866911D01*
X199340998Y-100403421D01*
X199550334Y-100908803D01*
X199854243Y-101363634D01*
X200241046Y-101750437D01*
X200695877Y-102054346D01*
X201201259Y-102263682D01*
X201737769Y-102370400D01*
X202284791Y-102370400D01*
X202821301Y-102263682D01*
X203326683Y-102054346D01*
X203781514Y-101750437D01*
X204168317Y-101363634D01*
X204472226Y-100908803D01*
X204681562Y-100403421D01*
X204788280Y-99866911D01*
X204788280Y-99319889D01*
X204681562Y-98783379D01*
X204472226Y-98277997D01*
X204168317Y-97823166D01*
X203781514Y-97436363D01*
X203326683Y-97132454D01*
X202821301Y-96923118D01*
X202284791Y-96816400D01*
X201737769Y-96816400D01*
X201201259Y-96923118D01*
X200695877Y-97132454D01*
X200241046Y-97436363D01*
X199854243Y-97823166D01*
X199550334Y-98277997D01*
X199340998Y-98783379D01*
X199234280Y-99319889D01*
X191502797Y-99319889D01*
X191476906Y-99306050D01*
X191207916Y-99224453D01*
X190998273Y-99203805D01*
X190858077Y-99203805D01*
X190648434Y-99224453D01*
X190379444Y-99306050D01*
X190131541Y-99438557D01*
X189914252Y-99616882D01*
X189735927Y-99834171D01*
X189603420Y-100082074D01*
X189521823Y-100351064D01*
X189494271Y-100630805D01*
X185545123Y-100630805D01*
X185577000Y-100470547D01*
X185577000Y-100189453D01*
X185522162Y-99913759D01*
X185414591Y-99654062D01*
X185258424Y-99420340D01*
X185059660Y-99221576D01*
X184825938Y-99065409D01*
X184566241Y-98957838D01*
X184290547Y-98903000D01*
X184009453Y-98903000D01*
X183733759Y-98957838D01*
X183474062Y-99065409D01*
X183240340Y-99221576D01*
X183041576Y-99420340D01*
X182885409Y-99654062D01*
X182777838Y-99913759D01*
X182723000Y-100189453D01*
X175267357Y-100189453D01*
X175381904Y-99980961D01*
X175341246Y-99846913D01*
X175221037Y-99592580D01*
X175053519Y-99366586D01*
X174845131Y-99177615D01*
X174603881Y-99032930D01*
X174339040Y-98938091D01*
X174117000Y-99059376D01*
X173863000Y-99059376D01*
X173640960Y-98938091D01*
X173376119Y-99032930D01*
X173134869Y-99177615D01*
X172926481Y-99366586D01*
X172758963Y-99592580D01*
X172638754Y-99846913D01*
X172598096Y-99980961D01*
X166485331Y-99980961D01*
X166424755Y-99781269D01*
X166292248Y-99533366D01*
X166113923Y-99316077D01*
X165896634Y-99137752D01*
X165648731Y-99005245D01*
X165379741Y-98923648D01*
X165170098Y-98903000D01*
X165029902Y-98903000D01*
X164820259Y-98923648D01*
X164551269Y-99005245D01*
X164303366Y-99137752D01*
X164086077Y-99316077D01*
X163907752Y-99533366D01*
X163775245Y-99781269D01*
X163693648Y-100050259D01*
X163666096Y-100330000D01*
X156367000Y-100330000D01*
X156367000Y-100189453D01*
X156312162Y-99913759D01*
X156204591Y-99654062D01*
X156048424Y-99420340D01*
X155849660Y-99221576D01*
X155615938Y-99065409D01*
X155356241Y-98957838D01*
X155080547Y-98903000D01*
X154799453Y-98903000D01*
X154523759Y-98957838D01*
X154264062Y-99065409D01*
X154030340Y-99221576D01*
X153831576Y-99420340D01*
X153675409Y-99654062D01*
X153567838Y-99913759D01*
X153513000Y-100189453D01*
X152477000Y-100189453D01*
X152422162Y-99913759D01*
X152314591Y-99654062D01*
X152158424Y-99420340D01*
X151959660Y-99221576D01*
X151725938Y-99065409D01*
X151466241Y-98957838D01*
X151190547Y-98903000D01*
X150909453Y-98903000D01*
X150633759Y-98957838D01*
X150374062Y-99065409D01*
X150140340Y-99221576D01*
X149941576Y-99420340D01*
X149785409Y-99654062D01*
X149677838Y-99913759D01*
X149623000Y-100189453D01*
X147479841Y-100189453D01*
X147448787Y-99979870D01*
X147353603Y-99713708D01*
X147286671Y-99588486D01*
X147042702Y-99516903D01*
X146229605Y-100330000D01*
X145870395Y-100330000D01*
X145057298Y-99516903D01*
X144813329Y-99588486D01*
X144692429Y-99843996D01*
X144623700Y-100118184D01*
X144609783Y-100400512D01*
X142992424Y-100400512D01*
X142981514Y-100363329D01*
X142726004Y-100242429D01*
X142451816Y-100173700D01*
X142169488Y-100159783D01*
X141889870Y-100201213D01*
X141623708Y-100296397D01*
X141498486Y-100363329D01*
X141426903Y-100607298D01*
X135595922Y-100607298D01*
X135756122Y-100220541D01*
X135862840Y-99684031D01*
X135862840Y-99337298D01*
X145236903Y-99337298D01*
X146050000Y-100150395D01*
X146863097Y-99337298D01*
X146791514Y-99093329D01*
X146536004Y-98972429D01*
X146261816Y-98903700D01*
X145979488Y-98889783D01*
X145699870Y-98931213D01*
X145433708Y-99026397D01*
X145308486Y-99093329D01*
X145236903Y-99337298D01*
X135862840Y-99337298D01*
X135862840Y-99137009D01*
X135756122Y-98600499D01*
X135546786Y-98095117D01*
X135242877Y-97640286D01*
X134856074Y-97253483D01*
X134401243Y-96949574D01*
X133895861Y-96740238D01*
X133359351Y-96633520D01*
X132812329Y-96633520D01*
X132275819Y-96740238D01*
X131770437Y-96949574D01*
X131315606Y-97253483D01*
X130928803Y-97640286D01*
X130624894Y-98095117D01*
X130415558Y-98600499D01*
X130308840Y-99137009D01*
X128916050Y-99137009D01*
X128916050Y-96242702D01*
X145236903Y-96242702D01*
X145308486Y-96486671D01*
X145563996Y-96607571D01*
X145838184Y-96676300D01*
X146120512Y-96690217D01*
X146400130Y-96648787D01*
X146666292Y-96553603D01*
X146791514Y-96486671D01*
X146863097Y-96242702D01*
X146050000Y-95429605D01*
X145236903Y-96242702D01*
X128916050Y-96242702D01*
X128916050Y-95320512D01*
X144609783Y-95320512D01*
X144651213Y-95600130D01*
X144746397Y-95866292D01*
X144813329Y-95991514D01*
X145057298Y-96063097D01*
X145870395Y-95250000D01*
X146229605Y-95250000D01*
X147042702Y-96063097D01*
X147286671Y-95991514D01*
X147407571Y-95736004D01*
X147476300Y-95461816D01*
X147486741Y-95250000D01*
X154776096Y-95250000D01*
X154803648Y-95529741D01*
X154885245Y-95798731D01*
X155017752Y-96046634D01*
X155196077Y-96263923D01*
X155413366Y-96442248D01*
X155661269Y-96574755D01*
X155930259Y-96656352D01*
X156139902Y-96677000D01*
X156280098Y-96677000D01*
X156489741Y-96656352D01*
X156758731Y-96574755D01*
X157006634Y-96442248D01*
X157083149Y-96379453D01*
X166213000Y-96379453D01*
X166213000Y-96660547D01*
X166267838Y-96936241D01*
X166375409Y-97195938D01*
X166531576Y-97429660D01*
X166730340Y-97628424D01*
X166964062Y-97784591D01*
X167223759Y-97892162D01*
X167499453Y-97947000D01*
X167780547Y-97947000D01*
X168056241Y-97892162D01*
X168315938Y-97784591D01*
X168549660Y-97628424D01*
X168748424Y-97429660D01*
X168904591Y-97195938D01*
X169012162Y-96936241D01*
X169067000Y-96660547D01*
X169067000Y-96379453D01*
X169051088Y-96299453D01*
X175103000Y-96299453D01*
X175103000Y-96580547D01*
X175157838Y-96856241D01*
X175265409Y-97115938D01*
X175421576Y-97349660D01*
X175620340Y-97548424D01*
X175854062Y-97704591D01*
X176113759Y-97812162D01*
X176389453Y-97867000D01*
X176670547Y-97867000D01*
X176946241Y-97812162D01*
X177205938Y-97704591D01*
X177439660Y-97548424D01*
X177638424Y-97349660D01*
X177794591Y-97115938D01*
X177902162Y-96856241D01*
X177957000Y-96580547D01*
X177957000Y-96299453D01*
X186533000Y-96299453D01*
X186533000Y-96580547D01*
X186587838Y-96856241D01*
X186695409Y-97115938D01*
X186851576Y-97349660D01*
X187050340Y-97548424D01*
X187284062Y-97704591D01*
X187543759Y-97812162D01*
X187819453Y-97867000D01*
X188100547Y-97867000D01*
X188376241Y-97812162D01*
X188635938Y-97704591D01*
X188869660Y-97548424D01*
X189068424Y-97349660D01*
X189224591Y-97115938D01*
X189332162Y-96856241D01*
X189387000Y-96580547D01*
X189387000Y-96299453D01*
X189332162Y-96023759D01*
X189224591Y-95764062D01*
X189068424Y-95530340D01*
X188869660Y-95331576D01*
X188635938Y-95175409D01*
X188376241Y-95067838D01*
X188100547Y-95013000D01*
X187819453Y-95013000D01*
X187543759Y-95067838D01*
X187284062Y-95175409D01*
X187050340Y-95331576D01*
X186851576Y-95530340D01*
X186695409Y-95764062D01*
X186587838Y-96023759D01*
X186533000Y-96299453D01*
X177957000Y-96299453D01*
X177902162Y-96023759D01*
X177794591Y-95764062D01*
X177638424Y-95530340D01*
X177439660Y-95331576D01*
X177205938Y-95175409D01*
X176946241Y-95067838D01*
X176670547Y-95013000D01*
X176389453Y-95013000D01*
X176113759Y-95067838D01*
X175854062Y-95175409D01*
X175620340Y-95331576D01*
X175421576Y-95530340D01*
X175265409Y-95764062D01*
X175157838Y-96023759D01*
X175103000Y-96299453D01*
X169051088Y-96299453D01*
X169012162Y-96103759D01*
X168904591Y-95844062D01*
X168748424Y-95610340D01*
X168549660Y-95411576D01*
X168315938Y-95255409D01*
X168056241Y-95147838D01*
X167780547Y-95093000D01*
X167499453Y-95093000D01*
X167223759Y-95147838D01*
X166964062Y-95255409D01*
X166730340Y-95411576D01*
X166531576Y-95610340D01*
X166375409Y-95844062D01*
X166267838Y-96103759D01*
X166213000Y-96379453D01*
X157083149Y-96379453D01*
X157223923Y-96263923D01*
X157402248Y-96046634D01*
X157534755Y-95798731D01*
X157616352Y-95529741D01*
X157643904Y-95250000D01*
X157616352Y-94970259D01*
X157534755Y-94701269D01*
X157402248Y-94453366D01*
X157223923Y-94236077D01*
X157006634Y-94057752D01*
X156758731Y-93925245D01*
X156489741Y-93843648D01*
X156280098Y-93823000D01*
X156139902Y-93823000D01*
X155930259Y-93843648D01*
X155661269Y-93925245D01*
X155413366Y-94057752D01*
X155196077Y-94236077D01*
X155017752Y-94453366D01*
X154885245Y-94701269D01*
X154803648Y-94970259D01*
X154776096Y-95250000D01*
X147486741Y-95250000D01*
X147490217Y-95179488D01*
X147448787Y-94899870D01*
X147353603Y-94633708D01*
X147286671Y-94508486D01*
X147042702Y-94436903D01*
X146229605Y-95250000D01*
X145870395Y-95250000D01*
X145057298Y-94436903D01*
X144813329Y-94508486D01*
X144692429Y-94763996D01*
X144623700Y-95038184D01*
X144609783Y-95320512D01*
X128916050Y-95320512D01*
X128916050Y-94257298D01*
X145236903Y-94257298D01*
X146050000Y-95070395D01*
X146863097Y-94257298D01*
X146791514Y-94013329D01*
X146536004Y-93892429D01*
X146261816Y-93823700D01*
X145979488Y-93809783D01*
X145699870Y-93851213D01*
X145433708Y-93946397D01*
X145308486Y-94013329D01*
X145236903Y-94257298D01*
X128916050Y-94257298D01*
X128916050Y-93306053D01*
X196685380Y-93306053D01*
X196685380Y-93587147D01*
X196740218Y-93862841D01*
X196847789Y-94122538D01*
X197003956Y-94356260D01*
X197202720Y-94555024D01*
X197436442Y-94711191D01*
X197696139Y-94818762D01*
X197971833Y-94873600D01*
X198252927Y-94873600D01*
X198528621Y-94818762D01*
X198788318Y-94711191D01*
X199022040Y-94555024D01*
X199220804Y-94356260D01*
X199376971Y-94122538D01*
X199484542Y-93862841D01*
X199539380Y-93587147D01*
X199539380Y-93306053D01*
X199484542Y-93030359D01*
X199376971Y-92770662D01*
X199220804Y-92536940D01*
X199022040Y-92338176D01*
X198788318Y-92182009D01*
X198528621Y-92074438D01*
X198252927Y-92019600D01*
X197971833Y-92019600D01*
X197696139Y-92074438D01*
X197436442Y-92182009D01*
X197202720Y-92338176D01*
X197003956Y-92536940D01*
X196847789Y-92770662D01*
X196740218Y-93030359D01*
X196685380Y-93306053D01*
X128916050Y-93306053D01*
X128916050Y-92190000D01*
X130691928Y-92190000D01*
X130704188Y-92314482D01*
X130740498Y-92434180D01*
X130799463Y-92544494D01*
X130878815Y-92641185D01*
X130975506Y-92720537D01*
X131085820Y-92779502D01*
X131205518Y-92815812D01*
X131330000Y-92828072D01*
X131794250Y-92825000D01*
X131953000Y-92666250D01*
X131953000Y-91567000D01*
X132207000Y-91567000D01*
X132207000Y-92666250D01*
X132365750Y-92825000D01*
X132830000Y-92828072D01*
X132954482Y-92815812D01*
X133074180Y-92779502D01*
X133184494Y-92720537D01*
X133281185Y-92641185D01*
X133360537Y-92544494D01*
X133419502Y-92434180D01*
X133455812Y-92314482D01*
X133468072Y-92190000D01*
X133465000Y-91725750D01*
X133306250Y-91567000D01*
X132207000Y-91567000D01*
X131953000Y-91567000D01*
X130853750Y-91567000D01*
X130695000Y-91725750D01*
X130691928Y-92190000D01*
X128916050Y-92190000D01*
X128916050Y-90690000D01*
X130691928Y-90690000D01*
X130695000Y-91154250D01*
X130853750Y-91313000D01*
X131953000Y-91313000D01*
X131953000Y-90213750D01*
X132207000Y-90213750D01*
X132207000Y-91313000D01*
X133306250Y-91313000D01*
X133465000Y-91154250D01*
X133468072Y-90690000D01*
X133455812Y-90565518D01*
X133419502Y-90445820D01*
X133360537Y-90335506D01*
X133281185Y-90238815D01*
X133184494Y-90159463D01*
X133074180Y-90100498D01*
X132954482Y-90064188D01*
X132830000Y-90051928D01*
X132365750Y-90055000D01*
X132207000Y-90213750D01*
X131953000Y-90213750D01*
X131794250Y-90055000D01*
X131330000Y-90051928D01*
X131205518Y-90064188D01*
X131085820Y-90100498D01*
X130975506Y-90159463D01*
X130878815Y-90238815D01*
X130799463Y-90335506D01*
X130740498Y-90445820D01*
X130704188Y-90565518D01*
X130691928Y-90690000D01*
X128916050Y-90690000D01*
X128916050Y-88759453D01*
X135733000Y-88759453D01*
X135733000Y-89040547D01*
X135787838Y-89316241D01*
X135895409Y-89575938D01*
X136051576Y-89809660D01*
X136250340Y-90008424D01*
X136484062Y-90164591D01*
X136743759Y-90272162D01*
X137019453Y-90327000D01*
X137300547Y-90327000D01*
X137576241Y-90272162D01*
X137835938Y-90164591D01*
X138069660Y-90008424D01*
X138268424Y-89809660D01*
X138424591Y-89575938D01*
X138532162Y-89316241D01*
X138587000Y-89040547D01*
X138587000Y-88900000D01*
X140806096Y-88900000D01*
X140833648Y-89179741D01*
X140915245Y-89448731D01*
X141047752Y-89696634D01*
X141226077Y-89913923D01*
X141443366Y-90092248D01*
X141588830Y-90170000D01*
X141443366Y-90247752D01*
X141226077Y-90426077D01*
X141047752Y-90643366D01*
X140915245Y-90891269D01*
X140833648Y-91160259D01*
X140806096Y-91440000D01*
X140833648Y-91719741D01*
X140915245Y-91988731D01*
X141047752Y-92236634D01*
X141226077Y-92453923D01*
X141443366Y-92632248D01*
X141691269Y-92764755D01*
X141960259Y-92846352D01*
X142169902Y-92867000D01*
X142310098Y-92867000D01*
X142519741Y-92846352D01*
X142788731Y-92764755D01*
X143036634Y-92632248D01*
X143253923Y-92453923D01*
X143432248Y-92236634D01*
X143494131Y-92120859D01*
X150594160Y-92120859D01*
X150594160Y-92303461D01*
X150629784Y-92482556D01*
X150699664Y-92651259D01*
X150801112Y-92803088D01*
X150930232Y-92932208D01*
X151082061Y-93033656D01*
X151250764Y-93103536D01*
X151429859Y-93139160D01*
X151612461Y-93139160D01*
X151791556Y-93103536D01*
X151960259Y-93033656D01*
X152067814Y-92961791D01*
X155208072Y-92456156D01*
X155300340Y-92548424D01*
X155534062Y-92704591D01*
X155793759Y-92812162D01*
X156069453Y-92867000D01*
X156350547Y-92867000D01*
X156626241Y-92812162D01*
X156885938Y-92704591D01*
X157119660Y-92548424D01*
X157318424Y-92349660D01*
X157474591Y-92115938D01*
X157582162Y-91856241D01*
X157637000Y-91580547D01*
X157637000Y-91299453D01*
X159863000Y-91299453D01*
X159863000Y-91580547D01*
X159917838Y-91856241D01*
X160025409Y-92115938D01*
X160181576Y-92349660D01*
X160380340Y-92548424D01*
X160614062Y-92704591D01*
X160873759Y-92812162D01*
X161149453Y-92867000D01*
X161430547Y-92867000D01*
X161706241Y-92812162D01*
X161965938Y-92704591D01*
X162199660Y-92548424D01*
X162398424Y-92349660D01*
X162554591Y-92115938D01*
X162662162Y-91856241D01*
X162717000Y-91580547D01*
X162717000Y-91379453D01*
X166213000Y-91379453D01*
X166213000Y-91660547D01*
X166267838Y-91936241D01*
X166375409Y-92195938D01*
X166531576Y-92429660D01*
X166730340Y-92628424D01*
X166964062Y-92784591D01*
X167223759Y-92892162D01*
X167499453Y-92947000D01*
X167780547Y-92947000D01*
X168056241Y-92892162D01*
X168315938Y-92784591D01*
X168549660Y-92628424D01*
X168748424Y-92429660D01*
X168882830Y-92228506D01*
X168941372Y-92287048D01*
X169093201Y-92388496D01*
X169261904Y-92458376D01*
X169440999Y-92494000D01*
X169623601Y-92494000D01*
X169802696Y-92458376D01*
X169971399Y-92388496D01*
X169987161Y-92377964D01*
X175099967Y-92191540D01*
X175099967Y-92240000D01*
X175112073Y-92362913D01*
X175147925Y-92481103D01*
X175206147Y-92590028D01*
X175284499Y-92685501D01*
X175379972Y-92763853D01*
X175488897Y-92822075D01*
X175607087Y-92857927D01*
X175730000Y-92870033D01*
X177330000Y-92870033D01*
X177452913Y-92857927D01*
X177571103Y-92822075D01*
X177680028Y-92763853D01*
X177775501Y-92685501D01*
X177853853Y-92590028D01*
X177912075Y-92481103D01*
X177947927Y-92362913D01*
X177960033Y-92240000D01*
X177960033Y-92142074D01*
X186529967Y-92170458D01*
X186529967Y-92240000D01*
X186542073Y-92362913D01*
X186577925Y-92481103D01*
X186636147Y-92590028D01*
X186714499Y-92685501D01*
X186809972Y-92763853D01*
X186918897Y-92822075D01*
X187037087Y-92857927D01*
X187160000Y-92870033D01*
X188760000Y-92870033D01*
X188882913Y-92857927D01*
X189001103Y-92822075D01*
X189110028Y-92763853D01*
X189205501Y-92685501D01*
X189283853Y-92590028D01*
X189342075Y-92481103D01*
X189377927Y-92362913D01*
X189390033Y-92240000D01*
X189390033Y-90640000D01*
X189377927Y-90517087D01*
X189342075Y-90398897D01*
X189283853Y-90289972D01*
X189205501Y-90194499D01*
X189110028Y-90116147D01*
X189001103Y-90057925D01*
X188882913Y-90022073D01*
X188760000Y-90009967D01*
X187160000Y-90009967D01*
X187037087Y-90022073D01*
X186918897Y-90057925D01*
X186809972Y-90116147D01*
X186714499Y-90194499D01*
X186636147Y-90289972D01*
X186577925Y-90398897D01*
X186542254Y-90516491D01*
X177939103Y-90487996D01*
X177912075Y-90398897D01*
X177853853Y-90289972D01*
X177775501Y-90194499D01*
X177680028Y-90116147D01*
X177571103Y-90057925D01*
X177452913Y-90022073D01*
X177330000Y-90009967D01*
X175730000Y-90009967D01*
X175607087Y-90022073D01*
X175488897Y-90057925D01*
X175379972Y-90116147D01*
X175284499Y-90194499D01*
X175206147Y-90289972D01*
X175147925Y-90398897D01*
X175112073Y-90517087D01*
X175110203Y-90536069D01*
X169922443Y-90725226D01*
X169802696Y-90675624D01*
X169623601Y-90640000D01*
X169440999Y-90640000D01*
X169261904Y-90675624D01*
X169093201Y-90745504D01*
X168941372Y-90846952D01*
X168916210Y-90872114D01*
X168904591Y-90844062D01*
X168748424Y-90610340D01*
X168549660Y-90411576D01*
X168315938Y-90255409D01*
X168056241Y-90147838D01*
X167780547Y-90093000D01*
X167499453Y-90093000D01*
X167223759Y-90147838D01*
X166964062Y-90255409D01*
X166730340Y-90411576D01*
X166531576Y-90610340D01*
X166375409Y-90844062D01*
X166267838Y-91103759D01*
X166213000Y-91379453D01*
X162717000Y-91379453D01*
X162717000Y-91299453D01*
X162662162Y-91023759D01*
X162554591Y-90764062D01*
X162398424Y-90530340D01*
X162199660Y-90331576D01*
X161965938Y-90175409D01*
X161706241Y-90067838D01*
X161517160Y-90030228D01*
X168782464Y-90030228D01*
X168934413Y-90225837D01*
X169206944Y-90238400D01*
X169476690Y-90197553D01*
X169733284Y-90104865D01*
X169966865Y-89963900D01*
X170168457Y-89780074D01*
X170249763Y-89681001D01*
X170218891Y-89435241D01*
X169203184Y-89014521D01*
X168782464Y-90030228D01*
X161517160Y-90030228D01*
X161430547Y-90013000D01*
X161149453Y-90013000D01*
X160873759Y-90067838D01*
X160614062Y-90175409D01*
X160380340Y-90331576D01*
X160181576Y-90530340D01*
X160025409Y-90764062D01*
X159917838Y-91023759D01*
X159863000Y-91299453D01*
X157637000Y-91299453D01*
X157582162Y-91023759D01*
X157474591Y-90764062D01*
X157318424Y-90530340D01*
X157119660Y-90331576D01*
X156885938Y-90175409D01*
X156626241Y-90067838D01*
X156350547Y-90013000D01*
X156069453Y-90013000D01*
X155793759Y-90067838D01*
X155534062Y-90175409D01*
X155300340Y-90331576D01*
X155101576Y-90530340D01*
X154945409Y-90764062D01*
X154919186Y-90827369D01*
X151809264Y-91328119D01*
X151791556Y-91320784D01*
X151612461Y-91285160D01*
X151429859Y-91285160D01*
X151250764Y-91320784D01*
X151082061Y-91390664D01*
X150930232Y-91492112D01*
X150801112Y-91621232D01*
X150699664Y-91773061D01*
X150629784Y-91941764D01*
X150594160Y-92120859D01*
X143494131Y-92120859D01*
X143564755Y-91988731D01*
X143646352Y-91719741D01*
X143673904Y-91440000D01*
X143646352Y-91160259D01*
X143564755Y-90891269D01*
X143432248Y-90643366D01*
X143253923Y-90426077D01*
X143036634Y-90247752D01*
X142891170Y-90170000D01*
X143036634Y-90092248D01*
X143253923Y-89913923D01*
X143432248Y-89696634D01*
X143564755Y-89448731D01*
X143588637Y-89370000D01*
X147159967Y-89370000D01*
X147159967Y-90970000D01*
X147172073Y-91092913D01*
X147207925Y-91211103D01*
X147266147Y-91320028D01*
X147344499Y-91415501D01*
X147439972Y-91493853D01*
X147548897Y-91552075D01*
X147667087Y-91587927D01*
X147790000Y-91600033D01*
X149390000Y-91600033D01*
X149512913Y-91587927D01*
X149631103Y-91552075D01*
X149740028Y-91493853D01*
X149835501Y-91415501D01*
X149913853Y-91320028D01*
X149972075Y-91211103D01*
X150007927Y-91092913D01*
X150020033Y-90970000D01*
X150020033Y-89370000D01*
X150007927Y-89247087D01*
X149972075Y-89128897D01*
X149913853Y-89019972D01*
X149835501Y-88924499D01*
X149831335Y-88921080D01*
X167744640Y-88921080D01*
X167785487Y-89190826D01*
X167878175Y-89447420D01*
X168019140Y-89681001D01*
X168202966Y-89882593D01*
X168302039Y-89963899D01*
X168547799Y-89933027D01*
X168968519Y-88917320D01*
X167952812Y-88496600D01*
X167757203Y-88648549D01*
X167744640Y-88921080D01*
X149831335Y-88921080D01*
X149740028Y-88846147D01*
X149631103Y-88787925D01*
X149512913Y-88752073D01*
X149390000Y-88739967D01*
X147790000Y-88739967D01*
X147667087Y-88752073D01*
X147548897Y-88787925D01*
X147439972Y-88846147D01*
X147344499Y-88924499D01*
X147266147Y-89019972D01*
X147207925Y-89128897D01*
X147172073Y-89247087D01*
X147159967Y-89370000D01*
X143588637Y-89370000D01*
X143646352Y-89179741D01*
X143673904Y-88900000D01*
X143646352Y-88620259D01*
X143564755Y-88351269D01*
X143432248Y-88103366D01*
X143253923Y-87886077D01*
X143036634Y-87707752D01*
X142952352Y-87662702D01*
X147776903Y-87662702D01*
X147848486Y-87906671D01*
X148103996Y-88027571D01*
X148378184Y-88096300D01*
X148660512Y-88110217D01*
X148940130Y-88068787D01*
X149206292Y-87973603D01*
X149331514Y-87906671D01*
X149403097Y-87662702D01*
X148590000Y-86849605D01*
X147776903Y-87662702D01*
X142952352Y-87662702D01*
X142788731Y-87575245D01*
X142519741Y-87493648D01*
X142310098Y-87473000D01*
X142169902Y-87473000D01*
X141960259Y-87493648D01*
X141691269Y-87575245D01*
X141443366Y-87707752D01*
X141226077Y-87886077D01*
X141047752Y-88103366D01*
X140915245Y-88351269D01*
X140833648Y-88620259D01*
X140806096Y-88900000D01*
X138587000Y-88900000D01*
X138587000Y-88759453D01*
X138532162Y-88483759D01*
X138424591Y-88224062D01*
X138268424Y-87990340D01*
X138069660Y-87791576D01*
X137835938Y-87635409D01*
X137576241Y-87527838D01*
X137300547Y-87473000D01*
X137019453Y-87473000D01*
X136743759Y-87527838D01*
X136484062Y-87635409D01*
X136250340Y-87791576D01*
X136051576Y-87990340D01*
X135895409Y-88224062D01*
X135787838Y-88483759D01*
X135733000Y-88759453D01*
X128916050Y-88759453D01*
X128916050Y-85985000D01*
X130699967Y-85985000D01*
X130699967Y-86735000D01*
X130719278Y-86931072D01*
X130776471Y-87119609D01*
X130869346Y-87293366D01*
X130994334Y-87445666D01*
X131146634Y-87570654D01*
X131320391Y-87663529D01*
X131508928Y-87720722D01*
X131705000Y-87740033D01*
X132455000Y-87740033D01*
X132651072Y-87720722D01*
X132839609Y-87663529D01*
X133013366Y-87570654D01*
X133165666Y-87445666D01*
X133290654Y-87293366D01*
X133383529Y-87119609D01*
X133440722Y-86931072D01*
X133459490Y-86740512D01*
X147149783Y-86740512D01*
X147191213Y-87020130D01*
X147286397Y-87286292D01*
X147353329Y-87411514D01*
X147597298Y-87483097D01*
X148410395Y-86670000D01*
X148769605Y-86670000D01*
X149582702Y-87483097D01*
X149826671Y-87411514D01*
X149947571Y-87156004D01*
X150016300Y-86881816D01*
X150030217Y-86599488D01*
X149988787Y-86319870D01*
X149893603Y-86053708D01*
X149826671Y-85928486D01*
X149582702Y-85856903D01*
X148769605Y-86670000D01*
X148410395Y-86670000D01*
X147597298Y-85856903D01*
X147353329Y-85928486D01*
X147232429Y-86183996D01*
X147163700Y-86458184D01*
X147149783Y-86740512D01*
X133459490Y-86740512D01*
X133460033Y-86735000D01*
X133460033Y-85985000D01*
X133440722Y-85788928D01*
X133406859Y-85677298D01*
X147776903Y-85677298D01*
X148590000Y-86490395D01*
X149403097Y-85677298D01*
X149331514Y-85433329D01*
X149076004Y-85312429D01*
X148801816Y-85243700D01*
X148519488Y-85229783D01*
X148239870Y-85271213D01*
X147973708Y-85366397D01*
X147848486Y-85433329D01*
X147776903Y-85677298D01*
X133406859Y-85677298D01*
X133383529Y-85600391D01*
X133290654Y-85426634D01*
X133165666Y-85274334D01*
X133013366Y-85149346D01*
X132839609Y-85056471D01*
X132651072Y-84999278D01*
X132455000Y-84979967D01*
X131705000Y-84979967D01*
X131508928Y-84999278D01*
X131320391Y-85056471D01*
X131146634Y-85149346D01*
X130994334Y-85274334D01*
X130869346Y-85426634D01*
X130776471Y-85600391D01*
X130719278Y-85788928D01*
X130699967Y-85985000D01*
X128916050Y-85985000D01*
X128916050Y-83759453D01*
X135733000Y-83759453D01*
X135733000Y-84040547D01*
X135787838Y-84316241D01*
X135895409Y-84575938D01*
X136051576Y-84809660D01*
X136250340Y-85008424D01*
X136484062Y-85164591D01*
X136743759Y-85272162D01*
X137019453Y-85327000D01*
X137300547Y-85327000D01*
X137576241Y-85272162D01*
X137835938Y-85164591D01*
X138069660Y-85008424D01*
X138268424Y-84809660D01*
X138424591Y-84575938D01*
X138532162Y-84316241D01*
X138587000Y-84040547D01*
X138587000Y-83759453D01*
X138584997Y-83749383D01*
X165580465Y-83749383D01*
X165592571Y-83872296D01*
X165628423Y-83990486D01*
X166202448Y-85376305D01*
X166260670Y-85485230D01*
X166339022Y-85580703D01*
X166434495Y-85659055D01*
X166543420Y-85717277D01*
X166661610Y-85753129D01*
X166784523Y-85765235D01*
X166907436Y-85753129D01*
X167025626Y-85717277D01*
X167032535Y-85714415D01*
X166942154Y-85849680D01*
X166838353Y-86100278D01*
X166785436Y-86366311D01*
X166785436Y-86637557D01*
X166838353Y-86903590D01*
X166942154Y-87154188D01*
X167092850Y-87379721D01*
X167284649Y-87571520D01*
X167510182Y-87722216D01*
X167760780Y-87826017D01*
X168026813Y-87878934D01*
X168136812Y-87878934D01*
X168061001Y-87954745D01*
X168065699Y-87959443D01*
X168019141Y-88016175D01*
X168050013Y-88261935D01*
X168593177Y-88486921D01*
X168940703Y-88834447D01*
X168995294Y-88779856D01*
X169300385Y-88779856D01*
X170316092Y-89200576D01*
X170511701Y-89048627D01*
X170524264Y-88776096D01*
X170483417Y-88506350D01*
X170390729Y-88249756D01*
X170249764Y-88016175D01*
X170065938Y-87814583D01*
X169966865Y-87733277D01*
X169721105Y-87764149D01*
X169300385Y-88779856D01*
X168995294Y-88779856D01*
X169120311Y-88654839D01*
X169089856Y-88624384D01*
X169486440Y-87666948D01*
X169348562Y-87489453D01*
X172563000Y-87489453D01*
X172563000Y-87770547D01*
X172617838Y-88046241D01*
X172725409Y-88305938D01*
X172881576Y-88539660D01*
X173080340Y-88738424D01*
X173314062Y-88894591D01*
X173573759Y-89002162D01*
X173849453Y-89057000D01*
X174130547Y-89057000D01*
X174406241Y-89002162D01*
X174665938Y-88894591D01*
X174899660Y-88738424D01*
X175098424Y-88539660D01*
X175254591Y-88305938D01*
X175362162Y-88046241D01*
X175417000Y-87770547D01*
X175417000Y-87630000D01*
X182716096Y-87630000D01*
X182743648Y-87909741D01*
X182825245Y-88178731D01*
X182957752Y-88426634D01*
X183136077Y-88643923D01*
X183353366Y-88822248D01*
X183601269Y-88954755D01*
X183870259Y-89036352D01*
X184079902Y-89057000D01*
X184220098Y-89057000D01*
X184429741Y-89036352D01*
X184698731Y-88954755D01*
X184946634Y-88822248D01*
X185163923Y-88643923D01*
X185342248Y-88426634D01*
X185474755Y-88178731D01*
X185556352Y-87909741D01*
X185583904Y-87630000D01*
X185556352Y-87350259D01*
X185490600Y-87133505D01*
X185581576Y-87269660D01*
X185780340Y-87468424D01*
X186014062Y-87624591D01*
X186273759Y-87732162D01*
X186549453Y-87787000D01*
X186830547Y-87787000D01*
X187106241Y-87732162D01*
X187365938Y-87624591D01*
X187599660Y-87468424D01*
X187798424Y-87269660D01*
X187954591Y-87035938D01*
X188062162Y-86776241D01*
X188117000Y-86500547D01*
X188117000Y-86219453D01*
X188062162Y-85943759D01*
X187954591Y-85684062D01*
X187798424Y-85450340D01*
X187599660Y-85251576D01*
X187365938Y-85095409D01*
X187106241Y-84987838D01*
X186830547Y-84933000D01*
X186549453Y-84933000D01*
X186273759Y-84987838D01*
X186014062Y-85095409D01*
X185780340Y-85251576D01*
X185581576Y-85450340D01*
X185425409Y-85684062D01*
X185317838Y-85943759D01*
X185263000Y-86219453D01*
X185263000Y-86500547D01*
X185317838Y-86776241D01*
X185340738Y-86831526D01*
X185163923Y-86616077D01*
X184946634Y-86437752D01*
X184698731Y-86305245D01*
X184429741Y-86223648D01*
X184220098Y-86203000D01*
X184079902Y-86203000D01*
X183870259Y-86223648D01*
X183601269Y-86305245D01*
X183353366Y-86437752D01*
X183136077Y-86616077D01*
X182957752Y-86833366D01*
X182825245Y-87081269D01*
X182743648Y-87350259D01*
X182716096Y-87630000D01*
X175417000Y-87630000D01*
X175417000Y-87489453D01*
X175362162Y-87213759D01*
X175254591Y-86954062D01*
X175098424Y-86720340D01*
X174899660Y-86521576D01*
X174665938Y-86365409D01*
X174406241Y-86257838D01*
X174130547Y-86203000D01*
X173849453Y-86203000D01*
X173573759Y-86257838D01*
X173314062Y-86365409D01*
X173080340Y-86521576D01*
X172881576Y-86720340D01*
X172725409Y-86954062D01*
X172617838Y-87213759D01*
X172563000Y-87489453D01*
X169348562Y-87489453D01*
X169334491Y-87471339D01*
X169148957Y-87462786D01*
X169232022Y-87379721D01*
X169382718Y-87154188D01*
X169486519Y-86903590D01*
X169539436Y-86637557D01*
X169539436Y-86366311D01*
X169486519Y-86100278D01*
X169382718Y-85849680D01*
X169232022Y-85624147D01*
X169040223Y-85432348D01*
X168814690Y-85281652D01*
X168564092Y-85177851D01*
X168404537Y-85146114D01*
X168411445Y-85143252D01*
X168520370Y-85085030D01*
X168615843Y-85006678D01*
X168694195Y-84911205D01*
X168752417Y-84802280D01*
X168788269Y-84684090D01*
X168800375Y-84561177D01*
X168788269Y-84438264D01*
X168752417Y-84320074D01*
X168178392Y-82934255D01*
X168120170Y-82825330D01*
X168041818Y-82729857D01*
X167946345Y-82651505D01*
X167837420Y-82593283D01*
X167719230Y-82557431D01*
X167596317Y-82545325D01*
X167473404Y-82557431D01*
X167355214Y-82593283D01*
X165969395Y-83167308D01*
X165860470Y-83225530D01*
X165764997Y-83303882D01*
X165686645Y-83399355D01*
X165628423Y-83508280D01*
X165592571Y-83626470D01*
X165580465Y-83749383D01*
X138584997Y-83749383D01*
X138532162Y-83483759D01*
X138424591Y-83224062D01*
X138268424Y-82990340D01*
X138069660Y-82791576D01*
X137835938Y-82635409D01*
X137576241Y-82527838D01*
X137300547Y-82473000D01*
X137019453Y-82473000D01*
X136743759Y-82527838D01*
X136484062Y-82635409D01*
X136250340Y-82791576D01*
X136051576Y-82990340D01*
X135895409Y-83224062D01*
X135787838Y-83483759D01*
X135733000Y-83759453D01*
X128916050Y-83759453D01*
X128916050Y-81487777D01*
X147538845Y-81487777D01*
X147550951Y-81610690D01*
X147586803Y-81728880D01*
X147645025Y-81837805D01*
X147723377Y-81933278D01*
X147818850Y-82011630D01*
X147927775Y-82069852D01*
X149313594Y-82643877D01*
X149431784Y-82679729D01*
X149554697Y-82691835D01*
X149677610Y-82679729D01*
X149795800Y-82643877D01*
X149904725Y-82585655D01*
X150000198Y-82507303D01*
X150078550Y-82411830D01*
X150136772Y-82302905D01*
X150560473Y-81280000D01*
X154776096Y-81280000D01*
X154803648Y-81559741D01*
X154885245Y-81828731D01*
X155017752Y-82076634D01*
X155196077Y-82293923D01*
X155413366Y-82472248D01*
X155661269Y-82604755D01*
X155930259Y-82686352D01*
X156139902Y-82707000D01*
X156280098Y-82707000D01*
X156489741Y-82686352D01*
X156758731Y-82604755D01*
X157006634Y-82472248D01*
X157223923Y-82293923D01*
X157402248Y-82076634D01*
X157534755Y-81828731D01*
X157616352Y-81559741D01*
X157643904Y-81280000D01*
X159856096Y-81280000D01*
X159883648Y-81559741D01*
X159965245Y-81828731D01*
X160097752Y-82076634D01*
X160276077Y-82293923D01*
X160493366Y-82472248D01*
X160741269Y-82604755D01*
X161010259Y-82686352D01*
X161219902Y-82707000D01*
X161360098Y-82707000D01*
X161569741Y-82686352D01*
X161838731Y-82604755D01*
X162086634Y-82472248D01*
X162303923Y-82293923D01*
X162482248Y-82076634D01*
X162560123Y-81930940D01*
X190125388Y-81930940D01*
X190137648Y-82055422D01*
X190173958Y-82175120D01*
X190232923Y-82285434D01*
X190312275Y-82382125D01*
X190408966Y-82461477D01*
X190519280Y-82520442D01*
X190638978Y-82556752D01*
X190763460Y-82569012D01*
X191227710Y-82565940D01*
X191386460Y-82407190D01*
X191386460Y-81307940D01*
X191640460Y-81307940D01*
X191640460Y-82407190D01*
X191799210Y-82565940D01*
X192263460Y-82569012D01*
X192387942Y-82556752D01*
X192507640Y-82520442D01*
X192617954Y-82461477D01*
X192714645Y-82382125D01*
X192793997Y-82285434D01*
X192852962Y-82175120D01*
X192889272Y-82055422D01*
X192901532Y-81930940D01*
X192898460Y-81466690D01*
X192739710Y-81307940D01*
X191640460Y-81307940D01*
X191386460Y-81307940D01*
X190287210Y-81307940D01*
X190128460Y-81466690D01*
X190125388Y-81930940D01*
X162560123Y-81930940D01*
X162614755Y-81828731D01*
X162696352Y-81559741D01*
X162723904Y-81280000D01*
X162696352Y-81000259D01*
X162614755Y-80731269D01*
X162482248Y-80483366D01*
X162439223Y-80430940D01*
X190125388Y-80430940D01*
X190128460Y-80895190D01*
X190287210Y-81053940D01*
X191386460Y-81053940D01*
X191386460Y-79954690D01*
X191640460Y-79954690D01*
X191640460Y-81053940D01*
X192739710Y-81053940D01*
X192898460Y-80895190D01*
X192901532Y-80430940D01*
X192889272Y-80306458D01*
X192852962Y-80186760D01*
X192793997Y-80076446D01*
X192714645Y-79979755D01*
X192617954Y-79900403D01*
X192507640Y-79841438D01*
X192387942Y-79805128D01*
X192263460Y-79792868D01*
X191799210Y-79795940D01*
X191640460Y-79954690D01*
X191386460Y-79954690D01*
X191227710Y-79795940D01*
X190763460Y-79792868D01*
X190638978Y-79805128D01*
X190519280Y-79841438D01*
X190408966Y-79900403D01*
X190312275Y-79979755D01*
X190232923Y-80076446D01*
X190173958Y-80186760D01*
X190137648Y-80306458D01*
X190125388Y-80430940D01*
X162439223Y-80430940D01*
X162303923Y-80266077D01*
X162086634Y-80087752D01*
X161838731Y-79955245D01*
X161569741Y-79873648D01*
X161360098Y-79853000D01*
X161219902Y-79853000D01*
X161010259Y-79873648D01*
X160741269Y-79955245D01*
X160493366Y-80087752D01*
X160276077Y-80266077D01*
X160097752Y-80483366D01*
X159965245Y-80731269D01*
X159883648Y-81000259D01*
X159856096Y-81280000D01*
X157643904Y-81280000D01*
X157616352Y-81000259D01*
X157534755Y-80731269D01*
X157402248Y-80483366D01*
X157223923Y-80266077D01*
X157006634Y-80087752D01*
X156758731Y-79955245D01*
X156489741Y-79873648D01*
X156280098Y-79853000D01*
X156139902Y-79853000D01*
X155930259Y-79873648D01*
X155661269Y-79955245D01*
X155413366Y-80087752D01*
X155196077Y-80266077D01*
X155017752Y-80483366D01*
X154885245Y-80731269D01*
X154803648Y-81000259D01*
X154776096Y-81280000D01*
X150560473Y-81280000D01*
X150710797Y-80917086D01*
X150746649Y-80798896D01*
X150758755Y-80675983D01*
X150746649Y-80553070D01*
X150710797Y-80434880D01*
X150652575Y-80325955D01*
X150574223Y-80230482D01*
X150478750Y-80152130D01*
X150369825Y-80093908D01*
X150362917Y-80091046D01*
X150522472Y-80059309D01*
X150773070Y-79955508D01*
X150998603Y-79804812D01*
X151190402Y-79613013D01*
X151341098Y-79387480D01*
X151444899Y-79136882D01*
X151497816Y-78870849D01*
X151497816Y-78599603D01*
X151444899Y-78333570D01*
X151373135Y-78160315D01*
X177571046Y-78160315D01*
X177571046Y-78433925D01*
X177624424Y-78702276D01*
X177729130Y-78955058D01*
X177881139Y-79182556D01*
X178074610Y-79376027D01*
X178302108Y-79528036D01*
X178554890Y-79632742D01*
X178823241Y-79686120D01*
X179096851Y-79686120D01*
X179365202Y-79632742D01*
X179617984Y-79528036D01*
X179845482Y-79376027D01*
X180038953Y-79182556D01*
X180190962Y-78955058D01*
X180230046Y-78860701D01*
X180269130Y-78955058D01*
X180421139Y-79182556D01*
X180614610Y-79376027D01*
X180842108Y-79528036D01*
X181094890Y-79632742D01*
X181363241Y-79686120D01*
X181636851Y-79686120D01*
X181905202Y-79632742D01*
X182157984Y-79528036D01*
X182385482Y-79376027D01*
X182578953Y-79182556D01*
X182730962Y-78955058D01*
X182770046Y-78860701D01*
X182809130Y-78955058D01*
X182961139Y-79182556D01*
X183154610Y-79376027D01*
X183382108Y-79528036D01*
X183634890Y-79632742D01*
X183903241Y-79686120D01*
X184176851Y-79686120D01*
X184445202Y-79632742D01*
X184697984Y-79528036D01*
X184925482Y-79376027D01*
X185118953Y-79182556D01*
X185270962Y-78955058D01*
X185375668Y-78702276D01*
X185429046Y-78433925D01*
X185429046Y-78160315D01*
X185375668Y-77891964D01*
X185270962Y-77639182D01*
X185118953Y-77411684D01*
X184925482Y-77218213D01*
X184697984Y-77066204D01*
X184445202Y-76961498D01*
X184176851Y-76908120D01*
X183903241Y-76908120D01*
X183634890Y-76961498D01*
X183382108Y-77066204D01*
X183154610Y-77218213D01*
X182961139Y-77411684D01*
X182809130Y-77639182D01*
X182770046Y-77733539D01*
X182730962Y-77639182D01*
X182578953Y-77411684D01*
X182385482Y-77218213D01*
X182157984Y-77066204D01*
X181905202Y-76961498D01*
X181636851Y-76908120D01*
X181363241Y-76908120D01*
X181094890Y-76961498D01*
X180842108Y-77066204D01*
X180614610Y-77218213D01*
X180421139Y-77411684D01*
X180269130Y-77639182D01*
X180230046Y-77733539D01*
X180190962Y-77639182D01*
X180038953Y-77411684D01*
X179845482Y-77218213D01*
X179617984Y-77066204D01*
X179365202Y-76961498D01*
X179096851Y-76908120D01*
X178823241Y-76908120D01*
X178554890Y-76961498D01*
X178302108Y-77066204D01*
X178074610Y-77218213D01*
X177881139Y-77411684D01*
X177729130Y-77639182D01*
X177624424Y-77891964D01*
X177571046Y-78160315D01*
X151373135Y-78160315D01*
X151341098Y-78082972D01*
X151190402Y-77857439D01*
X151098535Y-77765572D01*
X151228455Y-77765572D01*
X151494488Y-77712655D01*
X151745086Y-77608854D01*
X151970619Y-77458158D01*
X152162418Y-77266359D01*
X152313114Y-77040826D01*
X152416915Y-76790228D01*
X152469832Y-76524195D01*
X152469832Y-76252949D01*
X152416915Y-75986916D01*
X152349848Y-75825000D01*
X158639967Y-75825000D01*
X158639967Y-76575000D01*
X158659278Y-76771072D01*
X158716471Y-76959609D01*
X158809346Y-77133366D01*
X158934334Y-77285666D01*
X159086634Y-77410654D01*
X159260391Y-77503529D01*
X159448928Y-77560722D01*
X159645000Y-77580033D01*
X160395000Y-77580033D01*
X160591072Y-77560722D01*
X160779609Y-77503529D01*
X160953366Y-77410654D01*
X161105666Y-77285666D01*
X161230654Y-77133366D01*
X161323529Y-76959609D01*
X161326443Y-76950000D01*
X163711928Y-76950000D01*
X163724188Y-77074482D01*
X163760498Y-77194180D01*
X163819463Y-77304494D01*
X163898815Y-77401185D01*
X163995506Y-77480537D01*
X164105820Y-77539502D01*
X164225518Y-77575812D01*
X164350000Y-77588072D01*
X164814250Y-77585000D01*
X164973000Y-77426250D01*
X164973000Y-76327000D01*
X165227000Y-76327000D01*
X165227000Y-77426250D01*
X165385750Y-77585000D01*
X165850000Y-77588072D01*
X165974482Y-77575812D01*
X166094180Y-77539502D01*
X166204494Y-77480537D01*
X166301185Y-77401185D01*
X166380537Y-77304494D01*
X166439502Y-77194180D01*
X166475812Y-77074482D01*
X166488072Y-76950000D01*
X166485000Y-76485750D01*
X166326250Y-76327000D01*
X165227000Y-76327000D01*
X164973000Y-76327000D01*
X163873750Y-76327000D01*
X163715000Y-76485750D01*
X163711928Y-76950000D01*
X161326443Y-76950000D01*
X161380722Y-76771072D01*
X161400033Y-76575000D01*
X161400033Y-75825000D01*
X161380722Y-75628928D01*
X161326444Y-75450000D01*
X163711928Y-75450000D01*
X163715000Y-75914250D01*
X163873750Y-76073000D01*
X164973000Y-76073000D01*
X164973000Y-74973750D01*
X165227000Y-74973750D01*
X165227000Y-76073000D01*
X166326250Y-76073000D01*
X166485000Y-75914250D01*
X166486246Y-75725940D01*
X190133427Y-75725940D01*
X190133427Y-76475940D01*
X190152738Y-76672012D01*
X190209931Y-76860549D01*
X190302806Y-77034306D01*
X190427794Y-77186606D01*
X190580094Y-77311594D01*
X190753851Y-77404469D01*
X190942388Y-77461662D01*
X191138460Y-77480973D01*
X191505953Y-77480973D01*
X193250416Y-80016686D01*
X193030151Y-83440163D01*
X192560931Y-90353996D01*
X192536004Y-90391301D01*
X192466124Y-90560004D01*
X192430500Y-90739099D01*
X192430500Y-90921701D01*
X192466124Y-91100796D01*
X192536004Y-91269499D01*
X192637452Y-91421328D01*
X192766572Y-91550448D01*
X192918401Y-91651896D01*
X193087104Y-91721776D01*
X193266199Y-91757400D01*
X193448801Y-91757400D01*
X193627896Y-91721776D01*
X193748450Y-91671840D01*
X202777128Y-91671840D01*
X202789388Y-91796322D01*
X202825698Y-91916020D01*
X202884663Y-92026334D01*
X202964015Y-92123025D01*
X203060706Y-92202377D01*
X203171020Y-92261342D01*
X203290718Y-92297652D01*
X203415200Y-92309912D01*
X203879450Y-92306840D01*
X204038200Y-92148090D01*
X204038200Y-91048840D01*
X204292200Y-91048840D01*
X204292200Y-92148090D01*
X204450950Y-92306840D01*
X204915200Y-92309912D01*
X205039682Y-92297652D01*
X205159380Y-92261342D01*
X205269694Y-92202377D01*
X205366385Y-92123025D01*
X205445737Y-92026334D01*
X205504702Y-91916020D01*
X205541012Y-91796322D01*
X205553272Y-91671840D01*
X205550200Y-91207590D01*
X205391450Y-91048840D01*
X204292200Y-91048840D01*
X204038200Y-91048840D01*
X202938950Y-91048840D01*
X202780200Y-91207590D01*
X202777128Y-91671840D01*
X193748450Y-91671840D01*
X193796599Y-91651896D01*
X193948428Y-91550448D01*
X194077548Y-91421328D01*
X194178996Y-91269499D01*
X194248876Y-91100796D01*
X194284500Y-90921701D01*
X194284500Y-90739099D01*
X194248876Y-90560004D01*
X194210965Y-90468479D01*
X194231096Y-90171840D01*
X202777128Y-90171840D01*
X202780200Y-90636090D01*
X202938950Y-90794840D01*
X204038200Y-90794840D01*
X204038200Y-89695590D01*
X204292200Y-89695590D01*
X204292200Y-90794840D01*
X205391450Y-90794840D01*
X205550200Y-90636090D01*
X205553272Y-90171840D01*
X205541012Y-90047358D01*
X205504702Y-89927660D01*
X205445737Y-89817346D01*
X205366385Y-89720655D01*
X205269694Y-89641303D01*
X205159380Y-89582338D01*
X205039682Y-89546028D01*
X204915200Y-89533768D01*
X204450950Y-89536840D01*
X204292200Y-89695590D01*
X204038200Y-89695590D01*
X203879450Y-89536840D01*
X203415200Y-89533768D01*
X203290718Y-89546028D01*
X203171020Y-89582338D01*
X203060706Y-89641303D01*
X202964015Y-89720655D01*
X202884663Y-89817346D01*
X202825698Y-89927660D01*
X202789388Y-90047358D01*
X202777128Y-90171840D01*
X194231096Y-90171840D01*
X194466106Y-86709039D01*
X195458096Y-86709039D01*
X195498754Y-86843087D01*
X195618963Y-87097420D01*
X195786481Y-87323414D01*
X195994869Y-87512385D01*
X196236119Y-87657070D01*
X196500960Y-87751909D01*
X196723000Y-87630624D01*
X196723000Y-86487000D01*
X196977000Y-86487000D01*
X196977000Y-87630624D01*
X197199040Y-87751909D01*
X197463881Y-87657070D01*
X197705131Y-87512385D01*
X197913519Y-87323414D01*
X198081037Y-87097420D01*
X198201246Y-86843087D01*
X198241904Y-86709039D01*
X198119915Y-86487000D01*
X196977000Y-86487000D01*
X196723000Y-86487000D01*
X195580085Y-86487000D01*
X195458096Y-86709039D01*
X194466106Y-86709039D01*
X194513482Y-86010961D01*
X195458096Y-86010961D01*
X195580085Y-86233000D01*
X196723000Y-86233000D01*
X196723000Y-85089376D01*
X196977000Y-85089376D01*
X196977000Y-86233000D01*
X198119915Y-86233000D01*
X198241904Y-86010961D01*
X198201246Y-85876913D01*
X198081037Y-85622580D01*
X197965595Y-85466840D01*
X202785167Y-85466840D01*
X202785167Y-86216840D01*
X202804478Y-86412912D01*
X202861671Y-86601449D01*
X202954546Y-86775206D01*
X203079534Y-86927506D01*
X203231834Y-87052494D01*
X203405591Y-87145369D01*
X203594128Y-87202562D01*
X203790200Y-87221873D01*
X204540200Y-87221873D01*
X204736272Y-87202562D01*
X204924809Y-87145369D01*
X205098566Y-87052494D01*
X205250866Y-86927506D01*
X205375854Y-86775206D01*
X205468729Y-86601449D01*
X205525922Y-86412912D01*
X205545233Y-86216840D01*
X205545233Y-85466840D01*
X205525922Y-85270768D01*
X205468729Y-85082231D01*
X205375854Y-84908474D01*
X205250866Y-84756174D01*
X205098566Y-84631186D01*
X204924809Y-84538311D01*
X204736272Y-84481118D01*
X204540200Y-84461807D01*
X203790200Y-84461807D01*
X203594128Y-84481118D01*
X203405591Y-84538311D01*
X203231834Y-84631186D01*
X203079534Y-84756174D01*
X202954546Y-84908474D01*
X202861671Y-85082231D01*
X202804478Y-85270768D01*
X202785167Y-85466840D01*
X197965595Y-85466840D01*
X197913519Y-85396586D01*
X197705131Y-85207615D01*
X197463881Y-85062930D01*
X197199040Y-84968091D01*
X196977000Y-85089376D01*
X196723000Y-85089376D01*
X196500960Y-84968091D01*
X196236119Y-85062930D01*
X195994869Y-85207615D01*
X195786481Y-85396586D01*
X195618963Y-85622580D01*
X195498754Y-85876913D01*
X195458096Y-86010961D01*
X194513482Y-86010961D01*
X194677789Y-83589960D01*
X194678025Y-83588519D01*
X194680547Y-83549315D01*
X194683192Y-83510347D01*
X194683148Y-83508896D01*
X194918854Y-79845416D01*
X194925024Y-79772680D01*
X194919532Y-79723723D01*
X194917861Y-79674486D01*
X194910472Y-79642965D01*
X194906862Y-79610791D01*
X194891922Y-79563840D01*
X194880679Y-79515881D01*
X194867285Y-79486414D01*
X194857466Y-79455556D01*
X194833649Y-79412414D01*
X194813269Y-79367578D01*
X194770714Y-79308344D01*
X193171065Y-76983129D01*
X199053940Y-76983129D01*
X199053940Y-77530151D01*
X199160658Y-78066661D01*
X199369994Y-78572043D01*
X199673903Y-79026874D01*
X200060706Y-79413677D01*
X200515537Y-79717586D01*
X201020919Y-79926922D01*
X201557429Y-80033640D01*
X202104451Y-80033640D01*
X202640961Y-79926922D01*
X203146343Y-79717586D01*
X203601174Y-79413677D01*
X203987977Y-79026874D01*
X204291886Y-78572043D01*
X204501222Y-78066661D01*
X204607940Y-77530151D01*
X204607940Y-76983129D01*
X204501222Y-76446619D01*
X204291886Y-75941237D01*
X203987977Y-75486406D01*
X203601174Y-75099603D01*
X203146343Y-74795694D01*
X202640961Y-74586358D01*
X202104451Y-74479640D01*
X201557429Y-74479640D01*
X201020919Y-74586358D01*
X200515537Y-74795694D01*
X200060706Y-75099603D01*
X199673903Y-75486406D01*
X199369994Y-75941237D01*
X199160658Y-76446619D01*
X199053940Y-76983129D01*
X193171065Y-76983129D01*
X192884557Y-76566668D01*
X192893493Y-76475940D01*
X192893493Y-75725940D01*
X192874182Y-75529868D01*
X192816989Y-75341331D01*
X192724114Y-75167574D01*
X192599126Y-75015274D01*
X192446826Y-74890286D01*
X192273069Y-74797411D01*
X192084532Y-74740218D01*
X191888460Y-74720907D01*
X191138460Y-74720907D01*
X190942388Y-74740218D01*
X190753851Y-74797411D01*
X190580094Y-74890286D01*
X190427794Y-75015274D01*
X190302806Y-75167574D01*
X190209931Y-75341331D01*
X190152738Y-75529868D01*
X190133427Y-75725940D01*
X166486246Y-75725940D01*
X166488072Y-75450000D01*
X166475812Y-75325518D01*
X166439502Y-75205820D01*
X166380537Y-75095506D01*
X166301185Y-74998815D01*
X166204494Y-74919463D01*
X166094180Y-74860498D01*
X165974482Y-74824188D01*
X165850000Y-74811928D01*
X165385750Y-74815000D01*
X165227000Y-74973750D01*
X164973000Y-74973750D01*
X164814250Y-74815000D01*
X164350000Y-74811928D01*
X164225518Y-74824188D01*
X164105820Y-74860498D01*
X163995506Y-74919463D01*
X163898815Y-74998815D01*
X163819463Y-75095506D01*
X163760498Y-75205820D01*
X163724188Y-75325518D01*
X163711928Y-75450000D01*
X161326444Y-75450000D01*
X161323529Y-75440391D01*
X161230654Y-75266634D01*
X161105666Y-75114334D01*
X160953366Y-74989346D01*
X160779609Y-74896471D01*
X160591072Y-74839278D01*
X160395000Y-74819967D01*
X159645000Y-74819967D01*
X159448928Y-74839278D01*
X159260391Y-74896471D01*
X159086634Y-74989346D01*
X158934334Y-75114334D01*
X158809346Y-75266634D01*
X158716471Y-75440391D01*
X158659278Y-75628928D01*
X158639967Y-75825000D01*
X152349848Y-75825000D01*
X152313114Y-75736318D01*
X152162418Y-75510785D01*
X151970619Y-75318986D01*
X151745086Y-75168290D01*
X151494488Y-75064489D01*
X151228455Y-75011572D01*
X150957209Y-75011572D01*
X150691176Y-75064489D01*
X150440578Y-75168290D01*
X150215045Y-75318986D01*
X150023246Y-75510785D01*
X149872550Y-75736318D01*
X149768749Y-75986916D01*
X149715832Y-76252949D01*
X149715832Y-76524195D01*
X149768749Y-76790228D01*
X149872550Y-77040826D01*
X150023246Y-77266359D01*
X150115113Y-77358226D01*
X149985193Y-77358226D01*
X149719160Y-77411143D01*
X149468562Y-77514944D01*
X149243029Y-77665640D01*
X149051230Y-77857439D01*
X148900534Y-78082972D01*
X148796733Y-78333570D01*
X148743816Y-78599603D01*
X148743816Y-78870849D01*
X148796733Y-79136882D01*
X148900534Y-79387480D01*
X148990915Y-79522745D01*
X148984006Y-79519883D01*
X148865816Y-79484031D01*
X148742903Y-79471925D01*
X148619990Y-79484031D01*
X148501800Y-79519883D01*
X148392875Y-79578105D01*
X148297402Y-79656457D01*
X148219050Y-79751930D01*
X148160828Y-79860855D01*
X147586803Y-81246674D01*
X147550951Y-81364864D01*
X147538845Y-81487777D01*
X128916050Y-81487777D01*
X128916050Y-77166009D01*
X130583160Y-77166009D01*
X130583160Y-77713031D01*
X130689878Y-78249541D01*
X130899214Y-78754923D01*
X131203123Y-79209754D01*
X131589926Y-79596557D01*
X132044757Y-79900466D01*
X132550139Y-80109802D01*
X133086649Y-80216520D01*
X133633671Y-80216520D01*
X134170181Y-80109802D01*
X134675563Y-79900466D01*
X135130394Y-79596557D01*
X135517197Y-79209754D01*
X135821106Y-78754923D01*
X135885503Y-78599453D01*
X140813000Y-78599453D01*
X140813000Y-78880547D01*
X140867838Y-79156241D01*
X140975409Y-79415938D01*
X141131576Y-79649660D01*
X141330340Y-79848424D01*
X141564062Y-80004591D01*
X141823759Y-80112162D01*
X142099453Y-80167000D01*
X142380547Y-80167000D01*
X142656241Y-80112162D01*
X142915938Y-80004591D01*
X143149660Y-79848424D01*
X143348424Y-79649660D01*
X143504591Y-79415938D01*
X143612162Y-79156241D01*
X143667000Y-78880547D01*
X143667000Y-78599453D01*
X143612162Y-78323759D01*
X143504591Y-78064062D01*
X143348424Y-77830340D01*
X143149660Y-77631576D01*
X142915938Y-77475409D01*
X142656241Y-77367838D01*
X142380547Y-77313000D01*
X142099453Y-77313000D01*
X141823759Y-77367838D01*
X141564062Y-77475409D01*
X141330340Y-77631576D01*
X141131576Y-77830340D01*
X140975409Y-78064062D01*
X140867838Y-78323759D01*
X140813000Y-78599453D01*
X135885503Y-78599453D01*
X136030442Y-78249541D01*
X136137160Y-77713031D01*
X136137160Y-77166009D01*
X136030442Y-76629499D01*
X135821106Y-76124117D01*
X135517197Y-75669286D01*
X135130394Y-75282483D01*
X134675563Y-74978574D01*
X134170181Y-74769238D01*
X133633671Y-74662520D01*
X133086649Y-74662520D01*
X132550139Y-74769238D01*
X132044757Y-74978574D01*
X131589926Y-75282483D01*
X131203123Y-75669286D01*
X130899214Y-76124117D01*
X130689878Y-76629499D01*
X130583160Y-77166009D01*
X128916050Y-77166009D01*
X128916050Y-73036050D01*
X206363951Y-73036050D01*
X206363950Y-103493950D01*
X206363950Y-103493950D01*
G37*
X206363950Y-103493950D02*
X128916050Y-103493950D01*
X128916050Y-102592702D01*
X141426903Y-102592702D01*
X141498486Y-102836671D01*
X141753996Y-102957571D01*
X142028184Y-103026300D01*
X142310512Y-103040217D01*
X142590130Y-102998787D01*
X142856292Y-102903603D01*
X142981514Y-102836671D01*
X143053097Y-102592702D01*
X142240000Y-101779605D01*
X141426903Y-102592702D01*
X128916050Y-102592702D01*
X128916050Y-99137009D01*
X130308840Y-99137009D01*
X130308840Y-99684031D01*
X130415558Y-100220541D01*
X130624894Y-100725923D01*
X130928803Y-101180754D01*
X131315606Y-101567557D01*
X131770437Y-101871466D01*
X132275819Y-102080802D01*
X132812329Y-102187520D01*
X133359351Y-102187520D01*
X133895861Y-102080802D01*
X134401243Y-101871466D01*
X134701991Y-101670512D01*
X140799783Y-101670512D01*
X140841213Y-101950130D01*
X140936397Y-102216292D01*
X141003329Y-102341514D01*
X141247298Y-102413097D01*
X142060395Y-101600000D01*
X142419605Y-101600000D01*
X143232702Y-102413097D01*
X143476671Y-102341514D01*
X143597571Y-102086004D01*
X143666300Y-101811816D01*
X143680217Y-101529488D01*
X143649579Y-101322702D01*
X145236903Y-101322702D01*
X145308486Y-101566671D01*
X145563996Y-101687571D01*
X145838184Y-101756300D01*
X146120512Y-101770217D01*
X146400130Y-101728787D01*
X146666292Y-101633603D01*
X146791514Y-101566671D01*
X146863097Y-101322702D01*
X146050000Y-100509605D01*
X145236903Y-101322702D01*
X143649579Y-101322702D01*
X143638787Y-101249870D01*
X143543603Y-100983708D01*
X143476671Y-100858486D01*
X143232702Y-100786903D01*
X142419605Y-101600000D01*
X142060395Y-101600000D01*
X141247298Y-100786903D01*
X141003329Y-100858486D01*
X140882429Y-101113996D01*
X140813700Y-101388184D01*
X140799783Y-101670512D01*
X134701991Y-101670512D01*
X134856074Y-101567557D01*
X135242877Y-101180754D01*
X135546786Y-100725923D01*
X135595922Y-100607298D01*
X141426903Y-100607298D01*
X142240000Y-101420395D01*
X143053097Y-100607298D01*
X142992424Y-100400512D01*
X144609783Y-100400512D01*
X144651213Y-100680130D01*
X144746397Y-100946292D01*
X144813329Y-101071514D01*
X145057298Y-101143097D01*
X145870395Y-100330000D01*
X146229605Y-100330000D01*
X147042702Y-101143097D01*
X147286671Y-101071514D01*
X147407571Y-100816004D01*
X147476300Y-100541816D01*
X147490217Y-100259488D01*
X147479841Y-100189453D01*
X149623000Y-100189453D01*
X149623000Y-100470547D01*
X149677838Y-100746241D01*
X149785409Y-101005938D01*
X149941576Y-101239660D01*
X150140340Y-101438424D01*
X150374062Y-101594591D01*
X150633759Y-101702162D01*
X150909453Y-101757000D01*
X151190547Y-101757000D01*
X151466241Y-101702162D01*
X151725938Y-101594591D01*
X151959660Y-101438424D01*
X152158424Y-101239660D01*
X152314591Y-101005938D01*
X152422162Y-100746241D01*
X152477000Y-100470547D01*
X152477000Y-100189453D01*
X153513000Y-100189453D01*
X153513000Y-100470547D01*
X153567838Y-100746241D01*
X153675409Y-101005938D01*
X153831576Y-101239660D01*
X154030340Y-101438424D01*
X154264062Y-101594591D01*
X154523759Y-101702162D01*
X154799453Y-101757000D01*
X155080547Y-101757000D01*
X155356241Y-101702162D01*
X155615938Y-101594591D01*
X155849660Y-101438424D01*
X156048424Y-101239660D01*
X156204591Y-101005938D01*
X156312162Y-100746241D01*
X156367000Y-100470547D01*
X156367000Y-100330000D01*
X163666096Y-100330000D01*
X163693648Y-100609741D01*
X163775245Y-100878731D01*
X163907752Y-101126634D01*
X164086077Y-101343923D01*
X164303366Y-101522248D01*
X164551269Y-101654755D01*
X164820259Y-101736352D01*
X165029902Y-101757000D01*
X165170098Y-101757000D01*
X165379741Y-101736352D01*
X165648731Y-101654755D01*
X165896634Y-101522248D01*
X166113923Y-101343923D01*
X166292248Y-101126634D01*
X166424755Y-100878731D01*
X166485330Y-100679039D01*
X172598096Y-100679039D01*
X172638754Y-100813087D01*
X172758963Y-101067420D01*
X172926481Y-101293414D01*
X173134869Y-101482385D01*
X173376119Y-101627070D01*
X173640960Y-101721909D01*
X173863000Y-101600624D01*
X173863000Y-100457000D01*
X174117000Y-100457000D01*
X174117000Y-101600624D01*
X174339040Y-101721909D01*
X174603881Y-101627070D01*
X174845131Y-101482385D01*
X175053519Y-101293414D01*
X175221037Y-101067420D01*
X175341246Y-100813087D01*
X175381904Y-100679039D01*
X175259915Y-100457000D01*
X174117000Y-100457000D01*
X173863000Y-100457000D01*
X172720085Y-100457000D01*
X172598096Y-100679039D01*
X166485330Y-100679039D01*
X166506352Y-100609741D01*
X166533904Y-100330000D01*
X166506352Y-100050259D01*
X166485331Y-99980961D01*
X172598096Y-99980961D01*
X172720085Y-100203000D01*
X173863000Y-100203000D01*
X173863000Y-99059376D01*
X174117000Y-99059376D01*
X174117000Y-100203000D01*
X175259915Y-100203000D01*
X175267357Y-100189453D01*
X182723000Y-100189453D01*
X182723000Y-100470547D01*
X182777838Y-100746241D01*
X182885409Y-101005938D01*
X183041576Y-101239660D01*
X183240340Y-101438424D01*
X183474062Y-101594591D01*
X183733759Y-101702162D01*
X184009453Y-101757000D01*
X184290547Y-101757000D01*
X184566241Y-101702162D01*
X184825938Y-101594591D01*
X185059660Y-101438424D01*
X185258424Y-101239660D01*
X185414591Y-101005938D01*
X185522162Y-100746241D01*
X185545123Y-100630805D01*
X189494271Y-100630805D01*
X189521823Y-100910546D01*
X189603420Y-101179536D01*
X189735927Y-101427439D01*
X189914252Y-101644728D01*
X190131541Y-101823053D01*
X190379444Y-101955560D01*
X190648434Y-102037157D01*
X190858077Y-102057805D01*
X190998273Y-102057805D01*
X191207916Y-102037157D01*
X191476906Y-101955560D01*
X191724809Y-101823053D01*
X191942098Y-101644728D01*
X192120423Y-101427439D01*
X192252930Y-101179536D01*
X192334527Y-100910546D01*
X192362079Y-100630805D01*
X192334527Y-100351064D01*
X192252930Y-100082074D01*
X192120423Y-99834171D01*
X191942098Y-99616882D01*
X191724809Y-99438557D01*
X191502797Y-99319889D01*
X199234280Y-99319889D01*
X199234280Y-99866911D01*
X199340998Y-100403421D01*
X199550334Y-100908803D01*
X199854243Y-101363634D01*
X200241046Y-101750437D01*
X200695877Y-102054346D01*
X201201259Y-102263682D01*
X201737769Y-102370400D01*
X202284791Y-102370400D01*
X202821301Y-102263682D01*
X203326683Y-102054346D01*
X203781514Y-101750437D01*
X204168317Y-101363634D01*
X204472226Y-100908803D01*
X204681562Y-100403421D01*
X204788280Y-99866911D01*
X204788280Y-99319889D01*
X204681562Y-98783379D01*
X204472226Y-98277997D01*
X204168317Y-97823166D01*
X203781514Y-97436363D01*
X203326683Y-97132454D01*
X202821301Y-96923118D01*
X202284791Y-96816400D01*
X201737769Y-96816400D01*
X201201259Y-96923118D01*
X200695877Y-97132454D01*
X200241046Y-97436363D01*
X199854243Y-97823166D01*
X199550334Y-98277997D01*
X199340998Y-98783379D01*
X199234280Y-99319889D01*
X191502797Y-99319889D01*
X191476906Y-99306050D01*
X191207916Y-99224453D01*
X190998273Y-99203805D01*
X190858077Y-99203805D01*
X190648434Y-99224453D01*
X190379444Y-99306050D01*
X190131541Y-99438557D01*
X189914252Y-99616882D01*
X189735927Y-99834171D01*
X189603420Y-100082074D01*
X189521823Y-100351064D01*
X189494271Y-100630805D01*
X185545123Y-100630805D01*
X185577000Y-100470547D01*
X185577000Y-100189453D01*
X185522162Y-99913759D01*
X185414591Y-99654062D01*
X185258424Y-99420340D01*
X185059660Y-99221576D01*
X184825938Y-99065409D01*
X184566241Y-98957838D01*
X184290547Y-98903000D01*
X184009453Y-98903000D01*
X183733759Y-98957838D01*
X183474062Y-99065409D01*
X183240340Y-99221576D01*
X183041576Y-99420340D01*
X182885409Y-99654062D01*
X182777838Y-99913759D01*
X182723000Y-100189453D01*
X175267357Y-100189453D01*
X175381904Y-99980961D01*
X175341246Y-99846913D01*
X175221037Y-99592580D01*
X175053519Y-99366586D01*
X174845131Y-99177615D01*
X174603881Y-99032930D01*
X174339040Y-98938091D01*
X174117000Y-99059376D01*
X173863000Y-99059376D01*
X173640960Y-98938091D01*
X173376119Y-99032930D01*
X173134869Y-99177615D01*
X172926481Y-99366586D01*
X172758963Y-99592580D01*
X172638754Y-99846913D01*
X172598096Y-99980961D01*
X166485331Y-99980961D01*
X166424755Y-99781269D01*
X166292248Y-99533366D01*
X166113923Y-99316077D01*
X165896634Y-99137752D01*
X165648731Y-99005245D01*
X165379741Y-98923648D01*
X165170098Y-98903000D01*
X165029902Y-98903000D01*
X164820259Y-98923648D01*
X164551269Y-99005245D01*
X164303366Y-99137752D01*
X164086077Y-99316077D01*
X163907752Y-99533366D01*
X163775245Y-99781269D01*
X163693648Y-100050259D01*
X163666096Y-100330000D01*
X156367000Y-100330000D01*
X156367000Y-100189453D01*
X156312162Y-99913759D01*
X156204591Y-99654062D01*
X156048424Y-99420340D01*
X155849660Y-99221576D01*
X155615938Y-99065409D01*
X155356241Y-98957838D01*
X155080547Y-98903000D01*
X154799453Y-98903000D01*
X154523759Y-98957838D01*
X154264062Y-99065409D01*
X154030340Y-99221576D01*
X153831576Y-99420340D01*
X153675409Y-99654062D01*
X153567838Y-99913759D01*
X153513000Y-100189453D01*
X152477000Y-100189453D01*
X152422162Y-99913759D01*
X152314591Y-99654062D01*
X152158424Y-99420340D01*
X151959660Y-99221576D01*
X151725938Y-99065409D01*
X151466241Y-98957838D01*
X151190547Y-98903000D01*
X150909453Y-98903000D01*
X150633759Y-98957838D01*
X150374062Y-99065409D01*
X150140340Y-99221576D01*
X149941576Y-99420340D01*
X149785409Y-99654062D01*
X149677838Y-99913759D01*
X149623000Y-100189453D01*
X147479841Y-100189453D01*
X147448787Y-99979870D01*
X147353603Y-99713708D01*
X147286671Y-99588486D01*
X147042702Y-99516903D01*
X146229605Y-100330000D01*
X145870395Y-100330000D01*
X145057298Y-99516903D01*
X144813329Y-99588486D01*
X144692429Y-99843996D01*
X144623700Y-100118184D01*
X144609783Y-100400512D01*
X142992424Y-100400512D01*
X142981514Y-100363329D01*
X142726004Y-100242429D01*
X142451816Y-100173700D01*
X142169488Y-100159783D01*
X141889870Y-100201213D01*
X141623708Y-100296397D01*
X141498486Y-100363329D01*
X141426903Y-100607298D01*
X135595922Y-100607298D01*
X135756122Y-100220541D01*
X135862840Y-99684031D01*
X135862840Y-99337298D01*
X145236903Y-99337298D01*
X146050000Y-100150395D01*
X146863097Y-99337298D01*
X146791514Y-99093329D01*
X146536004Y-98972429D01*
X146261816Y-98903700D01*
X145979488Y-98889783D01*
X145699870Y-98931213D01*
X145433708Y-99026397D01*
X145308486Y-99093329D01*
X145236903Y-99337298D01*
X135862840Y-99337298D01*
X135862840Y-99137009D01*
X135756122Y-98600499D01*
X135546786Y-98095117D01*
X135242877Y-97640286D01*
X134856074Y-97253483D01*
X134401243Y-96949574D01*
X133895861Y-96740238D01*
X133359351Y-96633520D01*
X132812329Y-96633520D01*
X132275819Y-96740238D01*
X131770437Y-96949574D01*
X131315606Y-97253483D01*
X130928803Y-97640286D01*
X130624894Y-98095117D01*
X130415558Y-98600499D01*
X130308840Y-99137009D01*
X128916050Y-99137009D01*
X128916050Y-96242702D01*
X145236903Y-96242702D01*
X145308486Y-96486671D01*
X145563996Y-96607571D01*
X145838184Y-96676300D01*
X146120512Y-96690217D01*
X146400130Y-96648787D01*
X146666292Y-96553603D01*
X146791514Y-96486671D01*
X146863097Y-96242702D01*
X146050000Y-95429605D01*
X145236903Y-96242702D01*
X128916050Y-96242702D01*
X128916050Y-95320512D01*
X144609783Y-95320512D01*
X144651213Y-95600130D01*
X144746397Y-95866292D01*
X144813329Y-95991514D01*
X145057298Y-96063097D01*
X145870395Y-95250000D01*
X146229605Y-95250000D01*
X147042702Y-96063097D01*
X147286671Y-95991514D01*
X147407571Y-95736004D01*
X147476300Y-95461816D01*
X147486741Y-95250000D01*
X154776096Y-95250000D01*
X154803648Y-95529741D01*
X154885245Y-95798731D01*
X155017752Y-96046634D01*
X155196077Y-96263923D01*
X155413366Y-96442248D01*
X155661269Y-96574755D01*
X155930259Y-96656352D01*
X156139902Y-96677000D01*
X156280098Y-96677000D01*
X156489741Y-96656352D01*
X156758731Y-96574755D01*
X157006634Y-96442248D01*
X157083149Y-96379453D01*
X166213000Y-96379453D01*
X166213000Y-96660547D01*
X166267838Y-96936241D01*
X166375409Y-97195938D01*
X166531576Y-97429660D01*
X166730340Y-97628424D01*
X166964062Y-97784591D01*
X167223759Y-97892162D01*
X167499453Y-97947000D01*
X167780547Y-97947000D01*
X168056241Y-97892162D01*
X168315938Y-97784591D01*
X168549660Y-97628424D01*
X168748424Y-97429660D01*
X168904591Y-97195938D01*
X169012162Y-96936241D01*
X169067000Y-96660547D01*
X169067000Y-96379453D01*
X169051088Y-96299453D01*
X175103000Y-96299453D01*
X175103000Y-96580547D01*
X175157838Y-96856241D01*
X175265409Y-97115938D01*
X175421576Y-97349660D01*
X175620340Y-97548424D01*
X175854062Y-97704591D01*
X176113759Y-97812162D01*
X176389453Y-97867000D01*
X176670547Y-97867000D01*
X176946241Y-97812162D01*
X177205938Y-97704591D01*
X177439660Y-97548424D01*
X177638424Y-97349660D01*
X177794591Y-97115938D01*
X177902162Y-96856241D01*
X177957000Y-96580547D01*
X177957000Y-96299453D01*
X186533000Y-96299453D01*
X186533000Y-96580547D01*
X186587838Y-96856241D01*
X186695409Y-97115938D01*
X186851576Y-97349660D01*
X187050340Y-97548424D01*
X187284062Y-97704591D01*
X187543759Y-97812162D01*
X187819453Y-97867000D01*
X188100547Y-97867000D01*
X188376241Y-97812162D01*
X188635938Y-97704591D01*
X188869660Y-97548424D01*
X189068424Y-97349660D01*
X189224591Y-97115938D01*
X189332162Y-96856241D01*
X189387000Y-96580547D01*
X189387000Y-96299453D01*
X189332162Y-96023759D01*
X189224591Y-95764062D01*
X189068424Y-95530340D01*
X188869660Y-95331576D01*
X188635938Y-95175409D01*
X188376241Y-95067838D01*
X188100547Y-95013000D01*
X187819453Y-95013000D01*
X187543759Y-95067838D01*
X187284062Y-95175409D01*
X187050340Y-95331576D01*
X186851576Y-95530340D01*
X186695409Y-95764062D01*
X186587838Y-96023759D01*
X186533000Y-96299453D01*
X177957000Y-96299453D01*
X177902162Y-96023759D01*
X177794591Y-95764062D01*
X177638424Y-95530340D01*
X177439660Y-95331576D01*
X177205938Y-95175409D01*
X176946241Y-95067838D01*
X176670547Y-95013000D01*
X176389453Y-95013000D01*
X176113759Y-95067838D01*
X175854062Y-95175409D01*
X175620340Y-95331576D01*
X175421576Y-95530340D01*
X175265409Y-95764062D01*
X175157838Y-96023759D01*
X175103000Y-96299453D01*
X169051088Y-96299453D01*
X169012162Y-96103759D01*
X168904591Y-95844062D01*
X168748424Y-95610340D01*
X168549660Y-95411576D01*
X168315938Y-95255409D01*
X168056241Y-95147838D01*
X167780547Y-95093000D01*
X167499453Y-95093000D01*
X167223759Y-95147838D01*
X166964062Y-95255409D01*
X166730340Y-95411576D01*
X166531576Y-95610340D01*
X166375409Y-95844062D01*
X166267838Y-96103759D01*
X166213000Y-96379453D01*
X157083149Y-96379453D01*
X157223923Y-96263923D01*
X157402248Y-96046634D01*
X157534755Y-95798731D01*
X157616352Y-95529741D01*
X157643904Y-95250000D01*
X157616352Y-94970259D01*
X157534755Y-94701269D01*
X157402248Y-94453366D01*
X157223923Y-94236077D01*
X157006634Y-94057752D01*
X156758731Y-93925245D01*
X156489741Y-93843648D01*
X156280098Y-93823000D01*
X156139902Y-93823000D01*
X155930259Y-93843648D01*
X155661269Y-93925245D01*
X155413366Y-94057752D01*
X155196077Y-94236077D01*
X155017752Y-94453366D01*
X154885245Y-94701269D01*
X154803648Y-94970259D01*
X154776096Y-95250000D01*
X147486741Y-95250000D01*
X147490217Y-95179488D01*
X147448787Y-94899870D01*
X147353603Y-94633708D01*
X147286671Y-94508486D01*
X147042702Y-94436903D01*
X146229605Y-95250000D01*
X145870395Y-95250000D01*
X145057298Y-94436903D01*
X144813329Y-94508486D01*
X144692429Y-94763996D01*
X144623700Y-95038184D01*
X144609783Y-95320512D01*
X128916050Y-95320512D01*
X128916050Y-94257298D01*
X145236903Y-94257298D01*
X146050000Y-95070395D01*
X146863097Y-94257298D01*
X146791514Y-94013329D01*
X146536004Y-93892429D01*
X146261816Y-93823700D01*
X145979488Y-93809783D01*
X145699870Y-93851213D01*
X145433708Y-93946397D01*
X145308486Y-94013329D01*
X145236903Y-94257298D01*
X128916050Y-94257298D01*
X128916050Y-93306053D01*
X196685380Y-93306053D01*
X196685380Y-93587147D01*
X196740218Y-93862841D01*
X196847789Y-94122538D01*
X197003956Y-94356260D01*
X197202720Y-94555024D01*
X197436442Y-94711191D01*
X197696139Y-94818762D01*
X197971833Y-94873600D01*
X198252927Y-94873600D01*
X198528621Y-94818762D01*
X198788318Y-94711191D01*
X199022040Y-94555024D01*
X199220804Y-94356260D01*
X199376971Y-94122538D01*
X199484542Y-93862841D01*
X199539380Y-93587147D01*
X199539380Y-93306053D01*
X199484542Y-93030359D01*
X199376971Y-92770662D01*
X199220804Y-92536940D01*
X199022040Y-92338176D01*
X198788318Y-92182009D01*
X198528621Y-92074438D01*
X198252927Y-92019600D01*
X197971833Y-92019600D01*
X197696139Y-92074438D01*
X197436442Y-92182009D01*
X197202720Y-92338176D01*
X197003956Y-92536940D01*
X196847789Y-92770662D01*
X196740218Y-93030359D01*
X196685380Y-93306053D01*
X128916050Y-93306053D01*
X128916050Y-92190000D01*
X130691928Y-92190000D01*
X130704188Y-92314482D01*
X130740498Y-92434180D01*
X130799463Y-92544494D01*
X130878815Y-92641185D01*
X130975506Y-92720537D01*
X131085820Y-92779502D01*
X131205518Y-92815812D01*
X131330000Y-92828072D01*
X131794250Y-92825000D01*
X131953000Y-92666250D01*
X131953000Y-91567000D01*
X132207000Y-91567000D01*
X132207000Y-92666250D01*
X132365750Y-92825000D01*
X132830000Y-92828072D01*
X132954482Y-92815812D01*
X133074180Y-92779502D01*
X133184494Y-92720537D01*
X133281185Y-92641185D01*
X133360537Y-92544494D01*
X133419502Y-92434180D01*
X133455812Y-92314482D01*
X133468072Y-92190000D01*
X133465000Y-91725750D01*
X133306250Y-91567000D01*
X132207000Y-91567000D01*
X131953000Y-91567000D01*
X130853750Y-91567000D01*
X130695000Y-91725750D01*
X130691928Y-92190000D01*
X128916050Y-92190000D01*
X128916050Y-90690000D01*
X130691928Y-90690000D01*
X130695000Y-91154250D01*
X130853750Y-91313000D01*
X131953000Y-91313000D01*
X131953000Y-90213750D01*
X132207000Y-90213750D01*
X132207000Y-91313000D01*
X133306250Y-91313000D01*
X133465000Y-91154250D01*
X133468072Y-90690000D01*
X133455812Y-90565518D01*
X133419502Y-90445820D01*
X133360537Y-90335506D01*
X133281185Y-90238815D01*
X133184494Y-90159463D01*
X133074180Y-90100498D01*
X132954482Y-90064188D01*
X132830000Y-90051928D01*
X132365750Y-90055000D01*
X132207000Y-90213750D01*
X131953000Y-90213750D01*
X131794250Y-90055000D01*
X131330000Y-90051928D01*
X131205518Y-90064188D01*
X131085820Y-90100498D01*
X130975506Y-90159463D01*
X130878815Y-90238815D01*
X130799463Y-90335506D01*
X130740498Y-90445820D01*
X130704188Y-90565518D01*
X130691928Y-90690000D01*
X128916050Y-90690000D01*
X128916050Y-88759453D01*
X135733000Y-88759453D01*
X135733000Y-89040547D01*
X135787838Y-89316241D01*
X135895409Y-89575938D01*
X136051576Y-89809660D01*
X136250340Y-90008424D01*
X136484062Y-90164591D01*
X136743759Y-90272162D01*
X137019453Y-90327000D01*
X137300547Y-90327000D01*
X137576241Y-90272162D01*
X137835938Y-90164591D01*
X138069660Y-90008424D01*
X138268424Y-89809660D01*
X138424591Y-89575938D01*
X138532162Y-89316241D01*
X138587000Y-89040547D01*
X138587000Y-88900000D01*
X140806096Y-88900000D01*
X140833648Y-89179741D01*
X140915245Y-89448731D01*
X141047752Y-89696634D01*
X141226077Y-89913923D01*
X141443366Y-90092248D01*
X141588830Y-90170000D01*
X141443366Y-90247752D01*
X141226077Y-90426077D01*
X141047752Y-90643366D01*
X140915245Y-90891269D01*
X140833648Y-91160259D01*
X140806096Y-91440000D01*
X140833648Y-91719741D01*
X140915245Y-91988731D01*
X141047752Y-92236634D01*
X141226077Y-92453923D01*
X141443366Y-92632248D01*
X141691269Y-92764755D01*
X141960259Y-92846352D01*
X142169902Y-92867000D01*
X142310098Y-92867000D01*
X142519741Y-92846352D01*
X142788731Y-92764755D01*
X143036634Y-92632248D01*
X143253923Y-92453923D01*
X143432248Y-92236634D01*
X143494131Y-92120859D01*
X150594160Y-92120859D01*
X150594160Y-92303461D01*
X150629784Y-92482556D01*
X150699664Y-92651259D01*
X150801112Y-92803088D01*
X150930232Y-92932208D01*
X151082061Y-93033656D01*
X151250764Y-93103536D01*
X151429859Y-93139160D01*
X151612461Y-93139160D01*
X151791556Y-93103536D01*
X151960259Y-93033656D01*
X152067814Y-92961791D01*
X155208072Y-92456156D01*
X155300340Y-92548424D01*
X155534062Y-92704591D01*
X155793759Y-92812162D01*
X156069453Y-92867000D01*
X156350547Y-92867000D01*
X156626241Y-92812162D01*
X156885938Y-92704591D01*
X157119660Y-92548424D01*
X157318424Y-92349660D01*
X157474591Y-92115938D01*
X157582162Y-91856241D01*
X157637000Y-91580547D01*
X157637000Y-91299453D01*
X159863000Y-91299453D01*
X159863000Y-91580547D01*
X159917838Y-91856241D01*
X160025409Y-92115938D01*
X160181576Y-92349660D01*
X160380340Y-92548424D01*
X160614062Y-92704591D01*
X160873759Y-92812162D01*
X161149453Y-92867000D01*
X161430547Y-92867000D01*
X161706241Y-92812162D01*
X161965938Y-92704591D01*
X162199660Y-92548424D01*
X162398424Y-92349660D01*
X162554591Y-92115938D01*
X162662162Y-91856241D01*
X162717000Y-91580547D01*
X162717000Y-91379453D01*
X166213000Y-91379453D01*
X166213000Y-91660547D01*
X166267838Y-91936241D01*
X166375409Y-92195938D01*
X166531576Y-92429660D01*
X166730340Y-92628424D01*
X166964062Y-92784591D01*
X167223759Y-92892162D01*
X167499453Y-92947000D01*
X167780547Y-92947000D01*
X168056241Y-92892162D01*
X168315938Y-92784591D01*
X168549660Y-92628424D01*
X168748424Y-92429660D01*
X168882830Y-92228506D01*
X168941372Y-92287048D01*
X169093201Y-92388496D01*
X169261904Y-92458376D01*
X169440999Y-92494000D01*
X169623601Y-92494000D01*
X169802696Y-92458376D01*
X169971399Y-92388496D01*
X169987161Y-92377964D01*
X175099967Y-92191540D01*
X175099967Y-92240000D01*
X175112073Y-92362913D01*
X175147925Y-92481103D01*
X175206147Y-92590028D01*
X175284499Y-92685501D01*
X175379972Y-92763853D01*
X175488897Y-92822075D01*
X175607087Y-92857927D01*
X175730000Y-92870033D01*
X177330000Y-92870033D01*
X177452913Y-92857927D01*
X177571103Y-92822075D01*
X177680028Y-92763853D01*
X177775501Y-92685501D01*
X177853853Y-92590028D01*
X177912075Y-92481103D01*
X177947927Y-92362913D01*
X177960033Y-92240000D01*
X177960033Y-92142074D01*
X186529967Y-92170458D01*
X186529967Y-92240000D01*
X186542073Y-92362913D01*
X186577925Y-92481103D01*
X186636147Y-92590028D01*
X186714499Y-92685501D01*
X186809972Y-92763853D01*
X186918897Y-92822075D01*
X187037087Y-92857927D01*
X187160000Y-92870033D01*
X188760000Y-92870033D01*
X188882913Y-92857927D01*
X189001103Y-92822075D01*
X189110028Y-92763853D01*
X189205501Y-92685501D01*
X189283853Y-92590028D01*
X189342075Y-92481103D01*
X189377927Y-92362913D01*
X189390033Y-92240000D01*
X189390033Y-90640000D01*
X189377927Y-90517087D01*
X189342075Y-90398897D01*
X189283853Y-90289972D01*
X189205501Y-90194499D01*
X189110028Y-90116147D01*
X189001103Y-90057925D01*
X188882913Y-90022073D01*
X188760000Y-90009967D01*
X187160000Y-90009967D01*
X187037087Y-90022073D01*
X186918897Y-90057925D01*
X186809972Y-90116147D01*
X186714499Y-90194499D01*
X186636147Y-90289972D01*
X186577925Y-90398897D01*
X186542254Y-90516491D01*
X177939103Y-90487996D01*
X177912075Y-90398897D01*
X177853853Y-90289972D01*
X177775501Y-90194499D01*
X177680028Y-90116147D01*
X177571103Y-90057925D01*
X177452913Y-90022073D01*
X177330000Y-90009967D01*
X175730000Y-90009967D01*
X175607087Y-90022073D01*
X175488897Y-90057925D01*
X175379972Y-90116147D01*
X175284499Y-90194499D01*
X175206147Y-90289972D01*
X175147925Y-90398897D01*
X175112073Y-90517087D01*
X175110203Y-90536069D01*
X169922443Y-90725226D01*
X169802696Y-90675624D01*
X169623601Y-90640000D01*
X169440999Y-90640000D01*
X169261904Y-90675624D01*
X169093201Y-90745504D01*
X168941372Y-90846952D01*
X168916210Y-90872114D01*
X168904591Y-90844062D01*
X168748424Y-90610340D01*
X168549660Y-90411576D01*
X168315938Y-90255409D01*
X168056241Y-90147838D01*
X167780547Y-90093000D01*
X167499453Y-90093000D01*
X167223759Y-90147838D01*
X166964062Y-90255409D01*
X166730340Y-90411576D01*
X166531576Y-90610340D01*
X166375409Y-90844062D01*
X166267838Y-91103759D01*
X166213000Y-91379453D01*
X162717000Y-91379453D01*
X162717000Y-91299453D01*
X162662162Y-91023759D01*
X162554591Y-90764062D01*
X162398424Y-90530340D01*
X162199660Y-90331576D01*
X161965938Y-90175409D01*
X161706241Y-90067838D01*
X161517160Y-90030228D01*
X168782464Y-90030228D01*
X168934413Y-90225837D01*
X169206944Y-90238400D01*
X169476690Y-90197553D01*
X169733284Y-90104865D01*
X169966865Y-89963900D01*
X170168457Y-89780074D01*
X170249763Y-89681001D01*
X170218891Y-89435241D01*
X169203184Y-89014521D01*
X168782464Y-90030228D01*
X161517160Y-90030228D01*
X161430547Y-90013000D01*
X161149453Y-90013000D01*
X160873759Y-90067838D01*
X160614062Y-90175409D01*
X160380340Y-90331576D01*
X160181576Y-90530340D01*
X160025409Y-90764062D01*
X159917838Y-91023759D01*
X159863000Y-91299453D01*
X157637000Y-91299453D01*
X157582162Y-91023759D01*
X157474591Y-90764062D01*
X157318424Y-90530340D01*
X157119660Y-90331576D01*
X156885938Y-90175409D01*
X156626241Y-90067838D01*
X156350547Y-90013000D01*
X156069453Y-90013000D01*
X155793759Y-90067838D01*
X155534062Y-90175409D01*
X155300340Y-90331576D01*
X155101576Y-90530340D01*
X154945409Y-90764062D01*
X154919186Y-90827369D01*
X151809264Y-91328119D01*
X151791556Y-91320784D01*
X151612461Y-91285160D01*
X151429859Y-91285160D01*
X151250764Y-91320784D01*
X151082061Y-91390664D01*
X150930232Y-91492112D01*
X150801112Y-91621232D01*
X150699664Y-91773061D01*
X150629784Y-91941764D01*
X150594160Y-92120859D01*
X143494131Y-92120859D01*
X143564755Y-91988731D01*
X143646352Y-91719741D01*
X143673904Y-91440000D01*
X143646352Y-91160259D01*
X143564755Y-90891269D01*
X143432248Y-90643366D01*
X143253923Y-90426077D01*
X143036634Y-90247752D01*
X142891170Y-90170000D01*
X143036634Y-90092248D01*
X143253923Y-89913923D01*
X143432248Y-89696634D01*
X143564755Y-89448731D01*
X143588637Y-89370000D01*
X147159967Y-89370000D01*
X147159967Y-90970000D01*
X147172073Y-91092913D01*
X147207925Y-91211103D01*
X147266147Y-91320028D01*
X147344499Y-91415501D01*
X147439972Y-91493853D01*
X147548897Y-91552075D01*
X147667087Y-91587927D01*
X147790000Y-91600033D01*
X149390000Y-91600033D01*
X149512913Y-91587927D01*
X149631103Y-91552075D01*
X149740028Y-91493853D01*
X149835501Y-91415501D01*
X149913853Y-91320028D01*
X149972075Y-91211103D01*
X150007927Y-91092913D01*
X150020033Y-90970000D01*
X150020033Y-89370000D01*
X150007927Y-89247087D01*
X149972075Y-89128897D01*
X149913853Y-89019972D01*
X149835501Y-88924499D01*
X149831335Y-88921080D01*
X167744640Y-88921080D01*
X167785487Y-89190826D01*
X167878175Y-89447420D01*
X168019140Y-89681001D01*
X168202966Y-89882593D01*
X168302039Y-89963899D01*
X168547799Y-89933027D01*
X168968519Y-88917320D01*
X167952812Y-88496600D01*
X167757203Y-88648549D01*
X167744640Y-88921080D01*
X149831335Y-88921080D01*
X149740028Y-88846147D01*
X149631103Y-88787925D01*
X149512913Y-88752073D01*
X149390000Y-88739967D01*
X147790000Y-88739967D01*
X147667087Y-88752073D01*
X147548897Y-88787925D01*
X147439972Y-88846147D01*
X147344499Y-88924499D01*
X147266147Y-89019972D01*
X147207925Y-89128897D01*
X147172073Y-89247087D01*
X147159967Y-89370000D01*
X143588637Y-89370000D01*
X143646352Y-89179741D01*
X143673904Y-88900000D01*
X143646352Y-88620259D01*
X143564755Y-88351269D01*
X143432248Y-88103366D01*
X143253923Y-87886077D01*
X143036634Y-87707752D01*
X142952352Y-87662702D01*
X147776903Y-87662702D01*
X147848486Y-87906671D01*
X148103996Y-88027571D01*
X148378184Y-88096300D01*
X148660512Y-88110217D01*
X148940130Y-88068787D01*
X149206292Y-87973603D01*
X149331514Y-87906671D01*
X149403097Y-87662702D01*
X148590000Y-86849605D01*
X147776903Y-87662702D01*
X142952352Y-87662702D01*
X142788731Y-87575245D01*
X142519741Y-87493648D01*
X142310098Y-87473000D01*
X142169902Y-87473000D01*
X141960259Y-87493648D01*
X141691269Y-87575245D01*
X141443366Y-87707752D01*
X141226077Y-87886077D01*
X141047752Y-88103366D01*
X140915245Y-88351269D01*
X140833648Y-88620259D01*
X140806096Y-88900000D01*
X138587000Y-88900000D01*
X138587000Y-88759453D01*
X138532162Y-88483759D01*
X138424591Y-88224062D01*
X138268424Y-87990340D01*
X138069660Y-87791576D01*
X137835938Y-87635409D01*
X137576241Y-87527838D01*
X137300547Y-87473000D01*
X137019453Y-87473000D01*
X136743759Y-87527838D01*
X136484062Y-87635409D01*
X136250340Y-87791576D01*
X136051576Y-87990340D01*
X135895409Y-88224062D01*
X135787838Y-88483759D01*
X135733000Y-88759453D01*
X128916050Y-88759453D01*
X128916050Y-85985000D01*
X130699967Y-85985000D01*
X130699967Y-86735000D01*
X130719278Y-86931072D01*
X130776471Y-87119609D01*
X130869346Y-87293366D01*
X130994334Y-87445666D01*
X131146634Y-87570654D01*
X131320391Y-87663529D01*
X131508928Y-87720722D01*
X131705000Y-87740033D01*
X132455000Y-87740033D01*
X132651072Y-87720722D01*
X132839609Y-87663529D01*
X133013366Y-87570654D01*
X133165666Y-87445666D01*
X133290654Y-87293366D01*
X133383529Y-87119609D01*
X133440722Y-86931072D01*
X133459490Y-86740512D01*
X147149783Y-86740512D01*
X147191213Y-87020130D01*
X147286397Y-87286292D01*
X147353329Y-87411514D01*
X147597298Y-87483097D01*
X148410395Y-86670000D01*
X148769605Y-86670000D01*
X149582702Y-87483097D01*
X149826671Y-87411514D01*
X149947571Y-87156004D01*
X150016300Y-86881816D01*
X150030217Y-86599488D01*
X149988787Y-86319870D01*
X149893603Y-86053708D01*
X149826671Y-85928486D01*
X149582702Y-85856903D01*
X148769605Y-86670000D01*
X148410395Y-86670000D01*
X147597298Y-85856903D01*
X147353329Y-85928486D01*
X147232429Y-86183996D01*
X147163700Y-86458184D01*
X147149783Y-86740512D01*
X133459490Y-86740512D01*
X133460033Y-86735000D01*
X133460033Y-85985000D01*
X133440722Y-85788928D01*
X133406859Y-85677298D01*
X147776903Y-85677298D01*
X148590000Y-86490395D01*
X149403097Y-85677298D01*
X149331514Y-85433329D01*
X149076004Y-85312429D01*
X148801816Y-85243700D01*
X148519488Y-85229783D01*
X148239870Y-85271213D01*
X147973708Y-85366397D01*
X147848486Y-85433329D01*
X147776903Y-85677298D01*
X133406859Y-85677298D01*
X133383529Y-85600391D01*
X133290654Y-85426634D01*
X133165666Y-85274334D01*
X133013366Y-85149346D01*
X132839609Y-85056471D01*
X132651072Y-84999278D01*
X132455000Y-84979967D01*
X131705000Y-84979967D01*
X131508928Y-84999278D01*
X131320391Y-85056471D01*
X131146634Y-85149346D01*
X130994334Y-85274334D01*
X130869346Y-85426634D01*
X130776471Y-85600391D01*
X130719278Y-85788928D01*
X130699967Y-85985000D01*
X128916050Y-85985000D01*
X128916050Y-83759453D01*
X135733000Y-83759453D01*
X135733000Y-84040547D01*
X135787838Y-84316241D01*
X135895409Y-84575938D01*
X136051576Y-84809660D01*
X136250340Y-85008424D01*
X136484062Y-85164591D01*
X136743759Y-85272162D01*
X137019453Y-85327000D01*
X137300547Y-85327000D01*
X137576241Y-85272162D01*
X137835938Y-85164591D01*
X138069660Y-85008424D01*
X138268424Y-84809660D01*
X138424591Y-84575938D01*
X138532162Y-84316241D01*
X138587000Y-84040547D01*
X138587000Y-83759453D01*
X138584997Y-83749383D01*
X165580465Y-83749383D01*
X165592571Y-83872296D01*
X165628423Y-83990486D01*
X166202448Y-85376305D01*
X166260670Y-85485230D01*
X166339022Y-85580703D01*
X166434495Y-85659055D01*
X166543420Y-85717277D01*
X166661610Y-85753129D01*
X166784523Y-85765235D01*
X166907436Y-85753129D01*
X167025626Y-85717277D01*
X167032535Y-85714415D01*
X166942154Y-85849680D01*
X166838353Y-86100278D01*
X166785436Y-86366311D01*
X166785436Y-86637557D01*
X166838353Y-86903590D01*
X166942154Y-87154188D01*
X167092850Y-87379721D01*
X167284649Y-87571520D01*
X167510182Y-87722216D01*
X167760780Y-87826017D01*
X168026813Y-87878934D01*
X168136812Y-87878934D01*
X168061001Y-87954745D01*
X168065699Y-87959443D01*
X168019141Y-88016175D01*
X168050013Y-88261935D01*
X168593177Y-88486921D01*
X168940703Y-88834447D01*
X168995294Y-88779856D01*
X169300385Y-88779856D01*
X170316092Y-89200576D01*
X170511701Y-89048627D01*
X170524264Y-88776096D01*
X170483417Y-88506350D01*
X170390729Y-88249756D01*
X170249764Y-88016175D01*
X170065938Y-87814583D01*
X169966865Y-87733277D01*
X169721105Y-87764149D01*
X169300385Y-88779856D01*
X168995294Y-88779856D01*
X169120311Y-88654839D01*
X169089856Y-88624384D01*
X169486440Y-87666948D01*
X169348562Y-87489453D01*
X172563000Y-87489453D01*
X172563000Y-87770547D01*
X172617838Y-88046241D01*
X172725409Y-88305938D01*
X172881576Y-88539660D01*
X173080340Y-88738424D01*
X173314062Y-88894591D01*
X173573759Y-89002162D01*
X173849453Y-89057000D01*
X174130547Y-89057000D01*
X174406241Y-89002162D01*
X174665938Y-88894591D01*
X174899660Y-88738424D01*
X175098424Y-88539660D01*
X175254591Y-88305938D01*
X175362162Y-88046241D01*
X175417000Y-87770547D01*
X175417000Y-87630000D01*
X182716096Y-87630000D01*
X182743648Y-87909741D01*
X182825245Y-88178731D01*
X182957752Y-88426634D01*
X183136077Y-88643923D01*
X183353366Y-88822248D01*
X183601269Y-88954755D01*
X183870259Y-89036352D01*
X184079902Y-89057000D01*
X184220098Y-89057000D01*
X184429741Y-89036352D01*
X184698731Y-88954755D01*
X184946634Y-88822248D01*
X185163923Y-88643923D01*
X185342248Y-88426634D01*
X185474755Y-88178731D01*
X185556352Y-87909741D01*
X185583904Y-87630000D01*
X185556352Y-87350259D01*
X185490600Y-87133505D01*
X185581576Y-87269660D01*
X185780340Y-87468424D01*
X186014062Y-87624591D01*
X186273759Y-87732162D01*
X186549453Y-87787000D01*
X186830547Y-87787000D01*
X187106241Y-87732162D01*
X187365938Y-87624591D01*
X187599660Y-87468424D01*
X187798424Y-87269660D01*
X187954591Y-87035938D01*
X188062162Y-86776241D01*
X188117000Y-86500547D01*
X188117000Y-86219453D01*
X188062162Y-85943759D01*
X187954591Y-85684062D01*
X187798424Y-85450340D01*
X187599660Y-85251576D01*
X187365938Y-85095409D01*
X187106241Y-84987838D01*
X186830547Y-84933000D01*
X186549453Y-84933000D01*
X186273759Y-84987838D01*
X186014062Y-85095409D01*
X185780340Y-85251576D01*
X185581576Y-85450340D01*
X185425409Y-85684062D01*
X185317838Y-85943759D01*
X185263000Y-86219453D01*
X185263000Y-86500547D01*
X185317838Y-86776241D01*
X185340738Y-86831526D01*
X185163923Y-86616077D01*
X184946634Y-86437752D01*
X184698731Y-86305245D01*
X184429741Y-86223648D01*
X184220098Y-86203000D01*
X184079902Y-86203000D01*
X183870259Y-86223648D01*
X183601269Y-86305245D01*
X183353366Y-86437752D01*
X183136077Y-86616077D01*
X182957752Y-86833366D01*
X182825245Y-87081269D01*
X182743648Y-87350259D01*
X182716096Y-87630000D01*
X175417000Y-87630000D01*
X175417000Y-87489453D01*
X175362162Y-87213759D01*
X175254591Y-86954062D01*
X175098424Y-86720340D01*
X174899660Y-86521576D01*
X174665938Y-86365409D01*
X174406241Y-86257838D01*
X174130547Y-86203000D01*
X173849453Y-86203000D01*
X173573759Y-86257838D01*
X173314062Y-86365409D01*
X173080340Y-86521576D01*
X172881576Y-86720340D01*
X172725409Y-86954062D01*
X172617838Y-87213759D01*
X172563000Y-87489453D01*
X169348562Y-87489453D01*
X169334491Y-87471339D01*
X169148957Y-87462786D01*
X169232022Y-87379721D01*
X169382718Y-87154188D01*
X169486519Y-86903590D01*
X169539436Y-86637557D01*
X169539436Y-86366311D01*
X169486519Y-86100278D01*
X169382718Y-85849680D01*
X169232022Y-85624147D01*
X169040223Y-85432348D01*
X168814690Y-85281652D01*
X168564092Y-85177851D01*
X168404537Y-85146114D01*
X168411445Y-85143252D01*
X168520370Y-85085030D01*
X168615843Y-85006678D01*
X168694195Y-84911205D01*
X168752417Y-84802280D01*
X168788269Y-84684090D01*
X168800375Y-84561177D01*
X168788269Y-84438264D01*
X168752417Y-84320074D01*
X168178392Y-82934255D01*
X168120170Y-82825330D01*
X168041818Y-82729857D01*
X167946345Y-82651505D01*
X167837420Y-82593283D01*
X167719230Y-82557431D01*
X167596317Y-82545325D01*
X167473404Y-82557431D01*
X167355214Y-82593283D01*
X165969395Y-83167308D01*
X165860470Y-83225530D01*
X165764997Y-83303882D01*
X165686645Y-83399355D01*
X165628423Y-83508280D01*
X165592571Y-83626470D01*
X165580465Y-83749383D01*
X138584997Y-83749383D01*
X138532162Y-83483759D01*
X138424591Y-83224062D01*
X138268424Y-82990340D01*
X138069660Y-82791576D01*
X137835938Y-82635409D01*
X137576241Y-82527838D01*
X137300547Y-82473000D01*
X137019453Y-82473000D01*
X136743759Y-82527838D01*
X136484062Y-82635409D01*
X136250340Y-82791576D01*
X136051576Y-82990340D01*
X135895409Y-83224062D01*
X135787838Y-83483759D01*
X135733000Y-83759453D01*
X128916050Y-83759453D01*
X128916050Y-81487777D01*
X147538845Y-81487777D01*
X147550951Y-81610690D01*
X147586803Y-81728880D01*
X147645025Y-81837805D01*
X147723377Y-81933278D01*
X147818850Y-82011630D01*
X147927775Y-82069852D01*
X149313594Y-82643877D01*
X149431784Y-82679729D01*
X149554697Y-82691835D01*
X149677610Y-82679729D01*
X149795800Y-82643877D01*
X149904725Y-82585655D01*
X150000198Y-82507303D01*
X150078550Y-82411830D01*
X150136772Y-82302905D01*
X150560473Y-81280000D01*
X154776096Y-81280000D01*
X154803648Y-81559741D01*
X154885245Y-81828731D01*
X155017752Y-82076634D01*
X155196077Y-82293923D01*
X155413366Y-82472248D01*
X155661269Y-82604755D01*
X155930259Y-82686352D01*
X156139902Y-82707000D01*
X156280098Y-82707000D01*
X156489741Y-82686352D01*
X156758731Y-82604755D01*
X157006634Y-82472248D01*
X157223923Y-82293923D01*
X157402248Y-82076634D01*
X157534755Y-81828731D01*
X157616352Y-81559741D01*
X157643904Y-81280000D01*
X159856096Y-81280000D01*
X159883648Y-81559741D01*
X159965245Y-81828731D01*
X160097752Y-82076634D01*
X160276077Y-82293923D01*
X160493366Y-82472248D01*
X160741269Y-82604755D01*
X161010259Y-82686352D01*
X161219902Y-82707000D01*
X161360098Y-82707000D01*
X161569741Y-82686352D01*
X161838731Y-82604755D01*
X162086634Y-82472248D01*
X162303923Y-82293923D01*
X162482248Y-82076634D01*
X162560123Y-81930940D01*
X190125388Y-81930940D01*
X190137648Y-82055422D01*
X190173958Y-82175120D01*
X190232923Y-82285434D01*
X190312275Y-82382125D01*
X190408966Y-82461477D01*
X190519280Y-82520442D01*
X190638978Y-82556752D01*
X190763460Y-82569012D01*
X191227710Y-82565940D01*
X191386460Y-82407190D01*
X191386460Y-81307940D01*
X191640460Y-81307940D01*
X191640460Y-82407190D01*
X191799210Y-82565940D01*
X192263460Y-82569012D01*
X192387942Y-82556752D01*
X192507640Y-82520442D01*
X192617954Y-82461477D01*
X192714645Y-82382125D01*
X192793997Y-82285434D01*
X192852962Y-82175120D01*
X192889272Y-82055422D01*
X192901532Y-81930940D01*
X192898460Y-81466690D01*
X192739710Y-81307940D01*
X191640460Y-81307940D01*
X191386460Y-81307940D01*
X190287210Y-81307940D01*
X190128460Y-81466690D01*
X190125388Y-81930940D01*
X162560123Y-81930940D01*
X162614755Y-81828731D01*
X162696352Y-81559741D01*
X162723904Y-81280000D01*
X162696352Y-81000259D01*
X162614755Y-80731269D01*
X162482248Y-80483366D01*
X162439223Y-80430940D01*
X190125388Y-80430940D01*
X190128460Y-80895190D01*
X190287210Y-81053940D01*
X191386460Y-81053940D01*
X191386460Y-79954690D01*
X191640460Y-79954690D01*
X191640460Y-81053940D01*
X192739710Y-81053940D01*
X192898460Y-80895190D01*
X192901532Y-80430940D01*
X192889272Y-80306458D01*
X192852962Y-80186760D01*
X192793997Y-80076446D01*
X192714645Y-79979755D01*
X192617954Y-79900403D01*
X192507640Y-79841438D01*
X192387942Y-79805128D01*
X192263460Y-79792868D01*
X191799210Y-79795940D01*
X191640460Y-79954690D01*
X191386460Y-79954690D01*
X191227710Y-79795940D01*
X190763460Y-79792868D01*
X190638978Y-79805128D01*
X190519280Y-79841438D01*
X190408966Y-79900403D01*
X190312275Y-79979755D01*
X190232923Y-80076446D01*
X190173958Y-80186760D01*
X190137648Y-80306458D01*
X190125388Y-80430940D01*
X162439223Y-80430940D01*
X162303923Y-80266077D01*
X162086634Y-80087752D01*
X161838731Y-79955245D01*
X161569741Y-79873648D01*
X161360098Y-79853000D01*
X161219902Y-79853000D01*
X161010259Y-79873648D01*
X160741269Y-79955245D01*
X160493366Y-80087752D01*
X160276077Y-80266077D01*
X160097752Y-80483366D01*
X159965245Y-80731269D01*
X159883648Y-81000259D01*
X159856096Y-81280000D01*
X157643904Y-81280000D01*
X157616352Y-81000259D01*
X157534755Y-80731269D01*
X157402248Y-80483366D01*
X157223923Y-80266077D01*
X157006634Y-80087752D01*
X156758731Y-79955245D01*
X156489741Y-79873648D01*
X156280098Y-79853000D01*
X156139902Y-79853000D01*
X155930259Y-79873648D01*
X155661269Y-79955245D01*
X155413366Y-80087752D01*
X155196077Y-80266077D01*
X155017752Y-80483366D01*
X154885245Y-80731269D01*
X154803648Y-81000259D01*
X154776096Y-81280000D01*
X150560473Y-81280000D01*
X150710797Y-80917086D01*
X150746649Y-80798896D01*
X150758755Y-80675983D01*
X150746649Y-80553070D01*
X150710797Y-80434880D01*
X150652575Y-80325955D01*
X150574223Y-80230482D01*
X150478750Y-80152130D01*
X150369825Y-80093908D01*
X150362917Y-80091046D01*
X150522472Y-80059309D01*
X150773070Y-79955508D01*
X150998603Y-79804812D01*
X151190402Y-79613013D01*
X151341098Y-79387480D01*
X151444899Y-79136882D01*
X151497816Y-78870849D01*
X151497816Y-78599603D01*
X151444899Y-78333570D01*
X151373135Y-78160315D01*
X177571046Y-78160315D01*
X177571046Y-78433925D01*
X177624424Y-78702276D01*
X177729130Y-78955058D01*
X177881139Y-79182556D01*
X178074610Y-79376027D01*
X178302108Y-79528036D01*
X178554890Y-79632742D01*
X178823241Y-79686120D01*
X179096851Y-79686120D01*
X179365202Y-79632742D01*
X179617984Y-79528036D01*
X179845482Y-79376027D01*
X180038953Y-79182556D01*
X180190962Y-78955058D01*
X180230046Y-78860701D01*
X180269130Y-78955058D01*
X180421139Y-79182556D01*
X180614610Y-79376027D01*
X180842108Y-79528036D01*
X181094890Y-79632742D01*
X181363241Y-79686120D01*
X181636851Y-79686120D01*
X181905202Y-79632742D01*
X182157984Y-79528036D01*
X182385482Y-79376027D01*
X182578953Y-79182556D01*
X182730962Y-78955058D01*
X182770046Y-78860701D01*
X182809130Y-78955058D01*
X182961139Y-79182556D01*
X183154610Y-79376027D01*
X183382108Y-79528036D01*
X183634890Y-79632742D01*
X183903241Y-79686120D01*
X184176851Y-79686120D01*
X184445202Y-79632742D01*
X184697984Y-79528036D01*
X184925482Y-79376027D01*
X185118953Y-79182556D01*
X185270962Y-78955058D01*
X185375668Y-78702276D01*
X185429046Y-78433925D01*
X185429046Y-78160315D01*
X185375668Y-77891964D01*
X185270962Y-77639182D01*
X185118953Y-77411684D01*
X184925482Y-77218213D01*
X184697984Y-77066204D01*
X184445202Y-76961498D01*
X184176851Y-76908120D01*
X183903241Y-76908120D01*
X183634890Y-76961498D01*
X183382108Y-77066204D01*
X183154610Y-77218213D01*
X182961139Y-77411684D01*
X182809130Y-77639182D01*
X182770046Y-77733539D01*
X182730962Y-77639182D01*
X182578953Y-77411684D01*
X182385482Y-77218213D01*
X182157984Y-77066204D01*
X181905202Y-76961498D01*
X181636851Y-76908120D01*
X181363241Y-76908120D01*
X181094890Y-76961498D01*
X180842108Y-77066204D01*
X180614610Y-77218213D01*
X180421139Y-77411684D01*
X180269130Y-77639182D01*
X180230046Y-77733539D01*
X180190962Y-77639182D01*
X180038953Y-77411684D01*
X179845482Y-77218213D01*
X179617984Y-77066204D01*
X179365202Y-76961498D01*
X179096851Y-76908120D01*
X178823241Y-76908120D01*
X178554890Y-76961498D01*
X178302108Y-77066204D01*
X178074610Y-77218213D01*
X177881139Y-77411684D01*
X177729130Y-77639182D01*
X177624424Y-77891964D01*
X177571046Y-78160315D01*
X151373135Y-78160315D01*
X151341098Y-78082972D01*
X151190402Y-77857439D01*
X151098535Y-77765572D01*
X151228455Y-77765572D01*
X151494488Y-77712655D01*
X151745086Y-77608854D01*
X151970619Y-77458158D01*
X152162418Y-77266359D01*
X152313114Y-77040826D01*
X152416915Y-76790228D01*
X152469832Y-76524195D01*
X152469832Y-76252949D01*
X152416915Y-75986916D01*
X152349848Y-75825000D01*
X158639967Y-75825000D01*
X158639967Y-76575000D01*
X158659278Y-76771072D01*
X158716471Y-76959609D01*
X158809346Y-77133366D01*
X158934334Y-77285666D01*
X159086634Y-77410654D01*
X159260391Y-77503529D01*
X159448928Y-77560722D01*
X159645000Y-77580033D01*
X160395000Y-77580033D01*
X160591072Y-77560722D01*
X160779609Y-77503529D01*
X160953366Y-77410654D01*
X161105666Y-77285666D01*
X161230654Y-77133366D01*
X161323529Y-76959609D01*
X161326443Y-76950000D01*
X163711928Y-76950000D01*
X163724188Y-77074482D01*
X163760498Y-77194180D01*
X163819463Y-77304494D01*
X163898815Y-77401185D01*
X163995506Y-77480537D01*
X164105820Y-77539502D01*
X164225518Y-77575812D01*
X164350000Y-77588072D01*
X164814250Y-77585000D01*
X164973000Y-77426250D01*
X164973000Y-76327000D01*
X165227000Y-76327000D01*
X165227000Y-77426250D01*
X165385750Y-77585000D01*
X165850000Y-77588072D01*
X165974482Y-77575812D01*
X166094180Y-77539502D01*
X166204494Y-77480537D01*
X166301185Y-77401185D01*
X166380537Y-77304494D01*
X166439502Y-77194180D01*
X166475812Y-77074482D01*
X166488072Y-76950000D01*
X166485000Y-76485750D01*
X166326250Y-76327000D01*
X165227000Y-76327000D01*
X164973000Y-76327000D01*
X163873750Y-76327000D01*
X163715000Y-76485750D01*
X163711928Y-76950000D01*
X161326443Y-76950000D01*
X161380722Y-76771072D01*
X161400033Y-76575000D01*
X161400033Y-75825000D01*
X161380722Y-75628928D01*
X161326444Y-75450000D01*
X163711928Y-75450000D01*
X163715000Y-75914250D01*
X163873750Y-76073000D01*
X164973000Y-76073000D01*
X164973000Y-74973750D01*
X165227000Y-74973750D01*
X165227000Y-76073000D01*
X166326250Y-76073000D01*
X166485000Y-75914250D01*
X166486246Y-75725940D01*
X190133427Y-75725940D01*
X190133427Y-76475940D01*
X190152738Y-76672012D01*
X190209931Y-76860549D01*
X190302806Y-77034306D01*
X190427794Y-77186606D01*
X190580094Y-77311594D01*
X190753851Y-77404469D01*
X190942388Y-77461662D01*
X191138460Y-77480973D01*
X191505953Y-77480973D01*
X193250416Y-80016686D01*
X193030151Y-83440163D01*
X192560931Y-90353996D01*
X192536004Y-90391301D01*
X192466124Y-90560004D01*
X192430500Y-90739099D01*
X192430500Y-90921701D01*
X192466124Y-91100796D01*
X192536004Y-91269499D01*
X192637452Y-91421328D01*
X192766572Y-91550448D01*
X192918401Y-91651896D01*
X193087104Y-91721776D01*
X193266199Y-91757400D01*
X193448801Y-91757400D01*
X193627896Y-91721776D01*
X193748450Y-91671840D01*
X202777128Y-91671840D01*
X202789388Y-91796322D01*
X202825698Y-91916020D01*
X202884663Y-92026334D01*
X202964015Y-92123025D01*
X203060706Y-92202377D01*
X203171020Y-92261342D01*
X203290718Y-92297652D01*
X203415200Y-92309912D01*
X203879450Y-92306840D01*
X204038200Y-92148090D01*
X204038200Y-91048840D01*
X204292200Y-91048840D01*
X204292200Y-92148090D01*
X204450950Y-92306840D01*
X204915200Y-92309912D01*
X205039682Y-92297652D01*
X205159380Y-92261342D01*
X205269694Y-92202377D01*
X205366385Y-92123025D01*
X205445737Y-92026334D01*
X205504702Y-91916020D01*
X205541012Y-91796322D01*
X205553272Y-91671840D01*
X205550200Y-91207590D01*
X205391450Y-91048840D01*
X204292200Y-91048840D01*
X204038200Y-91048840D01*
X202938950Y-91048840D01*
X202780200Y-91207590D01*
X202777128Y-91671840D01*
X193748450Y-91671840D01*
X193796599Y-91651896D01*
X193948428Y-91550448D01*
X194077548Y-91421328D01*
X194178996Y-91269499D01*
X194248876Y-91100796D01*
X194284500Y-90921701D01*
X194284500Y-90739099D01*
X194248876Y-90560004D01*
X194210965Y-90468479D01*
X194231096Y-90171840D01*
X202777128Y-90171840D01*
X202780200Y-90636090D01*
X202938950Y-90794840D01*
X204038200Y-90794840D01*
X204038200Y-89695590D01*
X204292200Y-89695590D01*
X204292200Y-90794840D01*
X205391450Y-90794840D01*
X205550200Y-90636090D01*
X205553272Y-90171840D01*
X205541012Y-90047358D01*
X205504702Y-89927660D01*
X205445737Y-89817346D01*
X205366385Y-89720655D01*
X205269694Y-89641303D01*
X205159380Y-89582338D01*
X205039682Y-89546028D01*
X204915200Y-89533768D01*
X204450950Y-89536840D01*
X204292200Y-89695590D01*
X204038200Y-89695590D01*
X203879450Y-89536840D01*
X203415200Y-89533768D01*
X203290718Y-89546028D01*
X203171020Y-89582338D01*
X203060706Y-89641303D01*
X202964015Y-89720655D01*
X202884663Y-89817346D01*
X202825698Y-89927660D01*
X202789388Y-90047358D01*
X202777128Y-90171840D01*
X194231096Y-90171840D01*
X194466106Y-86709039D01*
X195458096Y-86709039D01*
X195498754Y-86843087D01*
X195618963Y-87097420D01*
X195786481Y-87323414D01*
X195994869Y-87512385D01*
X196236119Y-87657070D01*
X196500960Y-87751909D01*
X196723000Y-87630624D01*
X196723000Y-86487000D01*
X196977000Y-86487000D01*
X196977000Y-87630624D01*
X197199040Y-87751909D01*
X197463881Y-87657070D01*
X197705131Y-87512385D01*
X197913519Y-87323414D01*
X198081037Y-87097420D01*
X198201246Y-86843087D01*
X198241904Y-86709039D01*
X198119915Y-86487000D01*
X196977000Y-86487000D01*
X196723000Y-86487000D01*
X195580085Y-86487000D01*
X195458096Y-86709039D01*
X194466106Y-86709039D01*
X194513482Y-86010961D01*
X195458096Y-86010961D01*
X195580085Y-86233000D01*
X196723000Y-86233000D01*
X196723000Y-85089376D01*
X196977000Y-85089376D01*
X196977000Y-86233000D01*
X198119915Y-86233000D01*
X198241904Y-86010961D01*
X198201246Y-85876913D01*
X198081037Y-85622580D01*
X197965595Y-85466840D01*
X202785167Y-85466840D01*
X202785167Y-86216840D01*
X202804478Y-86412912D01*
X202861671Y-86601449D01*
X202954546Y-86775206D01*
X203079534Y-86927506D01*
X203231834Y-87052494D01*
X203405591Y-87145369D01*
X203594128Y-87202562D01*
X203790200Y-87221873D01*
X204540200Y-87221873D01*
X204736272Y-87202562D01*
X204924809Y-87145369D01*
X205098566Y-87052494D01*
X205250866Y-86927506D01*
X205375854Y-86775206D01*
X205468729Y-86601449D01*
X205525922Y-86412912D01*
X205545233Y-86216840D01*
X205545233Y-85466840D01*
X205525922Y-85270768D01*
X205468729Y-85082231D01*
X205375854Y-84908474D01*
X205250866Y-84756174D01*
X205098566Y-84631186D01*
X204924809Y-84538311D01*
X204736272Y-84481118D01*
X204540200Y-84461807D01*
X203790200Y-84461807D01*
X203594128Y-84481118D01*
X203405591Y-84538311D01*
X203231834Y-84631186D01*
X203079534Y-84756174D01*
X202954546Y-84908474D01*
X202861671Y-85082231D01*
X202804478Y-85270768D01*
X202785167Y-85466840D01*
X197965595Y-85466840D01*
X197913519Y-85396586D01*
X197705131Y-85207615D01*
X197463881Y-85062930D01*
X197199040Y-84968091D01*
X196977000Y-85089376D01*
X196723000Y-85089376D01*
X196500960Y-84968091D01*
X196236119Y-85062930D01*
X195994869Y-85207615D01*
X195786481Y-85396586D01*
X195618963Y-85622580D01*
X195498754Y-85876913D01*
X195458096Y-86010961D01*
X194513482Y-86010961D01*
X194677789Y-83589960D01*
X194678025Y-83588519D01*
X194680547Y-83549315D01*
X194683192Y-83510347D01*
X194683148Y-83508896D01*
X194918854Y-79845416D01*
X194925024Y-79772680D01*
X194919532Y-79723723D01*
X194917861Y-79674486D01*
X194910472Y-79642965D01*
X194906862Y-79610791D01*
X194891922Y-79563840D01*
X194880679Y-79515881D01*
X194867285Y-79486414D01*
X194857466Y-79455556D01*
X194833649Y-79412414D01*
X194813269Y-79367578D01*
X194770714Y-79308344D01*
X193171065Y-76983129D01*
X199053940Y-76983129D01*
X199053940Y-77530151D01*
X199160658Y-78066661D01*
X199369994Y-78572043D01*
X199673903Y-79026874D01*
X200060706Y-79413677D01*
X200515537Y-79717586D01*
X201020919Y-79926922D01*
X201557429Y-80033640D01*
X202104451Y-80033640D01*
X202640961Y-79926922D01*
X203146343Y-79717586D01*
X203601174Y-79413677D01*
X203987977Y-79026874D01*
X204291886Y-78572043D01*
X204501222Y-78066661D01*
X204607940Y-77530151D01*
X204607940Y-76983129D01*
X204501222Y-76446619D01*
X204291886Y-75941237D01*
X203987977Y-75486406D01*
X203601174Y-75099603D01*
X203146343Y-74795694D01*
X202640961Y-74586358D01*
X202104451Y-74479640D01*
X201557429Y-74479640D01*
X201020919Y-74586358D01*
X200515537Y-74795694D01*
X200060706Y-75099603D01*
X199673903Y-75486406D01*
X199369994Y-75941237D01*
X199160658Y-76446619D01*
X199053940Y-76983129D01*
X193171065Y-76983129D01*
X192884557Y-76566668D01*
X192893493Y-76475940D01*
X192893493Y-75725940D01*
X192874182Y-75529868D01*
X192816989Y-75341331D01*
X192724114Y-75167574D01*
X192599126Y-75015274D01*
X192446826Y-74890286D01*
X192273069Y-74797411D01*
X192084532Y-74740218D01*
X191888460Y-74720907D01*
X191138460Y-74720907D01*
X190942388Y-74740218D01*
X190753851Y-74797411D01*
X190580094Y-74890286D01*
X190427794Y-75015274D01*
X190302806Y-75167574D01*
X190209931Y-75341331D01*
X190152738Y-75529868D01*
X190133427Y-75725940D01*
X166486246Y-75725940D01*
X166488072Y-75450000D01*
X166475812Y-75325518D01*
X166439502Y-75205820D01*
X166380537Y-75095506D01*
X166301185Y-74998815D01*
X166204494Y-74919463D01*
X166094180Y-74860498D01*
X165974482Y-74824188D01*
X165850000Y-74811928D01*
X165385750Y-74815000D01*
X165227000Y-74973750D01*
X164973000Y-74973750D01*
X164814250Y-74815000D01*
X164350000Y-74811928D01*
X164225518Y-74824188D01*
X164105820Y-74860498D01*
X163995506Y-74919463D01*
X163898815Y-74998815D01*
X163819463Y-75095506D01*
X163760498Y-75205820D01*
X163724188Y-75325518D01*
X163711928Y-75450000D01*
X161326444Y-75450000D01*
X161323529Y-75440391D01*
X161230654Y-75266634D01*
X161105666Y-75114334D01*
X160953366Y-74989346D01*
X160779609Y-74896471D01*
X160591072Y-74839278D01*
X160395000Y-74819967D01*
X159645000Y-74819967D01*
X159448928Y-74839278D01*
X159260391Y-74896471D01*
X159086634Y-74989346D01*
X158934334Y-75114334D01*
X158809346Y-75266634D01*
X158716471Y-75440391D01*
X158659278Y-75628928D01*
X158639967Y-75825000D01*
X152349848Y-75825000D01*
X152313114Y-75736318D01*
X152162418Y-75510785D01*
X151970619Y-75318986D01*
X151745086Y-75168290D01*
X151494488Y-75064489D01*
X151228455Y-75011572D01*
X150957209Y-75011572D01*
X150691176Y-75064489D01*
X150440578Y-75168290D01*
X150215045Y-75318986D01*
X150023246Y-75510785D01*
X149872550Y-75736318D01*
X149768749Y-75986916D01*
X149715832Y-76252949D01*
X149715832Y-76524195D01*
X149768749Y-76790228D01*
X149872550Y-77040826D01*
X150023246Y-77266359D01*
X150115113Y-77358226D01*
X149985193Y-77358226D01*
X149719160Y-77411143D01*
X149468562Y-77514944D01*
X149243029Y-77665640D01*
X149051230Y-77857439D01*
X148900534Y-78082972D01*
X148796733Y-78333570D01*
X148743816Y-78599603D01*
X148743816Y-78870849D01*
X148796733Y-79136882D01*
X148900534Y-79387480D01*
X148990915Y-79522745D01*
X148984006Y-79519883D01*
X148865816Y-79484031D01*
X148742903Y-79471925D01*
X148619990Y-79484031D01*
X148501800Y-79519883D01*
X148392875Y-79578105D01*
X148297402Y-79656457D01*
X148219050Y-79751930D01*
X148160828Y-79860855D01*
X147586803Y-81246674D01*
X147550951Y-81364864D01*
X147538845Y-81487777D01*
X128916050Y-81487777D01*
X128916050Y-77166009D01*
X130583160Y-77166009D01*
X130583160Y-77713031D01*
X130689878Y-78249541D01*
X130899214Y-78754923D01*
X131203123Y-79209754D01*
X131589926Y-79596557D01*
X132044757Y-79900466D01*
X132550139Y-80109802D01*
X133086649Y-80216520D01*
X133633671Y-80216520D01*
X134170181Y-80109802D01*
X134675563Y-79900466D01*
X135130394Y-79596557D01*
X135517197Y-79209754D01*
X135821106Y-78754923D01*
X135885503Y-78599453D01*
X140813000Y-78599453D01*
X140813000Y-78880547D01*
X140867838Y-79156241D01*
X140975409Y-79415938D01*
X141131576Y-79649660D01*
X141330340Y-79848424D01*
X141564062Y-80004591D01*
X141823759Y-80112162D01*
X142099453Y-80167000D01*
X142380547Y-80167000D01*
X142656241Y-80112162D01*
X142915938Y-80004591D01*
X143149660Y-79848424D01*
X143348424Y-79649660D01*
X143504591Y-79415938D01*
X143612162Y-79156241D01*
X143667000Y-78880547D01*
X143667000Y-78599453D01*
X143612162Y-78323759D01*
X143504591Y-78064062D01*
X143348424Y-77830340D01*
X143149660Y-77631576D01*
X142915938Y-77475409D01*
X142656241Y-77367838D01*
X142380547Y-77313000D01*
X142099453Y-77313000D01*
X141823759Y-77367838D01*
X141564062Y-77475409D01*
X141330340Y-77631576D01*
X141131576Y-77830340D01*
X140975409Y-78064062D01*
X140867838Y-78323759D01*
X140813000Y-78599453D01*
X135885503Y-78599453D01*
X136030442Y-78249541D01*
X136137160Y-77713031D01*
X136137160Y-77166009D01*
X136030442Y-76629499D01*
X135821106Y-76124117D01*
X135517197Y-75669286D01*
X135130394Y-75282483D01*
X134675563Y-74978574D01*
X134170181Y-74769238D01*
X133633671Y-74662520D01*
X133086649Y-74662520D01*
X132550139Y-74769238D01*
X132044757Y-74978574D01*
X131589926Y-75282483D01*
X131203123Y-75669286D01*
X130899214Y-76124117D01*
X130689878Y-76629499D01*
X130583160Y-77166009D01*
X128916050Y-77166009D01*
X128916050Y-73036050D01*
X206363951Y-73036050D01*
X206363950Y-103493950D01*
M02*
