M48
; DRILL file {KiCad (5.1.4)-1} date Sat, 3/27/2021 3:22:14 AM
; FORMAT={-:-/ absolute / inch / decimal}
; #@! TF.CreationDate,2021-03-27T03:22:14-04:00
; #@! TF.GenerationSoftware,Kicad,Pcbnew,(5.1.4)-1
FMAT,2
INCH
T1C0.0118
T2C0.0300
T3C0.0315
T4C0.0394
T5C0.1693
%
G90
G05
T1
X5.9654Y-3.6304
X6.6745Y-3.605
X7.6125Y-3.576
T2
X7.0457Y-3.0826
X7.1457Y-3.0826
X7.2457Y-3.0826
T3
X5.6Y-3.1
X5.6Y-3.5
X7.4Y-3.6
X7.4Y-3.7969
X6.85Y-3.45
X7.25Y-3.45
X7.5169Y-3.9618
X7.7997Y-3.679
X6.85Y-3.95
X7.25Y-3.95
X5.85Y-3.4122
X5.85Y-3.55
X6.1Y-3.95
X6.5Y-3.95
X7.35Y-3.4
X7.75Y-3.4
X6.95Y-3.6
X6.95Y-3.7969
X5.4Y-3.3031
X5.4Y-3.5
X6.35Y-3.2
X6.35Y-3.6
X6.5823Y-3.3132
X6.6206Y-3.4056
X6.6588Y-3.498
X5.75Y-3.95
X5.9469Y-3.95
X6.6Y-3.6031
X6.6Y-3.8
X5.75Y-3.75
X6.15Y-3.75
X5.6Y-3.6
X5.6Y-4.0
X6.15Y-3.2
X6.15Y-3.6
X5.872Y-3.1922
X5.9103Y-3.0998
X5.9485Y-3.0074
T4
X6.3Y-3.0
X6.5Y-3.0
X8.038Y-3.3796
X8.038Y-3.5796
X7.5399Y-2.9961
X7.5399Y-3.1961
X5.2Y-3.4
X5.2Y-3.6
T5
X7.9461Y-3.0416
X5.2396Y-3.9138
X5.2504Y-3.0488
X7.9532Y-3.921
T0
M30
