G04 #@! TF.GenerationSoftware,KiCad,Pcbnew,(5.1.4)-1*
G04 #@! TF.CreationDate,2021-03-27T03:22:11-04:00*
G04 #@! TF.ProjectId,klark amp boards,6b6c6172-6b20-4616-9d70-20626f617264,1*
G04 #@! TF.SameCoordinates,Original*
G04 #@! TF.FileFunction,Soldermask,Top*
G04 #@! TF.FilePolarity,Negative*
%FSLAX46Y46*%
G04 Gerber Fmt 4.6, Leading zero omitted, Abs format (unit mm)*
G04 Created by KiCad (PCBNEW (5.1.4)-1) date 2021-03-27 03:22:11*
%MOMM*%
%LPD*%
G04 APERTURE LIST*
%ADD10C,0.152400*%
G04 APERTURE END LIST*
D10*
G36*
X142370312Y-100810248D02*
G01*
X142473351Y-100830743D01*
X142618942Y-100891049D01*
X142749970Y-100978599D01*
X142861401Y-101090030D01*
X142948951Y-101221058D01*
X143009257Y-101366649D01*
X143040000Y-101521207D01*
X143040000Y-101678793D01*
X143009257Y-101833351D01*
X142948951Y-101978942D01*
X142861401Y-102109970D01*
X142749970Y-102221401D01*
X142618942Y-102308951D01*
X142473351Y-102369257D01*
X142370312Y-102389752D01*
X142318794Y-102400000D01*
X142161206Y-102400000D01*
X142109688Y-102389752D01*
X142006649Y-102369257D01*
X141861058Y-102308951D01*
X141730030Y-102221401D01*
X141618599Y-102109970D01*
X141531049Y-101978942D01*
X141470743Y-101833351D01*
X141440000Y-101678793D01*
X141440000Y-101521207D01*
X141470743Y-101366649D01*
X141531049Y-101221058D01*
X141618599Y-101090030D01*
X141730030Y-100978599D01*
X141861058Y-100891049D01*
X142006649Y-100830743D01*
X142109688Y-100810248D01*
X142161206Y-100800000D01*
X142318794Y-100800000D01*
X142370312Y-100810248D01*
X142370312Y-100810248D01*
G37*
G36*
X202361495Y-97470941D02*
G01*
X202638412Y-97526023D01*
X203029687Y-97688095D01*
X203381825Y-97923386D01*
X203681294Y-98222855D01*
X203916585Y-98574993D01*
X204078657Y-98966268D01*
X204078657Y-98966270D01*
X204161280Y-99381642D01*
X204161280Y-99805158D01*
X204144776Y-99888127D01*
X204078657Y-100220532D01*
X203916585Y-100611807D01*
X203681294Y-100963945D01*
X203381825Y-101263414D01*
X203029687Y-101498705D01*
X202638412Y-101660777D01*
X202361495Y-101715859D01*
X202223038Y-101743400D01*
X201799522Y-101743400D01*
X201661065Y-101715859D01*
X201384148Y-101660777D01*
X200992873Y-101498705D01*
X200640735Y-101263414D01*
X200341266Y-100963945D01*
X200105975Y-100611807D01*
X199943903Y-100220532D01*
X199877784Y-99888127D01*
X199861280Y-99805158D01*
X199861280Y-99381642D01*
X199943903Y-98966270D01*
X199943903Y-98966268D01*
X200105975Y-98574993D01*
X200341266Y-98222855D01*
X200640735Y-97923386D01*
X200992873Y-97688095D01*
X201384148Y-97526023D01*
X201661065Y-97470941D01*
X201799522Y-97443400D01*
X202223038Y-97443400D01*
X202361495Y-97470941D01*
X202361495Y-97470941D01*
G37*
G36*
X133436055Y-97288061D02*
G01*
X133712972Y-97343143D01*
X134104247Y-97505215D01*
X134456385Y-97740506D01*
X134755854Y-98039975D01*
X134991145Y-98392113D01*
X135153217Y-98783388D01*
X135153217Y-98783390D01*
X135235840Y-99198762D01*
X135235840Y-99622278D01*
X135228017Y-99661607D01*
X135153217Y-100037652D01*
X134991145Y-100428927D01*
X134755854Y-100781065D01*
X134456385Y-101080534D01*
X134104247Y-101315825D01*
X133712972Y-101477897D01*
X133495242Y-101521206D01*
X133297598Y-101560520D01*
X132874082Y-101560520D01*
X132676438Y-101521206D01*
X132458708Y-101477897D01*
X132067433Y-101315825D01*
X131715295Y-101080534D01*
X131415826Y-100781065D01*
X131180535Y-100428927D01*
X131018463Y-100037652D01*
X130943663Y-99661607D01*
X130935840Y-99622278D01*
X130935840Y-99198762D01*
X131018463Y-98783390D01*
X131018463Y-98783388D01*
X131180535Y-98392113D01*
X131415826Y-98039975D01*
X131715295Y-97740506D01*
X132067433Y-97505215D01*
X132458708Y-97343143D01*
X132735625Y-97288061D01*
X132874082Y-97260520D01*
X133297598Y-97260520D01*
X133436055Y-97288061D01*
X133436055Y-97288061D01*
G37*
G36*
X191084999Y-99842380D02*
G01*
X191235808Y-99888127D01*
X191374779Y-99962409D01*
X191496597Y-100062383D01*
X191596571Y-100184201D01*
X191670853Y-100323172D01*
X191716600Y-100473981D01*
X191732046Y-100630805D01*
X191716600Y-100787629D01*
X191670853Y-100938438D01*
X191596571Y-101077409D01*
X191496597Y-101199227D01*
X191374779Y-101299201D01*
X191235808Y-101373483D01*
X191084999Y-101419230D01*
X190967474Y-101430805D01*
X190888876Y-101430805D01*
X190771351Y-101419230D01*
X190620542Y-101373483D01*
X190481571Y-101299201D01*
X190359753Y-101199227D01*
X190259779Y-101077409D01*
X190185497Y-100938438D01*
X190139750Y-100787629D01*
X190124304Y-100630805D01*
X190139750Y-100473981D01*
X190185497Y-100323172D01*
X190259779Y-100184201D01*
X190359753Y-100062383D01*
X190481571Y-99962409D01*
X190620542Y-99888127D01*
X190771351Y-99842380D01*
X190888876Y-99830805D01*
X190967474Y-99830805D01*
X191084999Y-99842380D01*
X191084999Y-99842380D01*
G37*
G36*
X165256824Y-99541575D02*
G01*
X165407633Y-99587322D01*
X165546604Y-99661604D01*
X165668422Y-99761578D01*
X165768396Y-99883396D01*
X165842678Y-100022367D01*
X165888425Y-100173176D01*
X165903871Y-100330000D01*
X165888425Y-100486824D01*
X165842678Y-100637633D01*
X165768396Y-100776604D01*
X165668422Y-100898422D01*
X165546604Y-100998396D01*
X165407633Y-101072678D01*
X165256824Y-101118425D01*
X165139299Y-101130000D01*
X165060701Y-101130000D01*
X164943176Y-101118425D01*
X164792367Y-101072678D01*
X164653396Y-100998396D01*
X164531578Y-100898422D01*
X164431604Y-100776604D01*
X164357322Y-100637633D01*
X164311575Y-100486824D01*
X164296129Y-100330000D01*
X164311575Y-100173176D01*
X164357322Y-100022367D01*
X164431604Y-99883396D01*
X164531578Y-99761578D01*
X164653396Y-99661604D01*
X164792367Y-99587322D01*
X164943176Y-99541575D01*
X165060701Y-99530000D01*
X165139299Y-99530000D01*
X165256824Y-99541575D01*
X165256824Y-99541575D01*
G37*
G36*
X174146824Y-99541575D02*
G01*
X174297633Y-99587322D01*
X174436604Y-99661604D01*
X174558422Y-99761578D01*
X174658396Y-99883396D01*
X174732678Y-100022367D01*
X174778425Y-100173176D01*
X174793871Y-100330000D01*
X174778425Y-100486824D01*
X174732678Y-100637633D01*
X174658396Y-100776604D01*
X174558422Y-100898422D01*
X174436604Y-100998396D01*
X174297633Y-101072678D01*
X174146824Y-101118425D01*
X174029299Y-101130000D01*
X173950701Y-101130000D01*
X173833176Y-101118425D01*
X173682367Y-101072678D01*
X173543396Y-100998396D01*
X173421578Y-100898422D01*
X173321604Y-100776604D01*
X173247322Y-100637633D01*
X173201575Y-100486824D01*
X173186129Y-100330000D01*
X173201575Y-100173176D01*
X173247322Y-100022367D01*
X173321604Y-99883396D01*
X173421578Y-99761578D01*
X173543396Y-99661604D01*
X173682367Y-99587322D01*
X173833176Y-99541575D01*
X173950701Y-99530000D01*
X174029299Y-99530000D01*
X174146824Y-99541575D01*
X174146824Y-99541575D01*
G37*
G36*
X184280312Y-99540248D02*
G01*
X184383351Y-99560743D01*
X184528942Y-99621049D01*
X184659970Y-99708599D01*
X184771401Y-99820030D01*
X184858951Y-99951058D01*
X184919257Y-100096649D01*
X184919257Y-100096651D01*
X184943899Y-100220532D01*
X184950000Y-100251207D01*
X184950000Y-100408793D01*
X184919257Y-100563351D01*
X184858951Y-100708942D01*
X184771401Y-100839970D01*
X184659970Y-100951401D01*
X184528942Y-101038951D01*
X184383351Y-101099257D01*
X184286990Y-101118424D01*
X184228794Y-101130000D01*
X184071206Y-101130000D01*
X184013010Y-101118424D01*
X183916649Y-101099257D01*
X183771058Y-101038951D01*
X183640030Y-100951401D01*
X183528599Y-100839970D01*
X183441049Y-100708942D01*
X183380743Y-100563351D01*
X183350000Y-100408793D01*
X183350000Y-100251207D01*
X183356102Y-100220532D01*
X183380743Y-100096651D01*
X183380743Y-100096649D01*
X183441049Y-99951058D01*
X183528599Y-99820030D01*
X183640030Y-99708599D01*
X183771058Y-99621049D01*
X183916649Y-99560743D01*
X184019688Y-99540248D01*
X184071206Y-99530000D01*
X184228794Y-99530000D01*
X184280312Y-99540248D01*
X184280312Y-99540248D01*
G37*
G36*
X155070312Y-99540248D02*
G01*
X155173351Y-99560743D01*
X155318942Y-99621049D01*
X155449970Y-99708599D01*
X155561401Y-99820030D01*
X155648951Y-99951058D01*
X155709257Y-100096649D01*
X155709257Y-100096651D01*
X155733899Y-100220532D01*
X155740000Y-100251207D01*
X155740000Y-100408793D01*
X155709257Y-100563351D01*
X155648951Y-100708942D01*
X155561401Y-100839970D01*
X155449970Y-100951401D01*
X155318942Y-101038951D01*
X155173351Y-101099257D01*
X155076990Y-101118424D01*
X155018794Y-101130000D01*
X154861206Y-101130000D01*
X154803010Y-101118424D01*
X154706649Y-101099257D01*
X154561058Y-101038951D01*
X154430030Y-100951401D01*
X154318599Y-100839970D01*
X154231049Y-100708942D01*
X154170743Y-100563351D01*
X154140000Y-100408793D01*
X154140000Y-100251207D01*
X154146102Y-100220532D01*
X154170743Y-100096651D01*
X154170743Y-100096649D01*
X154231049Y-99951058D01*
X154318599Y-99820030D01*
X154430030Y-99708599D01*
X154561058Y-99621049D01*
X154706649Y-99560743D01*
X154809688Y-99540248D01*
X154861206Y-99530000D01*
X155018794Y-99530000D01*
X155070312Y-99540248D01*
X155070312Y-99540248D01*
G37*
G36*
X151180312Y-99540248D02*
G01*
X151283351Y-99560743D01*
X151428942Y-99621049D01*
X151559970Y-99708599D01*
X151671401Y-99820030D01*
X151758951Y-99951058D01*
X151819257Y-100096649D01*
X151819257Y-100096651D01*
X151843899Y-100220532D01*
X151850000Y-100251207D01*
X151850000Y-100408793D01*
X151819257Y-100563351D01*
X151758951Y-100708942D01*
X151671401Y-100839970D01*
X151559970Y-100951401D01*
X151428942Y-101038951D01*
X151283351Y-101099257D01*
X151186990Y-101118424D01*
X151128794Y-101130000D01*
X150971206Y-101130000D01*
X150913010Y-101118424D01*
X150816649Y-101099257D01*
X150671058Y-101038951D01*
X150540030Y-100951401D01*
X150428599Y-100839970D01*
X150341049Y-100708942D01*
X150280743Y-100563351D01*
X150250000Y-100408793D01*
X150250000Y-100251207D01*
X150256102Y-100220532D01*
X150280743Y-100096651D01*
X150280743Y-100096649D01*
X150341049Y-99951058D01*
X150428599Y-99820030D01*
X150540030Y-99708599D01*
X150671058Y-99621049D01*
X150816649Y-99560743D01*
X150919688Y-99540248D01*
X150971206Y-99530000D01*
X151128794Y-99530000D01*
X151180312Y-99540248D01*
X151180312Y-99540248D01*
G37*
G36*
X146180312Y-99540248D02*
G01*
X146283351Y-99560743D01*
X146428942Y-99621049D01*
X146559970Y-99708599D01*
X146671401Y-99820030D01*
X146758951Y-99951058D01*
X146819257Y-100096649D01*
X146819257Y-100096651D01*
X146843899Y-100220532D01*
X146850000Y-100251207D01*
X146850000Y-100408793D01*
X146819257Y-100563351D01*
X146758951Y-100708942D01*
X146671401Y-100839970D01*
X146559970Y-100951401D01*
X146428942Y-101038951D01*
X146283351Y-101099257D01*
X146186990Y-101118424D01*
X146128794Y-101130000D01*
X145971206Y-101130000D01*
X145913010Y-101118424D01*
X145816649Y-101099257D01*
X145671058Y-101038951D01*
X145540030Y-100951401D01*
X145428599Y-100839970D01*
X145341049Y-100708942D01*
X145280743Y-100563351D01*
X145250000Y-100408793D01*
X145250000Y-100251207D01*
X145256102Y-100220532D01*
X145280743Y-100096651D01*
X145280743Y-100096649D01*
X145341049Y-99951058D01*
X145428599Y-99820030D01*
X145540030Y-99708599D01*
X145671058Y-99621049D01*
X145816649Y-99560743D01*
X145919688Y-99540248D01*
X145971206Y-99530000D01*
X146128794Y-99530000D01*
X146180312Y-99540248D01*
X146180312Y-99540248D01*
G37*
G36*
X167770312Y-95730248D02*
G01*
X167873351Y-95750743D01*
X168018942Y-95811049D01*
X168149970Y-95898599D01*
X168261401Y-96010030D01*
X168348951Y-96141058D01*
X168409257Y-96286649D01*
X168440000Y-96441207D01*
X168440000Y-96598793D01*
X168409257Y-96753351D01*
X168348951Y-96898942D01*
X168261401Y-97029970D01*
X168149970Y-97141401D01*
X168018942Y-97228951D01*
X167873351Y-97289257D01*
X167770312Y-97309752D01*
X167718794Y-97320000D01*
X167561206Y-97320000D01*
X167509688Y-97309752D01*
X167406649Y-97289257D01*
X167261058Y-97228951D01*
X167130030Y-97141401D01*
X167018599Y-97029970D01*
X166931049Y-96898942D01*
X166870743Y-96753351D01*
X166840000Y-96598793D01*
X166840000Y-96441207D01*
X166870743Y-96286649D01*
X166931049Y-96141058D01*
X167018599Y-96010030D01*
X167130030Y-95898599D01*
X167261058Y-95811049D01*
X167406649Y-95750743D01*
X167509688Y-95730248D01*
X167561206Y-95720000D01*
X167718794Y-95720000D01*
X167770312Y-95730248D01*
X167770312Y-95730248D01*
G37*
G36*
X188090312Y-95650248D02*
G01*
X188193351Y-95670743D01*
X188338942Y-95731049D01*
X188469970Y-95818599D01*
X188581401Y-95930030D01*
X188668951Y-96061058D01*
X188729257Y-96206649D01*
X188760000Y-96361207D01*
X188760000Y-96518793D01*
X188729257Y-96673351D01*
X188668951Y-96818942D01*
X188581401Y-96949970D01*
X188469970Y-97061401D01*
X188338942Y-97148951D01*
X188193351Y-97209257D01*
X188094346Y-97228950D01*
X188038794Y-97240000D01*
X187881206Y-97240000D01*
X187825654Y-97228950D01*
X187726649Y-97209257D01*
X187581058Y-97148951D01*
X187450030Y-97061401D01*
X187338599Y-96949970D01*
X187251049Y-96818942D01*
X187190743Y-96673351D01*
X187160000Y-96518793D01*
X187160000Y-96361207D01*
X187190743Y-96206649D01*
X187251049Y-96061058D01*
X187338599Y-95930030D01*
X187450030Y-95818599D01*
X187581058Y-95731049D01*
X187726649Y-95670743D01*
X187829688Y-95650248D01*
X187881206Y-95640000D01*
X188038794Y-95640000D01*
X188090312Y-95650248D01*
X188090312Y-95650248D01*
G37*
G36*
X176660312Y-95650248D02*
G01*
X176763351Y-95670743D01*
X176908942Y-95731049D01*
X177039970Y-95818599D01*
X177151401Y-95930030D01*
X177238951Y-96061058D01*
X177299257Y-96206649D01*
X177330000Y-96361207D01*
X177330000Y-96518793D01*
X177299257Y-96673351D01*
X177238951Y-96818942D01*
X177151401Y-96949970D01*
X177039970Y-97061401D01*
X176908942Y-97148951D01*
X176763351Y-97209257D01*
X176664346Y-97228950D01*
X176608794Y-97240000D01*
X176451206Y-97240000D01*
X176395654Y-97228950D01*
X176296649Y-97209257D01*
X176151058Y-97148951D01*
X176020030Y-97061401D01*
X175908599Y-96949970D01*
X175821049Y-96818942D01*
X175760743Y-96673351D01*
X175730000Y-96518793D01*
X175730000Y-96361207D01*
X175760743Y-96206649D01*
X175821049Y-96061058D01*
X175908599Y-95930030D01*
X176020030Y-95818599D01*
X176151058Y-95731049D01*
X176296649Y-95670743D01*
X176399688Y-95650248D01*
X176451206Y-95640000D01*
X176608794Y-95640000D01*
X176660312Y-95650248D01*
X176660312Y-95650248D01*
G37*
G36*
X146180312Y-94460248D02*
G01*
X146283351Y-94480743D01*
X146428942Y-94541049D01*
X146559970Y-94628599D01*
X146671401Y-94740030D01*
X146758951Y-94871058D01*
X146819257Y-95016649D01*
X146850000Y-95171207D01*
X146850000Y-95328793D01*
X146819257Y-95483351D01*
X146758951Y-95628942D01*
X146671401Y-95759970D01*
X146559970Y-95871401D01*
X146428942Y-95958951D01*
X146283351Y-96019257D01*
X146186990Y-96038424D01*
X146128794Y-96050000D01*
X145971206Y-96050000D01*
X145913010Y-96038424D01*
X145816649Y-96019257D01*
X145671058Y-95958951D01*
X145540030Y-95871401D01*
X145428599Y-95759970D01*
X145341049Y-95628942D01*
X145280743Y-95483351D01*
X145250000Y-95328793D01*
X145250000Y-95171207D01*
X145280743Y-95016649D01*
X145341049Y-94871058D01*
X145428599Y-94740030D01*
X145540030Y-94628599D01*
X145671058Y-94541049D01*
X145816649Y-94480743D01*
X145919688Y-94460248D01*
X145971206Y-94450000D01*
X146128794Y-94450000D01*
X146180312Y-94460248D01*
X146180312Y-94460248D01*
G37*
G36*
X156366824Y-94461575D02*
G01*
X156517633Y-94507322D01*
X156656604Y-94581604D01*
X156778422Y-94681578D01*
X156878396Y-94803396D01*
X156952678Y-94942367D01*
X156998425Y-95093176D01*
X157013871Y-95250000D01*
X156998425Y-95406824D01*
X156952678Y-95557633D01*
X156878396Y-95696604D01*
X156778422Y-95818422D01*
X156656604Y-95918396D01*
X156517633Y-95992678D01*
X156366824Y-96038425D01*
X156249299Y-96050000D01*
X156170701Y-96050000D01*
X156053176Y-96038425D01*
X155902367Y-95992678D01*
X155763396Y-95918396D01*
X155641578Y-95818422D01*
X155541604Y-95696604D01*
X155467322Y-95557633D01*
X155421575Y-95406824D01*
X155406129Y-95250000D01*
X155421575Y-95093176D01*
X155467322Y-94942367D01*
X155541604Y-94803396D01*
X155641578Y-94681578D01*
X155763396Y-94581604D01*
X155902367Y-94507322D01*
X156053176Y-94461575D01*
X156170701Y-94450000D01*
X156249299Y-94450000D01*
X156366824Y-94461575D01*
X156366824Y-94461575D01*
G37*
G36*
X198242692Y-92656848D02*
G01*
X198345731Y-92677343D01*
X198491322Y-92737649D01*
X198622350Y-92825199D01*
X198733781Y-92936630D01*
X198821331Y-93067658D01*
X198881637Y-93213249D01*
X198912380Y-93367807D01*
X198912380Y-93525393D01*
X198881637Y-93679951D01*
X198821331Y-93825542D01*
X198733781Y-93956570D01*
X198622350Y-94068001D01*
X198491322Y-94155551D01*
X198345731Y-94215857D01*
X198242692Y-94236352D01*
X198191174Y-94246600D01*
X198033586Y-94246600D01*
X197982068Y-94236352D01*
X197879029Y-94215857D01*
X197733438Y-94155551D01*
X197602410Y-94068001D01*
X197490979Y-93956570D01*
X197403429Y-93825542D01*
X197343123Y-93679951D01*
X197312380Y-93525393D01*
X197312380Y-93367807D01*
X197343123Y-93213249D01*
X197403429Y-93067658D01*
X197490979Y-92936630D01*
X197602410Y-92825199D01*
X197733438Y-92737649D01*
X197879029Y-92677343D01*
X197982068Y-92656848D01*
X198033586Y-92646600D01*
X198191174Y-92646600D01*
X198242692Y-92656848D01*
X198242692Y-92656848D01*
G37*
G36*
X167770312Y-90730248D02*
G01*
X167873351Y-90750743D01*
X168018942Y-90811049D01*
X168149970Y-90898599D01*
X168261401Y-91010030D01*
X168348951Y-91141058D01*
X168409257Y-91286649D01*
X168409257Y-91286651D01*
X168440000Y-91441206D01*
X168440000Y-91598794D01*
X168431148Y-91643295D01*
X168409257Y-91753351D01*
X168348951Y-91898942D01*
X168261401Y-92029970D01*
X168149970Y-92141401D01*
X168018942Y-92228951D01*
X167873351Y-92289257D01*
X167770312Y-92309752D01*
X167718794Y-92320000D01*
X167561206Y-92320000D01*
X167509688Y-92309752D01*
X167406649Y-92289257D01*
X167261058Y-92228951D01*
X167130030Y-92141401D01*
X167018599Y-92029970D01*
X166931049Y-91898942D01*
X166870743Y-91753351D01*
X166848852Y-91643295D01*
X166840000Y-91598794D01*
X166840000Y-91441206D01*
X166870743Y-91286651D01*
X166870743Y-91286649D01*
X166931049Y-91141058D01*
X167018599Y-91010030D01*
X167130030Y-90898599D01*
X167261058Y-90811049D01*
X167406649Y-90750743D01*
X167509688Y-90730248D01*
X167561206Y-90720000D01*
X167718794Y-90720000D01*
X167770312Y-90730248D01*
X167770312Y-90730248D01*
G37*
G36*
X177330000Y-92240000D02*
G01*
X175730000Y-92240000D01*
X175730000Y-90640000D01*
X177330000Y-90640000D01*
X177330000Y-92240000D01*
X177330000Y-92240000D01*
G37*
G36*
X156340312Y-90650248D02*
G01*
X156443351Y-90670743D01*
X156588942Y-90731049D01*
X156719970Y-90818599D01*
X156831401Y-90930030D01*
X156918951Y-91061058D01*
X156979257Y-91206649D01*
X157010000Y-91361207D01*
X157010000Y-91518793D01*
X156979257Y-91673351D01*
X156918951Y-91818942D01*
X156831401Y-91949970D01*
X156719970Y-92061401D01*
X156588942Y-92148951D01*
X156443351Y-92209257D01*
X156346990Y-92228424D01*
X156288794Y-92240000D01*
X156131206Y-92240000D01*
X156073010Y-92228424D01*
X155976649Y-92209257D01*
X155831058Y-92148951D01*
X155700030Y-92061401D01*
X155588599Y-91949970D01*
X155501049Y-91818942D01*
X155440743Y-91673351D01*
X155410000Y-91518793D01*
X155410000Y-91361207D01*
X155440743Y-91206649D01*
X155501049Y-91061058D01*
X155588599Y-90930030D01*
X155700030Y-90818599D01*
X155831058Y-90731049D01*
X155976649Y-90670743D01*
X156079688Y-90650248D01*
X156131206Y-90640000D01*
X156288794Y-90640000D01*
X156340312Y-90650248D01*
X156340312Y-90650248D01*
G37*
G36*
X142396824Y-90651575D02*
G01*
X142547633Y-90697322D01*
X142686604Y-90771604D01*
X142808422Y-90871578D01*
X142908396Y-90993396D01*
X142982678Y-91132367D01*
X143028425Y-91283176D01*
X143043871Y-91440000D01*
X143028425Y-91596824D01*
X142982678Y-91747633D01*
X142908396Y-91886604D01*
X142808422Y-92008422D01*
X142686604Y-92108396D01*
X142547633Y-92182678D01*
X142396824Y-92228425D01*
X142279299Y-92240000D01*
X142200701Y-92240000D01*
X142083176Y-92228425D01*
X141932367Y-92182678D01*
X141793396Y-92108396D01*
X141671578Y-92008422D01*
X141571604Y-91886604D01*
X141497322Y-91747633D01*
X141451575Y-91596824D01*
X141436129Y-91440000D01*
X141451575Y-91283176D01*
X141497322Y-91132367D01*
X141571604Y-90993396D01*
X141671578Y-90871578D01*
X141793396Y-90771604D01*
X141932367Y-90697322D01*
X142083176Y-90651575D01*
X142200701Y-90640000D01*
X142279299Y-90640000D01*
X142396824Y-90651575D01*
X142396824Y-90651575D01*
G37*
G36*
X161420312Y-90650248D02*
G01*
X161523351Y-90670743D01*
X161668942Y-90731049D01*
X161799970Y-90818599D01*
X161911401Y-90930030D01*
X161998951Y-91061058D01*
X162059257Y-91206649D01*
X162090000Y-91361207D01*
X162090000Y-91518793D01*
X162059257Y-91673351D01*
X161998951Y-91818942D01*
X161911401Y-91949970D01*
X161799970Y-92061401D01*
X161668942Y-92148951D01*
X161523351Y-92209257D01*
X161426990Y-92228424D01*
X161368794Y-92240000D01*
X161211206Y-92240000D01*
X161153010Y-92228424D01*
X161056649Y-92209257D01*
X160911058Y-92148951D01*
X160780030Y-92061401D01*
X160668599Y-91949970D01*
X160581049Y-91818942D01*
X160520743Y-91673351D01*
X160490000Y-91518793D01*
X160490000Y-91361207D01*
X160520743Y-91206649D01*
X160581049Y-91061058D01*
X160668599Y-90930030D01*
X160780030Y-90818599D01*
X160911058Y-90731049D01*
X161056649Y-90670743D01*
X161159688Y-90650248D01*
X161211206Y-90640000D01*
X161368794Y-90640000D01*
X161420312Y-90650248D01*
X161420312Y-90650248D01*
G37*
G36*
X188760000Y-92240000D02*
G01*
X187160000Y-92240000D01*
X187160000Y-90640000D01*
X188760000Y-90640000D01*
X188760000Y-92240000D01*
X188760000Y-92240000D01*
G37*
G36*
X132552251Y-90696914D02*
G01*
X132616915Y-90716530D01*
X132676511Y-90748384D01*
X132728747Y-90791253D01*
X132771616Y-90843489D01*
X132803470Y-90903085D01*
X132823086Y-90967749D01*
X132830000Y-91037947D01*
X132830000Y-91842053D01*
X132823086Y-91912251D01*
X132803470Y-91976915D01*
X132771616Y-92036511D01*
X132728747Y-92088747D01*
X132676511Y-92131616D01*
X132616915Y-92163470D01*
X132552251Y-92183086D01*
X132482053Y-92190000D01*
X131677947Y-92190000D01*
X131607749Y-92183086D01*
X131543085Y-92163470D01*
X131483489Y-92131616D01*
X131431253Y-92088747D01*
X131388384Y-92036511D01*
X131356530Y-91976915D01*
X131336914Y-91912251D01*
X131330000Y-91842053D01*
X131330000Y-91037947D01*
X131336914Y-90967749D01*
X131356530Y-90903085D01*
X131388384Y-90843489D01*
X131431253Y-90791253D01*
X131483489Y-90748384D01*
X131543085Y-90716530D01*
X131607749Y-90696914D01*
X131677947Y-90690000D01*
X132482053Y-90690000D01*
X132552251Y-90696914D01*
X132552251Y-90696914D01*
G37*
G36*
X204637451Y-90178754D02*
G01*
X204702115Y-90198370D01*
X204761711Y-90230224D01*
X204813947Y-90273093D01*
X204856816Y-90325329D01*
X204888670Y-90384925D01*
X204908286Y-90449589D01*
X204915200Y-90519787D01*
X204915200Y-91323893D01*
X204908286Y-91394091D01*
X204888670Y-91458755D01*
X204856816Y-91518351D01*
X204813947Y-91570587D01*
X204761711Y-91613456D01*
X204702115Y-91645310D01*
X204637451Y-91664926D01*
X204567253Y-91671840D01*
X203763147Y-91671840D01*
X203692949Y-91664926D01*
X203628285Y-91645310D01*
X203568689Y-91613456D01*
X203516453Y-91570587D01*
X203473584Y-91518351D01*
X203441730Y-91458755D01*
X203422114Y-91394091D01*
X203415200Y-91323893D01*
X203415200Y-90519787D01*
X203422114Y-90449589D01*
X203441730Y-90384925D01*
X203473584Y-90325329D01*
X203516453Y-90273093D01*
X203568689Y-90230224D01*
X203628285Y-90198370D01*
X203692949Y-90178754D01*
X203763147Y-90171840D01*
X204567253Y-90171840D01*
X204637451Y-90178754D01*
X204637451Y-90178754D01*
G37*
G36*
X149390000Y-90970000D02*
G01*
X147790000Y-90970000D01*
X147790000Y-89370000D01*
X149390000Y-89370000D01*
X149390000Y-90970000D01*
X149390000Y-90970000D01*
G37*
G36*
X137290312Y-88110248D02*
G01*
X137393351Y-88130743D01*
X137538942Y-88191049D01*
X137669970Y-88278599D01*
X137781401Y-88390030D01*
X137868951Y-88521058D01*
X137929257Y-88666649D01*
X137960000Y-88821207D01*
X137960000Y-88978793D01*
X137929257Y-89133351D01*
X137868951Y-89278942D01*
X137781401Y-89409970D01*
X137669970Y-89521401D01*
X137538942Y-89608951D01*
X137393351Y-89669257D01*
X137296990Y-89688424D01*
X137238794Y-89700000D01*
X137081206Y-89700000D01*
X137023010Y-89688424D01*
X136926649Y-89669257D01*
X136781058Y-89608951D01*
X136650030Y-89521401D01*
X136538599Y-89409970D01*
X136451049Y-89278942D01*
X136390743Y-89133351D01*
X136360000Y-88978793D01*
X136360000Y-88821207D01*
X136390743Y-88666649D01*
X136451049Y-88521058D01*
X136538599Y-88390030D01*
X136650030Y-88278599D01*
X136781058Y-88191049D01*
X136926649Y-88130743D01*
X137029688Y-88110248D01*
X137081206Y-88100000D01*
X137238794Y-88100000D01*
X137290312Y-88110248D01*
X137290312Y-88110248D01*
G37*
G36*
X142396824Y-88111575D02*
G01*
X142547633Y-88157322D01*
X142686604Y-88231604D01*
X142808422Y-88331578D01*
X142908396Y-88453396D01*
X142982678Y-88592367D01*
X143028425Y-88743176D01*
X143043871Y-88900000D01*
X143028425Y-89056824D01*
X142982678Y-89207633D01*
X142908396Y-89346604D01*
X142808422Y-89468422D01*
X142686604Y-89568396D01*
X142547633Y-89642678D01*
X142396824Y-89688425D01*
X142279299Y-89700000D01*
X142200701Y-89700000D01*
X142083176Y-89688425D01*
X141932367Y-89642678D01*
X141793396Y-89568396D01*
X141671578Y-89468422D01*
X141571604Y-89346604D01*
X141497322Y-89207633D01*
X141451575Y-89056824D01*
X141436129Y-88900000D01*
X141451575Y-88743176D01*
X141497322Y-88592367D01*
X141571604Y-88453396D01*
X141671578Y-88331578D01*
X141793396Y-88231604D01*
X141932367Y-88157322D01*
X142083176Y-88111575D01*
X142200701Y-88100000D01*
X142279299Y-88100000D01*
X142396824Y-88111575D01*
X142396824Y-88111575D01*
G37*
G36*
X169353219Y-88127410D02*
G01*
X169425432Y-88157322D01*
X169489711Y-88183947D01*
X169561034Y-88231604D01*
X169612549Y-88266025D01*
X169717015Y-88370491D01*
X169717016Y-88370493D01*
X169799093Y-88493329D01*
X169817939Y-88538827D01*
X169855630Y-88629821D01*
X169884452Y-88774719D01*
X169884452Y-88922457D01*
X169855630Y-89067355D01*
X169828294Y-89133349D01*
X169799093Y-89203847D01*
X169796563Y-89207633D01*
X169717015Y-89326685D01*
X169612549Y-89431151D01*
X169571417Y-89458634D01*
X169489711Y-89513229D01*
X169469979Y-89521402D01*
X169353219Y-89569766D01*
X169208321Y-89598588D01*
X169060583Y-89598588D01*
X168915685Y-89569766D01*
X168798925Y-89521402D01*
X168779193Y-89513229D01*
X168697487Y-89458634D01*
X168656355Y-89431151D01*
X168551889Y-89326685D01*
X168472341Y-89207633D01*
X168469811Y-89203847D01*
X168440610Y-89133349D01*
X168413274Y-89067355D01*
X168384452Y-88922457D01*
X168384452Y-88774719D01*
X168413274Y-88629821D01*
X168450965Y-88538827D01*
X168469811Y-88493329D01*
X168551888Y-88370493D01*
X168551889Y-88370491D01*
X168656355Y-88266025D01*
X168707870Y-88231604D01*
X168779193Y-88183947D01*
X168843472Y-88157322D01*
X168915685Y-88127410D01*
X169060583Y-88098588D01*
X169208321Y-88098588D01*
X169353219Y-88127410D01*
X169353219Y-88127410D01*
G37*
G36*
X184306824Y-86841575D02*
G01*
X184457633Y-86887322D01*
X184596604Y-86961604D01*
X184718422Y-87061578D01*
X184818396Y-87183396D01*
X184892678Y-87322367D01*
X184938425Y-87473176D01*
X184953871Y-87630000D01*
X184938425Y-87786824D01*
X184892678Y-87937633D01*
X184818396Y-88076604D01*
X184718422Y-88198422D01*
X184596604Y-88298396D01*
X184457633Y-88372678D01*
X184306824Y-88418425D01*
X184189299Y-88430000D01*
X184110701Y-88430000D01*
X183993176Y-88418425D01*
X183842367Y-88372678D01*
X183703396Y-88298396D01*
X183581578Y-88198422D01*
X183481604Y-88076604D01*
X183407322Y-87937633D01*
X183361575Y-87786824D01*
X183346129Y-87630000D01*
X183361575Y-87473176D01*
X183407322Y-87322367D01*
X183481604Y-87183396D01*
X183581578Y-87061578D01*
X183703396Y-86961604D01*
X183842367Y-86887322D01*
X183993176Y-86841575D01*
X184110701Y-86830000D01*
X184189299Y-86830000D01*
X184306824Y-86841575D01*
X184306824Y-86841575D01*
G37*
G36*
X174120312Y-86840248D02*
G01*
X174223351Y-86860743D01*
X174368942Y-86921049D01*
X174499970Y-87008599D01*
X174611401Y-87120030D01*
X174698951Y-87251058D01*
X174759257Y-87396649D01*
X174790000Y-87551207D01*
X174790000Y-87708793D01*
X174759257Y-87863351D01*
X174698951Y-88008942D01*
X174611401Y-88139970D01*
X174499970Y-88251401D01*
X174368942Y-88338951D01*
X174223351Y-88399257D01*
X174126990Y-88418424D01*
X174068794Y-88430000D01*
X173911206Y-88430000D01*
X173853010Y-88418424D01*
X173756649Y-88399257D01*
X173611058Y-88338951D01*
X173480030Y-88251401D01*
X173368599Y-88139970D01*
X173281049Y-88008942D01*
X173220743Y-87863351D01*
X173190000Y-87708793D01*
X173190000Y-87551207D01*
X173220743Y-87396649D01*
X173281049Y-87251058D01*
X173368599Y-87120030D01*
X173480030Y-87008599D01*
X173611058Y-86921049D01*
X173756649Y-86860743D01*
X173859688Y-86840248D01*
X173911206Y-86830000D01*
X174068794Y-86830000D01*
X174120312Y-86840248D01*
X174120312Y-86840248D01*
G37*
G36*
X148720312Y-85880248D02*
G01*
X148823351Y-85900743D01*
X148968942Y-85961049D01*
X149099970Y-86048599D01*
X149211401Y-86160030D01*
X149298951Y-86291058D01*
X149359257Y-86436649D01*
X149375205Y-86516827D01*
X149390000Y-86591206D01*
X149390000Y-86748794D01*
X149379752Y-86800312D01*
X149359257Y-86903351D01*
X149298951Y-87048942D01*
X149211401Y-87179970D01*
X149099970Y-87291401D01*
X148968942Y-87378951D01*
X148823351Y-87439257D01*
X148720312Y-87459752D01*
X148668794Y-87470000D01*
X148511206Y-87470000D01*
X148459688Y-87459752D01*
X148356649Y-87439257D01*
X148211058Y-87378951D01*
X148080030Y-87291401D01*
X147968599Y-87179970D01*
X147881049Y-87048942D01*
X147820743Y-86903351D01*
X147800248Y-86800312D01*
X147790000Y-86748794D01*
X147790000Y-86591206D01*
X147804795Y-86516827D01*
X147820743Y-86436649D01*
X147881049Y-86291058D01*
X147968599Y-86160030D01*
X148080030Y-86048599D01*
X148211058Y-85961049D01*
X148356649Y-85900743D01*
X148459688Y-85880248D01*
X148511206Y-85870000D01*
X148668794Y-85870000D01*
X148720312Y-85880248D01*
X148720312Y-85880248D01*
G37*
G36*
X168381203Y-85780756D02*
G01*
X168472197Y-85818447D01*
X168517695Y-85837293D01*
X168566644Y-85870000D01*
X168640533Y-85919371D01*
X168744999Y-86023837D01*
X168745000Y-86023839D01*
X168827077Y-86146675D01*
X168845923Y-86192173D01*
X168883614Y-86283167D01*
X168912436Y-86428065D01*
X168912436Y-86575803D01*
X168883614Y-86720701D01*
X168871977Y-86748794D01*
X168827077Y-86857193D01*
X168812836Y-86878506D01*
X168744999Y-86980031D01*
X168640533Y-87084497D01*
X168613149Y-87102794D01*
X168517695Y-87166575D01*
X168485361Y-87179968D01*
X168381203Y-87223112D01*
X168236305Y-87251934D01*
X168088567Y-87251934D01*
X167943669Y-87223112D01*
X167839511Y-87179968D01*
X167807177Y-87166575D01*
X167711723Y-87102794D01*
X167684339Y-87084497D01*
X167579873Y-86980031D01*
X167512036Y-86878506D01*
X167497795Y-86857193D01*
X167452895Y-86748794D01*
X167441258Y-86720701D01*
X167412436Y-86575803D01*
X167412436Y-86428065D01*
X167441258Y-86283167D01*
X167478949Y-86192173D01*
X167497795Y-86146675D01*
X167579872Y-86023839D01*
X167579873Y-86023837D01*
X167684339Y-85919371D01*
X167758228Y-85870000D01*
X167807177Y-85837293D01*
X167852675Y-85818447D01*
X167943669Y-85780756D01*
X168088567Y-85751934D01*
X168236305Y-85751934D01*
X168381203Y-85780756D01*
X168381203Y-85780756D01*
G37*
G36*
X197006824Y-85571575D02*
G01*
X197157633Y-85617322D01*
X197296604Y-85691604D01*
X197418422Y-85791578D01*
X197518396Y-85913396D01*
X197592678Y-86052367D01*
X197638425Y-86203176D01*
X197653871Y-86360000D01*
X197638425Y-86516824D01*
X197592678Y-86667633D01*
X197518396Y-86806604D01*
X197418422Y-86928422D01*
X197296604Y-87028396D01*
X197157633Y-87102678D01*
X197006824Y-87148425D01*
X196889299Y-87160000D01*
X196810701Y-87160000D01*
X196693176Y-87148425D01*
X196542367Y-87102678D01*
X196403396Y-87028396D01*
X196281578Y-86928422D01*
X196181604Y-86806604D01*
X196107322Y-86667633D01*
X196061575Y-86516824D01*
X196046129Y-86360000D01*
X196061575Y-86203176D01*
X196107322Y-86052367D01*
X196181604Y-85913396D01*
X196281578Y-85791578D01*
X196403396Y-85691604D01*
X196542367Y-85617322D01*
X196693176Y-85571575D01*
X196810701Y-85560000D01*
X196889299Y-85560000D01*
X197006824Y-85571575D01*
X197006824Y-85571575D01*
G37*
G36*
X186820312Y-85570248D02*
G01*
X186923351Y-85590743D01*
X187068942Y-85651049D01*
X187199970Y-85738599D01*
X187311401Y-85850030D01*
X187398951Y-85981058D01*
X187459257Y-86126649D01*
X187490000Y-86281207D01*
X187490000Y-86438793D01*
X187459257Y-86593351D01*
X187398951Y-86738942D01*
X187311401Y-86869970D01*
X187199970Y-86981401D01*
X187068942Y-87068951D01*
X186923351Y-87129257D01*
X186826990Y-87148424D01*
X186768794Y-87160000D01*
X186611206Y-87160000D01*
X186553010Y-87148424D01*
X186456649Y-87129257D01*
X186311058Y-87068951D01*
X186180030Y-86981401D01*
X186068599Y-86869970D01*
X185981049Y-86738942D01*
X185920743Y-86593351D01*
X185890000Y-86438793D01*
X185890000Y-86281207D01*
X185920743Y-86126649D01*
X185981049Y-85981058D01*
X186068599Y-85850030D01*
X186180030Y-85738599D01*
X186311058Y-85651049D01*
X186456649Y-85590743D01*
X186559688Y-85570248D01*
X186611206Y-85560000D01*
X186768794Y-85560000D01*
X186820312Y-85570248D01*
X186820312Y-85570248D01*
G37*
G36*
X132552251Y-85616914D02*
G01*
X132616915Y-85636530D01*
X132676511Y-85668384D01*
X132728747Y-85711253D01*
X132771616Y-85763489D01*
X132803470Y-85823085D01*
X132823086Y-85887749D01*
X132830000Y-85957947D01*
X132830000Y-86762053D01*
X132823086Y-86832251D01*
X132803470Y-86896915D01*
X132771616Y-86956511D01*
X132728747Y-87008747D01*
X132676511Y-87051616D01*
X132616915Y-87083470D01*
X132552251Y-87103086D01*
X132482053Y-87110000D01*
X131677947Y-87110000D01*
X131607749Y-87103086D01*
X131543085Y-87083470D01*
X131483489Y-87051616D01*
X131431253Y-87008747D01*
X131388384Y-86956511D01*
X131356530Y-86896915D01*
X131336914Y-86832251D01*
X131330000Y-86762053D01*
X131330000Y-85957947D01*
X131336914Y-85887749D01*
X131356530Y-85823085D01*
X131388384Y-85763489D01*
X131431253Y-85711253D01*
X131483489Y-85668384D01*
X131543085Y-85636530D01*
X131607749Y-85616914D01*
X131677947Y-85610000D01*
X132482053Y-85610000D01*
X132552251Y-85616914D01*
X132552251Y-85616914D01*
G37*
G36*
X204637451Y-85098754D02*
G01*
X204702115Y-85118370D01*
X204761711Y-85150224D01*
X204813947Y-85193093D01*
X204856816Y-85245329D01*
X204888670Y-85304925D01*
X204908286Y-85369589D01*
X204915200Y-85439787D01*
X204915200Y-86243893D01*
X204908286Y-86314091D01*
X204888670Y-86378755D01*
X204856816Y-86438351D01*
X204813947Y-86490587D01*
X204761711Y-86533456D01*
X204702115Y-86565310D01*
X204637451Y-86584926D01*
X204567253Y-86591840D01*
X203763147Y-86591840D01*
X203692949Y-86584926D01*
X203628285Y-86565310D01*
X203568689Y-86533456D01*
X203516453Y-86490587D01*
X203473584Y-86438351D01*
X203441730Y-86378755D01*
X203422114Y-86314091D01*
X203415200Y-86243893D01*
X203415200Y-85439787D01*
X203422114Y-85369589D01*
X203441730Y-85304925D01*
X203473584Y-85245329D01*
X203516453Y-85193093D01*
X203568689Y-85150224D01*
X203628285Y-85118370D01*
X203692949Y-85098754D01*
X203763147Y-85091840D01*
X204567253Y-85091840D01*
X204637451Y-85098754D01*
X204637451Y-85098754D01*
G37*
G36*
X168170342Y-84561177D02*
G01*
X166784523Y-85135202D01*
X166210498Y-83749383D01*
X167596317Y-83175358D01*
X168170342Y-84561177D01*
X168170342Y-84561177D01*
G37*
G36*
X137290312Y-83110248D02*
G01*
X137393351Y-83130743D01*
X137538942Y-83191049D01*
X137669970Y-83278599D01*
X137781401Y-83390030D01*
X137868951Y-83521058D01*
X137929257Y-83666649D01*
X137960000Y-83821207D01*
X137960000Y-83978793D01*
X137929257Y-84133351D01*
X137868951Y-84278942D01*
X137781401Y-84409970D01*
X137669970Y-84521401D01*
X137538942Y-84608951D01*
X137393351Y-84669257D01*
X137290312Y-84689752D01*
X137238794Y-84700000D01*
X137081206Y-84700000D01*
X137029688Y-84689752D01*
X136926649Y-84669257D01*
X136781058Y-84608951D01*
X136650030Y-84521401D01*
X136538599Y-84409970D01*
X136451049Y-84278942D01*
X136390743Y-84133351D01*
X136360000Y-83978793D01*
X136360000Y-83821207D01*
X136390743Y-83666649D01*
X136451049Y-83521058D01*
X136538599Y-83390030D01*
X136650030Y-83278599D01*
X136781058Y-83191049D01*
X136926649Y-83130743D01*
X137029688Y-83110248D01*
X137081206Y-83100000D01*
X137238794Y-83100000D01*
X137290312Y-83110248D01*
X137290312Y-83110248D01*
G37*
G36*
X156366824Y-80491575D02*
G01*
X156517633Y-80537322D01*
X156656604Y-80611604D01*
X156778422Y-80711578D01*
X156878396Y-80833396D01*
X156952678Y-80972367D01*
X156998425Y-81123176D01*
X157013871Y-81280000D01*
X156998425Y-81436824D01*
X156952678Y-81587633D01*
X156878396Y-81726604D01*
X156778422Y-81848422D01*
X156656604Y-81948396D01*
X156517633Y-82022678D01*
X156366824Y-82068425D01*
X156249299Y-82080000D01*
X156170701Y-82080000D01*
X156053176Y-82068425D01*
X155902367Y-82022678D01*
X155763396Y-81948396D01*
X155641578Y-81848422D01*
X155541604Y-81726604D01*
X155467322Y-81587633D01*
X155421575Y-81436824D01*
X155406129Y-81280000D01*
X155421575Y-81123176D01*
X155467322Y-80972367D01*
X155541604Y-80833396D01*
X155641578Y-80711578D01*
X155763396Y-80611604D01*
X155902367Y-80537322D01*
X156053176Y-80491575D01*
X156170701Y-80480000D01*
X156249299Y-80480000D01*
X156366824Y-80491575D01*
X156366824Y-80491575D01*
G37*
G36*
X161446824Y-80491575D02*
G01*
X161597633Y-80537322D01*
X161736604Y-80611604D01*
X161858422Y-80711578D01*
X161958396Y-80833396D01*
X162032678Y-80972367D01*
X162078425Y-81123176D01*
X162093871Y-81280000D01*
X162078425Y-81436824D01*
X162032678Y-81587633D01*
X161958396Y-81726604D01*
X161858422Y-81848422D01*
X161736604Y-81948396D01*
X161597633Y-82022678D01*
X161446824Y-82068425D01*
X161329299Y-82080000D01*
X161250701Y-82080000D01*
X161133176Y-82068425D01*
X160982367Y-82022678D01*
X160843396Y-81948396D01*
X160721578Y-81848422D01*
X160621604Y-81726604D01*
X160547322Y-81587633D01*
X160501575Y-81436824D01*
X160486129Y-81280000D01*
X160501575Y-81123176D01*
X160547322Y-80972367D01*
X160621604Y-80833396D01*
X160721578Y-80711578D01*
X160843396Y-80611604D01*
X160982367Y-80537322D01*
X161133176Y-80491575D01*
X161250701Y-80480000D01*
X161329299Y-80480000D01*
X161446824Y-80491575D01*
X161446824Y-80491575D01*
G37*
G36*
X150128722Y-80675983D02*
G01*
X149554697Y-82061802D01*
X148168878Y-81487777D01*
X148742903Y-80101958D01*
X150128722Y-80675983D01*
X150128722Y-80675983D01*
G37*
G36*
X191985711Y-80437854D02*
G01*
X192050375Y-80457470D01*
X192109971Y-80489324D01*
X192162207Y-80532193D01*
X192205076Y-80584429D01*
X192236930Y-80644025D01*
X192256546Y-80708689D01*
X192263460Y-80778887D01*
X192263460Y-81582993D01*
X192256546Y-81653191D01*
X192236930Y-81717855D01*
X192205076Y-81777451D01*
X192162207Y-81829687D01*
X192109971Y-81872556D01*
X192050375Y-81904410D01*
X191985711Y-81924026D01*
X191915513Y-81930940D01*
X191111407Y-81930940D01*
X191041209Y-81924026D01*
X190976545Y-81904410D01*
X190916949Y-81872556D01*
X190864713Y-81829687D01*
X190821844Y-81777451D01*
X190789990Y-81717855D01*
X190770374Y-81653191D01*
X190763460Y-81582993D01*
X190763460Y-80778887D01*
X190770374Y-80708689D01*
X190789990Y-80644025D01*
X190821844Y-80584429D01*
X190864713Y-80532193D01*
X190916949Y-80489324D01*
X190976545Y-80457470D01*
X191041209Y-80437854D01*
X191111407Y-80430940D01*
X191915513Y-80430940D01*
X191985711Y-80437854D01*
X191985711Y-80437854D01*
G37*
G36*
X133710375Y-75317061D02*
G01*
X133987292Y-75372143D01*
X134378567Y-75534215D01*
X134730705Y-75769506D01*
X135030174Y-76068975D01*
X135265465Y-76421113D01*
X135427537Y-76812388D01*
X135510160Y-77227763D01*
X135510160Y-77651277D01*
X135427537Y-78066652D01*
X135265465Y-78457927D01*
X135030174Y-78810065D01*
X134730705Y-79109534D01*
X134378567Y-79344825D01*
X133987292Y-79506897D01*
X133710375Y-79561979D01*
X133571918Y-79589520D01*
X133148402Y-79589520D01*
X133009945Y-79561979D01*
X132733028Y-79506897D01*
X132341753Y-79344825D01*
X131989615Y-79109534D01*
X131690146Y-78810065D01*
X131454855Y-78457927D01*
X131292783Y-78066652D01*
X131210160Y-77651277D01*
X131210160Y-77227763D01*
X131292783Y-76812388D01*
X131454855Y-76421113D01*
X131690146Y-76068975D01*
X131989615Y-75769506D01*
X132341753Y-75534215D01*
X132733028Y-75372143D01*
X133009945Y-75317061D01*
X133148402Y-75289520D01*
X133571918Y-75289520D01*
X133710375Y-75317061D01*
X133710375Y-75317061D01*
G37*
G36*
X142370312Y-77950248D02*
G01*
X142473351Y-77970743D01*
X142618942Y-78031049D01*
X142749970Y-78118599D01*
X142861401Y-78230030D01*
X142948951Y-78361058D01*
X143009257Y-78506649D01*
X143029752Y-78609688D01*
X143039375Y-78658062D01*
X143040000Y-78661207D01*
X143040000Y-78818793D01*
X143009257Y-78973351D01*
X142948951Y-79118942D01*
X142861401Y-79249970D01*
X142749970Y-79361401D01*
X142618942Y-79448951D01*
X142473351Y-79509257D01*
X142370312Y-79529752D01*
X142318794Y-79540000D01*
X142161206Y-79540000D01*
X142109688Y-79529752D01*
X142006649Y-79509257D01*
X141861058Y-79448951D01*
X141730030Y-79361401D01*
X141618599Y-79249970D01*
X141531049Y-79118942D01*
X141470743Y-78973351D01*
X141440000Y-78818793D01*
X141440000Y-78661207D01*
X141440626Y-78658062D01*
X141450248Y-78609688D01*
X141470743Y-78506649D01*
X141531049Y-78361058D01*
X141618599Y-78230030D01*
X141730030Y-78118599D01*
X141861058Y-78031049D01*
X142006649Y-77970743D01*
X142109688Y-77950248D01*
X142161206Y-77940000D01*
X142318794Y-77940000D01*
X142370312Y-77950248D01*
X142370312Y-77950248D01*
G37*
G36*
X150339583Y-78014048D02*
G01*
X150430577Y-78051739D01*
X150476075Y-78070585D01*
X150482462Y-78074853D01*
X150598913Y-78152663D01*
X150703379Y-78257129D01*
X150703380Y-78257131D01*
X150785457Y-78379967D01*
X150785457Y-78379968D01*
X150841994Y-78516459D01*
X150870816Y-78661357D01*
X150870816Y-78809095D01*
X150841994Y-78953993D01*
X150810578Y-79029837D01*
X150785457Y-79090485D01*
X150737709Y-79161944D01*
X150703379Y-79213323D01*
X150598913Y-79317789D01*
X150589592Y-79324017D01*
X150476075Y-79399867D01*
X150459723Y-79406640D01*
X150339583Y-79456404D01*
X150194685Y-79485226D01*
X150046947Y-79485226D01*
X149902049Y-79456404D01*
X149781909Y-79406640D01*
X149765557Y-79399867D01*
X149652040Y-79324017D01*
X149642719Y-79317789D01*
X149538253Y-79213323D01*
X149503923Y-79161944D01*
X149456175Y-79090485D01*
X149431054Y-79029837D01*
X149399638Y-78953993D01*
X149370816Y-78809095D01*
X149370816Y-78661357D01*
X149399638Y-78516459D01*
X149456175Y-78379968D01*
X149456175Y-78379967D01*
X149538252Y-78257131D01*
X149538253Y-78257129D01*
X149642719Y-78152663D01*
X149759170Y-78074853D01*
X149765557Y-78070585D01*
X149811055Y-78051739D01*
X149902049Y-78014048D01*
X150046947Y-77985226D01*
X150194685Y-77985226D01*
X150339583Y-78014048D01*
X150339583Y-78014048D01*
G37*
G36*
X202181155Y-75134181D02*
G01*
X202458072Y-75189263D01*
X202849347Y-75351335D01*
X203201485Y-75586626D01*
X203500954Y-75886095D01*
X203736245Y-76238233D01*
X203898317Y-76629508D01*
X203980940Y-77044883D01*
X203980940Y-77468397D01*
X203898317Y-77883772D01*
X203736245Y-78275047D01*
X203500954Y-78627185D01*
X203201485Y-78926654D01*
X202849347Y-79161945D01*
X202458072Y-79324017D01*
X202270129Y-79361401D01*
X202042698Y-79406640D01*
X201619182Y-79406640D01*
X201391751Y-79361401D01*
X201203808Y-79324017D01*
X200812533Y-79161945D01*
X200460395Y-78926654D01*
X200160926Y-78627185D01*
X199925635Y-78275047D01*
X199763563Y-77883772D01*
X199680940Y-77468397D01*
X199680940Y-77044883D01*
X199763563Y-76629508D01*
X199925635Y-76238233D01*
X200160926Y-75886095D01*
X200460395Y-75586626D01*
X200812533Y-75351335D01*
X201203808Y-75189263D01*
X201480725Y-75134181D01*
X201619182Y-75106640D01*
X202042698Y-75106640D01*
X202181155Y-75134181D01*
X202181155Y-75134181D01*
G37*
G36*
X184164168Y-77544881D02*
G01*
X184262313Y-77564403D01*
X184400988Y-77621844D01*
X184400990Y-77621845D01*
X184445038Y-77651277D01*
X184525793Y-77705236D01*
X184631930Y-77811373D01*
X184715322Y-77936178D01*
X184772763Y-78074853D01*
X184802046Y-78222070D01*
X184802046Y-78372170D01*
X184772763Y-78519387D01*
X184715322Y-78658062D01*
X184715321Y-78658064D01*
X184673626Y-78720465D01*
X184631930Y-78782867D01*
X184525793Y-78889004D01*
X184469446Y-78926654D01*
X184400990Y-78972395D01*
X184400989Y-78972396D01*
X184400988Y-78972396D01*
X184262313Y-79029837D01*
X184164168Y-79049359D01*
X184115097Y-79059120D01*
X183964995Y-79059120D01*
X183915924Y-79049359D01*
X183817779Y-79029837D01*
X183679104Y-78972396D01*
X183679103Y-78972396D01*
X183679102Y-78972395D01*
X183610646Y-78926654D01*
X183554299Y-78889004D01*
X183448162Y-78782867D01*
X183406466Y-78720465D01*
X183364771Y-78658064D01*
X183364770Y-78658062D01*
X183307329Y-78519387D01*
X183278046Y-78372170D01*
X183278046Y-78222070D01*
X183307329Y-78074853D01*
X183364770Y-77936178D01*
X183448162Y-77811373D01*
X183554299Y-77705236D01*
X183635054Y-77651277D01*
X183679102Y-77621845D01*
X183679104Y-77621844D01*
X183817779Y-77564403D01*
X183915924Y-77544881D01*
X183964995Y-77535120D01*
X184115097Y-77535120D01*
X184164168Y-77544881D01*
X184164168Y-77544881D01*
G37*
G36*
X179084168Y-77544881D02*
G01*
X179182313Y-77564403D01*
X179320988Y-77621844D01*
X179320990Y-77621845D01*
X179365038Y-77651277D01*
X179445793Y-77705236D01*
X179551930Y-77811373D01*
X179635322Y-77936178D01*
X179692763Y-78074853D01*
X179722046Y-78222070D01*
X179722046Y-78372170D01*
X179692763Y-78519387D01*
X179635322Y-78658062D01*
X179635321Y-78658064D01*
X179593626Y-78720465D01*
X179551930Y-78782867D01*
X179445793Y-78889004D01*
X179389446Y-78926654D01*
X179320990Y-78972395D01*
X179320989Y-78972396D01*
X179320988Y-78972396D01*
X179182313Y-79029837D01*
X179084168Y-79049359D01*
X179035097Y-79059120D01*
X178884995Y-79059120D01*
X178835924Y-79049359D01*
X178737779Y-79029837D01*
X178599104Y-78972396D01*
X178599103Y-78972396D01*
X178599102Y-78972395D01*
X178530646Y-78926654D01*
X178474299Y-78889004D01*
X178368162Y-78782867D01*
X178326466Y-78720465D01*
X178284771Y-78658064D01*
X178284770Y-78658062D01*
X178227329Y-78519387D01*
X178198046Y-78372170D01*
X178198046Y-78222070D01*
X178227329Y-78074853D01*
X178284770Y-77936178D01*
X178368162Y-77811373D01*
X178474299Y-77705236D01*
X178555054Y-77651277D01*
X178599102Y-77621845D01*
X178599104Y-77621844D01*
X178737779Y-77564403D01*
X178835924Y-77544881D01*
X178884995Y-77535120D01*
X179035097Y-77535120D01*
X179084168Y-77544881D01*
X179084168Y-77544881D01*
G37*
G36*
X181624168Y-77544881D02*
G01*
X181722313Y-77564403D01*
X181860988Y-77621844D01*
X181860990Y-77621845D01*
X181905038Y-77651277D01*
X181985793Y-77705236D01*
X182091930Y-77811373D01*
X182175322Y-77936178D01*
X182232763Y-78074853D01*
X182262046Y-78222070D01*
X182262046Y-78372170D01*
X182232763Y-78519387D01*
X182175322Y-78658062D01*
X182175321Y-78658064D01*
X182133626Y-78720465D01*
X182091930Y-78782867D01*
X181985793Y-78889004D01*
X181929446Y-78926654D01*
X181860990Y-78972395D01*
X181860989Y-78972396D01*
X181860988Y-78972396D01*
X181722313Y-79029837D01*
X181624168Y-79049359D01*
X181575097Y-79059120D01*
X181424995Y-79059120D01*
X181375924Y-79049359D01*
X181277779Y-79029837D01*
X181139104Y-78972396D01*
X181139103Y-78972396D01*
X181139102Y-78972395D01*
X181070646Y-78926654D01*
X181014299Y-78889004D01*
X180908162Y-78782867D01*
X180866466Y-78720465D01*
X180824771Y-78658064D01*
X180824770Y-78658062D01*
X180767329Y-78519387D01*
X180738046Y-78372170D01*
X180738046Y-78222070D01*
X180767329Y-78074853D01*
X180824770Y-77936178D01*
X180908162Y-77811373D01*
X181014299Y-77705236D01*
X181095054Y-77651277D01*
X181139102Y-77621845D01*
X181139104Y-77621844D01*
X181277779Y-77564403D01*
X181375924Y-77544881D01*
X181424995Y-77535120D01*
X181575097Y-77535120D01*
X181624168Y-77544881D01*
X181624168Y-77544881D01*
G37*
G36*
X151311599Y-75667394D02*
G01*
X151387629Y-75698887D01*
X151448091Y-75723931D01*
X151516297Y-75769505D01*
X151570929Y-75806009D01*
X151675395Y-75910475D01*
X151675396Y-75910477D01*
X151757473Y-76033313D01*
X151772245Y-76068977D01*
X151814010Y-76169805D01*
X151842832Y-76314703D01*
X151842832Y-76462441D01*
X151814010Y-76607339D01*
X151787122Y-76672251D01*
X151757473Y-76743831D01*
X151722273Y-76796511D01*
X151675395Y-76866669D01*
X151570929Y-76971135D01*
X151529797Y-76998618D01*
X151448091Y-77053213D01*
X151402593Y-77072059D01*
X151311599Y-77109750D01*
X151166701Y-77138572D01*
X151018963Y-77138572D01*
X150874065Y-77109750D01*
X150783071Y-77072059D01*
X150737573Y-77053213D01*
X150655867Y-76998618D01*
X150614735Y-76971135D01*
X150510269Y-76866669D01*
X150463391Y-76796511D01*
X150428191Y-76743831D01*
X150398542Y-76672251D01*
X150371654Y-76607339D01*
X150342832Y-76462441D01*
X150342832Y-76314703D01*
X150371654Y-76169805D01*
X150413419Y-76068977D01*
X150428191Y-76033313D01*
X150510268Y-75910477D01*
X150510269Y-75910475D01*
X150614735Y-75806009D01*
X150669367Y-75769505D01*
X150737573Y-75723931D01*
X150798035Y-75698887D01*
X150874065Y-75667394D01*
X151018963Y-75638572D01*
X151166701Y-75638572D01*
X151311599Y-75667394D01*
X151311599Y-75667394D01*
G37*
G36*
X160492251Y-75456914D02*
G01*
X160556915Y-75476530D01*
X160616511Y-75508384D01*
X160668747Y-75551253D01*
X160711616Y-75603489D01*
X160743470Y-75663085D01*
X160763086Y-75727749D01*
X160770000Y-75797947D01*
X160770000Y-76602053D01*
X160763086Y-76672251D01*
X160743470Y-76736915D01*
X160711616Y-76796511D01*
X160668747Y-76848747D01*
X160616511Y-76891616D01*
X160556915Y-76923470D01*
X160492251Y-76943086D01*
X160422053Y-76950000D01*
X159617947Y-76950000D01*
X159547749Y-76943086D01*
X159483085Y-76923470D01*
X159423489Y-76891616D01*
X159371253Y-76848747D01*
X159328384Y-76796511D01*
X159296530Y-76736915D01*
X159276914Y-76672251D01*
X159270000Y-76602053D01*
X159270000Y-75797947D01*
X159276914Y-75727749D01*
X159296530Y-75663085D01*
X159328384Y-75603489D01*
X159371253Y-75551253D01*
X159423489Y-75508384D01*
X159483085Y-75476530D01*
X159547749Y-75456914D01*
X159617947Y-75450000D01*
X160422053Y-75450000D01*
X160492251Y-75456914D01*
X160492251Y-75456914D01*
G37*
G36*
X165572251Y-75456914D02*
G01*
X165636915Y-75476530D01*
X165696511Y-75508384D01*
X165748747Y-75551253D01*
X165791616Y-75603489D01*
X165823470Y-75663085D01*
X165843086Y-75727749D01*
X165850000Y-75797947D01*
X165850000Y-76602053D01*
X165843086Y-76672251D01*
X165823470Y-76736915D01*
X165791616Y-76796511D01*
X165748747Y-76848747D01*
X165696511Y-76891616D01*
X165636915Y-76923470D01*
X165572251Y-76943086D01*
X165502053Y-76950000D01*
X164697947Y-76950000D01*
X164627749Y-76943086D01*
X164563085Y-76923470D01*
X164503489Y-76891616D01*
X164451253Y-76848747D01*
X164408384Y-76796511D01*
X164376530Y-76736915D01*
X164356914Y-76672251D01*
X164350000Y-76602053D01*
X164350000Y-75797947D01*
X164356914Y-75727749D01*
X164376530Y-75663085D01*
X164408384Y-75603489D01*
X164451253Y-75551253D01*
X164503489Y-75508384D01*
X164563085Y-75476530D01*
X164627749Y-75456914D01*
X164697947Y-75450000D01*
X165502053Y-75450000D01*
X165572251Y-75456914D01*
X165572251Y-75456914D01*
G37*
G36*
X191985711Y-75357854D02*
G01*
X192050375Y-75377470D01*
X192109971Y-75409324D01*
X192162207Y-75452193D01*
X192205076Y-75504429D01*
X192236930Y-75564025D01*
X192256546Y-75628689D01*
X192263460Y-75698887D01*
X192263460Y-76502993D01*
X192256546Y-76573191D01*
X192236930Y-76637855D01*
X192205076Y-76697451D01*
X192162207Y-76749687D01*
X192109971Y-76792556D01*
X192050375Y-76824410D01*
X191985711Y-76844026D01*
X191915513Y-76850940D01*
X191111407Y-76850940D01*
X191041209Y-76844026D01*
X190976545Y-76824410D01*
X190916949Y-76792556D01*
X190864713Y-76749687D01*
X190821844Y-76697451D01*
X190789990Y-76637855D01*
X190770374Y-76573191D01*
X190763460Y-76502993D01*
X190763460Y-75698887D01*
X190770374Y-75628689D01*
X190789990Y-75564025D01*
X190821844Y-75504429D01*
X190864713Y-75452193D01*
X190916949Y-75409324D01*
X190976545Y-75377470D01*
X191041209Y-75357854D01*
X191111407Y-75350940D01*
X191915513Y-75350940D01*
X191985711Y-75357854D01*
X191985711Y-75357854D01*
G37*
M02*
